<svg width="44" height="50" viewBox="0 0 44 50" fill="none" xmlns="http://www.w3.org/2000/svg">
<g clip-path="url(#clip0_534_34379)">
<path d="M6.66424 49.9849H37.2017L37.8214 46.5446H6.04395L6.66424 49.9849Z" fill="white"/>
<path d="M2.78955 28.4765L5.27918 42.3401L5.7958 45.1914H38.0592L38.5752 42.3401L41.0654 28.4765H2.78955ZM21.9326 42.5053C19.5563 42.5053 17.6249 40.5738 17.6249 38.1975C17.6249 35.8218 19.5563 33.8898 21.9326 33.8898C24.3089 33.8898 26.2403 35.8218 26.2403 38.1975C26.2403 40.5738 24.3089 42.5053 21.9326 42.5053Z" fill="white"/>
<path d="M21.9334 35.2431C20.301 35.2431 18.979 36.5651 18.979 38.1975C18.979 39.8299 20.301 41.1519 21.9334 41.1519C23.5658 41.1519 24.8878 39.8299 24.8878 38.1975C24.8878 36.5651 23.5658 35.2431 21.9334 35.2431Z" fill="white"/>
<path d="M12.5728 13.4554V21.5651C12.5728 23.6412 13.3685 25.6045 14.8044 27.1128H29.061C30.5072 25.6045 31.2926 23.6412 31.2926 21.5651V13.2383C29.1954 12.143 27.0566 10.862 26.2404 10.3768C22.2118 12.515 14.8044 13.2691 12.5728 13.4554ZM29.867 19.2406C29.867 21.2655 28.2243 22.9081 26.1994 22.9081C24.4121 22.9081 22.9141 21.6163 22.6042 19.9224H21.2714C20.9513 21.6163 19.4636 22.9081 17.6762 22.9081C15.6513 22.9081 14.0087 21.2655 14.0087 19.2406C14.0087 17.2157 15.6513 15.5731 17.6762 15.5731C19.4636 15.5731 20.9616 16.8643 21.2714 18.5588H22.6042C22.9243 16.8643 24.4121 15.5731 26.1994 15.5731C28.2243 15.5833 29.867 17.226 29.867 19.2406Z" fill="white"/>
<path d="M11.2191 18.879V14.4886C10.1653 14.6641 9.37021 15.5834 9.37021 16.6889C9.35997 17.7836 10.1653 18.7035 11.2191 18.879Z" fill="white"/>
<path d="M32.646 18.8789C33.6997 18.7035 34.4948 17.7836 34.4948 16.6787C34.4948 15.5833 33.6889 14.6641 32.646 14.4778V18.8789Z" fill="white"/>
<path d="M11.2196 12.8251C11.2196 12.464 11.4988 12.1746 11.8604 12.1433C11.9533 12.133 21.6641 11.4928 25.9205 8.99236C26.1376 8.86879 26.4058 8.86879 26.6228 9.00321C26.6542 9.02371 29.5881 10.8316 32.2947 12.2156C32.522 12.3296 32.6667 12.5671 32.6667 12.8251V13.1144C32.8318 13.1355 32.997 13.156 33.1519 13.197V7.15377C32.6667 5.02583 31.4683 3.66165 29.5676 3.0938C28.1003 2.64953 26.7675 2.85629 26.7573 2.85629C26.5613 2.88704 26.3648 2.83519 26.2099 2.71162C23.8336 0.727745 21.0757 0.0152155 18.0279 0.604167C15.8686 1.0171 14.2982 1.96774 14.0812 2.11242C10.7754 4.84981 10.2594 10.749 10.2075 13.3833C10.5276 13.2489 10.8586 13.1663 11.2196 13.1247V12.8251Z" fill="white"/>
<path d="M28.5033 19.2407C28.5033 19.392 28.4889 19.5415 28.4593 19.6898C28.4298 19.8387 28.3858 19.9821 28.3279 20.122C28.27 20.2618 28.1995 20.3945 28.1151 20.5205C28.0313 20.6464 27.9355 20.7628 27.8288 20.8695C27.7221 20.9768 27.6057 21.072 27.4797 21.1558C27.3538 21.2402 27.2211 21.3113 27.0813 21.3692C26.9414 21.4271 26.7974 21.4705 26.6491 21.5C26.5008 21.5296 26.3513 21.544 26.2 21.544C26.0487 21.544 25.8986 21.5296 25.7503 21.5C25.602 21.4705 25.4579 21.4271 25.318 21.3692C25.1782 21.3113 25.0456 21.2402 24.9202 21.1558C24.7942 21.072 24.6778 20.9768 24.5705 20.8695C24.4638 20.7628 24.3686 20.6464 24.2842 20.5205C24.2004 20.3945 24.1293 20.2618 24.0714 20.122C24.0135 19.9821 23.9695 19.8387 23.94 19.6898C23.9111 19.5415 23.896 19.392 23.896 19.2407C23.896 19.0894 23.9111 18.9393 23.94 18.791C23.9695 18.6427 24.0135 18.4986 24.0714 18.3588C24.1293 18.2195 24.2004 18.0863 24.2842 17.9609C24.3686 17.8349 24.4638 17.7186 24.5705 17.6119C24.6778 17.5046 24.7942 17.4093 24.9202 17.3249C25.0456 17.2411 25.1782 17.17 25.318 17.1121C25.4579 17.0543 25.602 17.0109 25.7503 16.9813C25.8986 16.9518 26.0487 16.9367 26.2 16.9367C26.3513 16.9367 26.5008 16.9518 26.6491 16.9813C26.7974 17.0109 26.9414 17.0543 27.0813 17.1121C27.2211 17.17 27.3538 17.2411 27.4797 17.3249C27.6057 17.4093 27.7221 17.5046 27.8288 17.6119C27.9355 17.7186 28.0313 17.8349 28.1151 17.9609C28.1995 18.0863 28.27 18.2195 28.3279 18.3588C28.3858 18.4986 28.4298 18.6427 28.4593 18.791C28.4889 18.9393 28.5033 19.0894 28.5033 19.2407Z" fill="white"/>
<path d="M19.9702 19.2407C19.9702 19.392 19.9552 19.5415 19.9256 19.6898C19.8961 19.8387 19.8527 19.9821 19.7948 20.122C19.7369 20.2618 19.6658 20.3945 19.582 20.5205C19.4976 20.6464 19.4024 20.7628 19.2951 20.8695C19.1884 20.9768 19.072 21.072 18.9461 21.1558C18.8207 21.2402 18.6874 21.3113 18.5482 21.3692C18.4083 21.4271 18.2643 21.4705 18.116 21.5C17.9677 21.5296 17.8176 21.544 17.6663 21.544C17.515 21.544 17.3655 21.5296 17.2172 21.5C17.0683 21.4705 16.9242 21.4271 16.785 21.3692C16.6451 21.3113 16.5125 21.2402 16.3865 21.1558C16.2605 21.072 16.1442 20.9768 16.0375 20.8695C15.9302 20.7628 15.8349 20.6464 15.7511 20.5205C15.6667 20.3945 15.5956 20.2618 15.5377 20.122C15.4799 19.9821 15.4365 19.8387 15.4069 19.6898C15.3774 19.5415 15.3623 19.392 15.3623 19.2407C15.3623 19.0894 15.3774 18.9393 15.4069 18.791C15.4365 18.6427 15.4799 18.4986 15.5377 18.3588C15.5956 18.2195 15.6667 18.0863 15.7511 17.9609C15.8349 17.8349 15.9302 17.7186 16.0375 17.6119C16.1442 17.5046 16.2605 17.4093 16.3865 17.3249C16.5125 17.2411 16.6451 17.17 16.785 17.1121C16.9242 17.0543 17.0683 17.0109 17.2172 16.9813C17.3655 16.9518 17.515 16.9367 17.6663 16.9367C17.8176 16.9367 17.9677 16.9518 18.116 16.9813C18.2643 17.0109 18.4083 17.0543 18.5482 17.1121C18.6874 17.17 18.8207 17.2411 18.9461 17.3249C19.072 17.4093 19.1884 17.5046 19.2951 17.6119C19.4024 17.7186 19.4976 17.8349 19.582 17.9609C19.6658 18.0863 19.7369 18.2195 19.7948 18.3588C19.8527 18.4986 19.8961 18.6427 19.9256 18.791C19.9552 18.9393 19.9702 19.0894 19.9702 19.2407Z" fill="white"/>
<mask id="mask0_534_34379" style="mask-type:luminance" maskUnits="userSpaceOnUse" x="38" y="43" width="6" height="7">
<path d="M38.5811 43.21H43.8666V50.0001H38.5811V43.21Z" fill="white"/>
</mask>
<g mask="url(#mask0_534_34379)">
<path d="M39.7946 43.2184L39.2985 45.9974L38.5859 49.985H42.1082C43.0793 49.985 43.8751 49.1893 43.8751 48.2187C43.8648 45.7906 42.1293 43.7037 39.7946 43.2184Z" fill="white"/>
</g>
<path d="M4.07022 43.2183C1.74576 43.7036 0 45.7905 0 48.2187C0 49.2001 0.795718 49.9849 1.76686 49.9849H5.28911L4.57659 45.9973L4.07022 43.2183Z" fill="white"/>
<path d="M6.66424 49.9849H37.2017L37.8214 46.5446H6.04395L6.66424 49.9849Z" fill="white"/>
<path d="M2.78955 28.4765L5.27918 42.3401L5.7958 45.1914H38.0592L38.5752 42.3401L41.0654 28.4765H2.78955ZM21.9326 42.5053C19.5563 42.5053 17.6249 40.5738 17.6249 38.1975C17.6249 35.8218 19.5563 33.8898 21.9326 33.8898C24.3089 33.8898 26.2403 35.8218 26.2403 38.1975C26.2403 40.5738 24.3089 42.5053 21.9326 42.5053Z" fill="white"/>
<path d="M21.9334 35.2431C20.301 35.2431 18.979 36.5651 18.979 38.1975C18.979 39.8299 20.301 41.1519 21.9334 41.1519C23.5658 41.1519 24.8878 39.8299 24.8878 38.1975C24.8878 36.5651 23.5658 35.2431 21.9334 35.2431Z" fill="white"/>
<path d="M12.5728 13.4554V21.5651C12.5728 23.6412 13.3685 25.6045 14.8044 27.1128H29.061C30.5072 25.6045 31.2926 23.6412 31.2926 21.5651V13.2383C29.1954 12.143 27.0566 10.862 26.2404 10.3768C22.2118 12.515 14.8044 13.2691 12.5728 13.4554ZM29.867 19.2406C29.867 21.2655 28.2243 22.9081 26.1994 22.9081C24.4121 22.9081 22.9141 21.6163 22.6042 19.9224H21.2714C20.9513 21.6163 19.4636 22.9081 17.6762 22.9081C15.6513 22.9081 14.0087 21.2655 14.0087 19.2406C14.0087 17.2157 15.6513 15.5731 17.6762 15.5731C19.4636 15.5731 20.9616 16.8643 21.2714 18.5588H22.6042C22.9243 16.8643 24.4121 15.5731 26.1994 15.5731C28.2243 15.5833 29.867 17.226 29.867 19.2406Z" fill="white"/>
<path d="M11.2191 18.879V14.4886C10.1653 14.6641 9.37021 15.5834 9.37021 16.6889C9.35997 17.7836 10.1653 18.7035 11.2191 18.879Z" fill="white"/>
<path d="M32.646 18.8789C33.6997 18.7035 34.4948 17.7836 34.4948 16.6787C34.4948 15.5833 33.6889 14.6641 32.646 14.4778V18.8789Z" fill="white"/>
<path d="M11.2196 12.8251C11.2196 12.464 11.4988 12.1746 11.8604 12.1433C11.9533 12.133 21.6641 11.4928 25.9205 8.99236C26.1376 8.86879 26.4058 8.86879 26.6228 9.00321C26.6542 9.02371 29.5881 10.8316 32.2947 12.2156C32.522 12.3296 32.6667 12.5671 32.6667 12.8251V13.1144C32.8318 13.1355 32.997 13.156 33.1519 13.197V7.15377C32.6667 5.02583 31.4683 3.66165 29.5676 3.0938C28.1003 2.64953 26.7675 2.85629 26.7573 2.85629C26.5613 2.88704 26.3648 2.83519 26.2099 2.71162C23.8336 0.727745 21.0757 0.0152155 18.0279 0.604167C15.8686 1.0171 14.2982 1.96774 14.0812 2.11242C10.7754 4.84981 10.2594 10.749 10.2075 13.3833C10.5276 13.2489 10.8586 13.1663 11.2196 13.1247V12.8251Z" fill="white"/>
<path d="M28.5033 19.2407C28.5033 19.392 28.4889 19.5415 28.4593 19.6898C28.4298 19.8387 28.3858 19.9821 28.3279 20.122C28.27 20.2618 28.1995 20.3945 28.1151 20.5205C28.0313 20.6464 27.9355 20.7628 27.8288 20.8695C27.7221 20.9768 27.6057 21.072 27.4797 21.1558C27.3538 21.2402 27.2211 21.3113 27.0813 21.3692C26.9414 21.4271 26.7974 21.4705 26.6491 21.5C26.5008 21.5296 26.3513 21.544 26.2 21.544C26.0487 21.544 25.8986 21.5296 25.7503 21.5C25.602 21.4705 25.4579 21.4271 25.318 21.3692C25.1782 21.3113 25.0456 21.2402 24.9202 21.1558C24.7942 21.072 24.6778 20.9768 24.5705 20.8695C24.4638 20.7628 24.3686 20.6464 24.2842 20.5205C24.2004 20.3945 24.1293 20.2618 24.0714 20.122C24.0135 19.9821 23.9695 19.8387 23.94 19.6898C23.9111 19.5415 23.896 19.392 23.896 19.2407C23.896 19.0894 23.9111 18.9393 23.94 18.791C23.9695 18.6427 24.0135 18.4986 24.0714 18.3588C24.1293 18.2195 24.2004 18.0863 24.2842 17.9609C24.3686 17.8349 24.4638 17.7186 24.5705 17.6119C24.6778 17.5046 24.7942 17.4093 24.9202 17.3249C25.0456 17.2411 25.1782 17.17 25.318 17.1121C25.4579 17.0543 25.602 17.0109 25.7503 16.9813C25.8986 16.9518 26.0487 16.9367 26.2 16.9367C26.3513 16.9367 26.5008 16.9518 26.6491 16.9813C26.7974 17.0109 26.9414 17.0543 27.0813 17.1121C27.2211 17.17 27.3538 17.2411 27.4797 17.3249C27.6057 17.4093 27.7221 17.5046 27.8288 17.6119C27.9355 17.7186 28.0313 17.8349 28.1151 17.9609C28.1995 18.0863 28.27 18.2195 28.3279 18.3588C28.3858 18.4986 28.4298 18.6427 28.4593 18.791C28.4889 18.9393 28.5033 19.0894 28.5033 19.2407Z" fill="white"/>
<path d="M19.9702 19.2407C19.9702 19.392 19.9552 19.5415 19.9256 19.6898C19.8961 19.8387 19.8527 19.9821 19.7948 20.122C19.7369 20.2618 19.6658 20.3945 19.582 20.5205C19.4976 20.6464 19.4024 20.7628 19.2951 20.8695C19.1884 20.9768 19.072 21.072 18.9461 21.1558C18.8207 21.2402 18.6874 21.3113 18.5482 21.3692C18.4083 21.4271 18.2643 21.4705 18.116 21.5C17.9677 21.5296 17.8176 21.544 17.6663 21.544C17.515 21.544 17.3655 21.5296 17.2172 21.5C17.0683 21.4705 16.9242 21.4271 16.785 21.3692C16.6451 21.3113 16.5125 21.2402 16.3865 21.1558C16.2605 21.072 16.1442 20.9768 16.0375 20.8695C15.9302 20.7628 15.8349 20.6464 15.7511 20.5205C15.6667 20.3945 15.5956 20.2618 15.5377 20.122C15.4799 19.9821 15.4365 19.8387 15.4069 19.6898C15.3774 19.5415 15.3623 19.392 15.3623 19.2407C15.3623 19.0894 15.3774 18.9393 15.4069 18.791C15.4365 18.6427 15.4799 18.4986 15.5377 18.3588C15.5956 18.2195 15.6667 18.0863 15.7511 17.9609C15.8349 17.8349 15.9302 17.7186 16.0375 17.6119C16.1442 17.5046 16.2605 17.4093 16.3865 17.3249C16.5125 17.2411 16.6451 17.17 16.785 17.1121C16.9242 17.0543 17.0683 17.0109 17.2172 16.9813C17.3655 16.9518 17.515 16.9367 17.6663 16.9367C17.8176 16.9367 17.9677 16.9518 18.116 16.9813C18.2643 17.0109 18.4083 17.0543 18.5482 17.1121C18.6874 17.17 18.8207 17.2411 18.9461 17.3249C19.072 17.4093 19.1884 17.5046 19.2951 17.6119C19.4024 17.7186 19.4976 17.8349 19.582 17.9609C19.6658 18.0863 19.7369 18.2195 19.7948 18.3588C19.8527 18.4986 19.8961 18.6427 19.9256 18.791C19.9552 18.9393 19.9702 19.0894 19.9702 19.2407Z" fill="white"/>
<mask id="mask1_534_34379" style="mask-type:luminance" maskUnits="userSpaceOnUse" x="38" y="43" width="6" height="7">
<path d="M38.5811 43.21H43.8666V50.0001H38.5811V43.21Z" fill="white"/>
</mask>
<g mask="url(#mask1_534_34379)">
<path d="M39.7946 43.2184L39.2985 45.9974L38.5859 49.985H42.1082C43.0793 49.985 43.8751 49.1893 43.8751 48.2187C43.8648 45.7906 42.1293 43.7037 39.7946 43.2184Z" fill="white"/>
</g>
<path d="M4.07022 43.2183C1.74576 43.7036 0 45.7905 0 48.2187C0 49.2001 0.795718 49.9849 1.76686 49.9849H5.28911L4.57659 45.9973L4.07022 43.2183Z" fill="white"/>
</g>
<defs>
<clipPath id="clip0_534_34379">
<rect width="43.9815" height="50" fill="white"/>
</clipPath>
</defs>
</svg>
