<svg width="37" height="39" viewBox="0 0 37 39" fill="none" xmlns="http://www.w3.org/2000/svg">
<g clip-path="url(#clip0_534_34354)">
<path d="M1.24391 27.8375C1.63882 27.7966 2.04986 27.815 2.44667 27.815L5.90071 27.8145C7.77605 27.8112 7.66641 28.1145 7.65549 29.9609L7.65454 36.0754C7.65502 36.9885 7.99914 38.4832 6.75128 38.6064C6.05782 38.6727 1.23394 38.7456 0.852319 38.4988C0.220558 38.0897 0.370548 37.2889 0.370073 36.6471L0.369124 30.8402C0.369124 29.8241 -0.00205338 28.0811 1.24391 27.8375Z" fill="white"/>
<mask id="mask0_534_34354" style="mask-type:luminance" maskUnits="userSpaceOnUse" x="2" y="0" width="34" height="22">
<path d="M2.91602 0.0319824H35.6024V21.3056H2.91602V0.0319824Z" fill="white"/>
</mask>
<g mask="url(#mask0_534_34354)">
<path d="M34.3857 0.0888568C34.922 0.0347842 35.6953 0.165969 35.5847 0.866092C35.5267 1.23473 33.4188 5.41901 33.1293 5.93246C32.5569 6.94762 31.8012 5.78059 31.4186 5.27043C30.0664 6.35799 28.8038 7.56452 27.5317 8.74236L22.8203 13.0296C21.1083 14.5813 21.3062 14.1158 19.1309 13.6536C17.5735 13.3225 15.7756 12.9266 14.2064 12.6972C13.8134 12.9976 13.4251 13.3498 13.0544 13.6785L6.62002 19.4365C5.87102 20.1037 4.92314 21.3403 3.88745 21.2049C3.31787 21.0483 2.92059 20.4714 3.03545 19.8865C3.14273 19.3411 3.78351 18.9165 4.17319 18.5648L10.3636 13.016C10.8985 12.5439 11.4282 12.0667 11.9532 11.5833C13.7668 9.91221 13.4227 10.2113 15.8064 10.6561C17.5161 10.9753 19.2173 11.328 20.9227 11.6665C21.4923 11.1794 22.0158 10.6269 22.5773 10.1271C25.0835 7.89694 27.5612 5.62778 30.0123 3.33886C29.6828 2.99843 28.5845 1.67436 28.5119 1.26059C28.3652 0.422226 30.251 0.497928 30.719 0.451379L34.3857 0.0888568Z" fill="white"/>
</g>
<path d="M10.6872 22.8238C12.0499 22.7669 14.9353 22.6832 16.2562 22.8436C17.3607 22.978 17.0698 24.5311 17.0698 25.2815L17.0726 36.5695C17.0736 37.3952 17.2596 38.4489 16.1513 38.614C15.7593 38.6596 15.3501 38.6379 14.9552 38.6384L11.57 38.6398C9.62251 38.6563 9.83753 38.2491 9.83895 36.3438L9.84987 26.4631C9.85319 25.3789 9.3719 23.0735 10.6872 22.8238Z" fill="white"/>
<path d="M19.9945 18.3222C21.5091 18.2639 24.0832 18.1905 25.5788 18.3231C26.7483 18.427 26.4346 19.9815 26.4341 20.762V33.1564C26.4341 34.6234 26.4778 36.1017 26.4341 37.5669C26.418 38.1005 26.2257 38.4532 25.6652 38.5858C25.2256 38.6535 24.7776 38.638 24.3333 38.6384L21.0824 38.6413C18.8292 38.6441 19.2256 38.0197 19.2256 36.1238V23.8432C19.2251 22.341 19.1852 20.8269 19.2294 19.3256C19.245 18.7919 19.4534 18.467 19.9945 18.3222Z" fill="white"/>
<path d="M29.4368 9.94845C29.7045 9.9066 30.0069 9.93105 30.2779 9.93105L34.2075 9.93058C36.0677 9.92917 36.4749 9.69971 36.473 11.7375L36.4711 35.5088C36.4716 36.6354 36.8921 38.4344 35.4672 38.6333C34.2868 38.6676 33.0968 38.638 31.9154 38.638C31.0606 38.6375 28.928 38.9713 28.6285 37.9331C28.5388 37.6205 28.5933 36.2583 28.5933 35.8347L28.5943 12.9939C28.5943 11.9778 28.2184 10.24 29.4368 9.94845Z" fill="white"/>
<path d="M1.24391 27.8375C1.63882 27.7966 2.04986 27.815 2.44667 27.815L5.90071 27.8145C7.77605 27.8112 7.66641 28.1145 7.65549 29.9609L7.65454 36.0754C7.65502 36.9885 7.99914 38.4832 6.75128 38.6064C6.05782 38.6727 1.23394 38.7456 0.852319 38.4988C0.220558 38.0897 0.370548 37.2889 0.370073 36.6471L0.369124 30.8402C0.369124 29.8241 -0.00205338 28.0811 1.24391 27.8375Z" fill="white"/>
<mask id="mask1_534_34354" style="mask-type:luminance" maskUnits="userSpaceOnUse" x="2" y="0" width="34" height="22">
<path d="M2.91602 0.0319824H35.6024V21.3056H2.91602V0.0319824Z" fill="white"/>
</mask>
<g mask="url(#mask1_534_34354)">
<path d="M34.3857 0.0888568C34.922 0.0347842 35.6953 0.165969 35.5847 0.866092C35.5267 1.23473 33.4188 5.41901 33.1293 5.93246C32.5569 6.94762 31.8012 5.78059 31.4186 5.27043C30.0664 6.35799 28.8038 7.56452 27.5317 8.74236L22.8203 13.0296C21.1083 14.5813 21.3062 14.1158 19.1309 13.6536C17.5735 13.3225 15.7756 12.9266 14.2064 12.6972C13.8134 12.9976 13.4251 13.3498 13.0544 13.6785L6.62002 19.4365C5.87102 20.1037 4.92314 21.3403 3.88745 21.2049C3.31787 21.0483 2.92059 20.4714 3.03545 19.8865C3.14273 19.3411 3.78351 18.9165 4.17319 18.5648L10.3636 13.016C10.8985 12.5439 11.4282 12.0667 11.9532 11.5833C13.7668 9.91221 13.4227 10.2113 15.8064 10.6561C17.5161 10.9753 19.2173 11.328 20.9227 11.6665C21.4923 11.1794 22.0158 10.6269 22.5773 10.1271C25.0835 7.89694 27.5612 5.62778 30.0123 3.33886C29.6828 2.99843 28.5845 1.67436 28.5119 1.26059C28.3652 0.422226 30.251 0.497928 30.719 0.451379L34.3857 0.0888568Z" fill="white"/>
</g>
<path d="M10.6872 22.8238C12.0499 22.7669 14.9353 22.6832 16.2562 22.8436C17.3607 22.978 17.0698 24.5311 17.0698 25.2815L17.0726 36.5695C17.0736 37.3952 17.2596 38.4489 16.1513 38.614C15.7593 38.6596 15.3501 38.6379 14.9552 38.6384L11.57 38.6398C9.62251 38.6563 9.83753 38.2491 9.83895 36.3438L9.84987 26.4631C9.85319 25.3789 9.3719 23.0735 10.6872 22.8238Z" fill="white"/>
<path d="M19.9945 18.3222C21.5091 18.2639 24.0832 18.1905 25.5788 18.3231C26.7483 18.427 26.4346 19.9815 26.4341 20.762V33.1564C26.4341 34.6234 26.4778 36.1017 26.4341 37.5669C26.418 38.1005 26.2257 38.4532 25.6652 38.5858C25.2256 38.6535 24.7776 38.638 24.3333 38.6384L21.0824 38.6413C18.8292 38.6441 19.2256 38.0197 19.2256 36.1238V23.8432C19.2251 22.341 19.1852 20.8269 19.2294 19.3256C19.245 18.7919 19.4534 18.467 19.9945 18.3222Z" fill="white"/>
<path d="M29.4368 9.94845C29.7045 9.9066 30.0069 9.93105 30.2779 9.93105L34.2075 9.93058C36.0677 9.92917 36.4749 9.69971 36.473 11.7375L36.4711 35.5088C36.4716 36.6354 36.8921 38.4344 35.4672 38.6333C34.2868 38.6676 33.0968 38.638 31.9154 38.638C31.0606 38.6375 28.928 38.9713 28.6285 37.9331C28.5388 37.6205 28.5933 36.2583 28.5933 35.8347L28.5943 12.9939C28.5943 11.9778 28.2184 10.24 29.4368 9.94845Z" fill="white"/>
</g>
<defs>
<clipPath id="clip0_534_34354">
<rect width="37" height="39" fill="white"/>
</clipPath>
</defs>
</svg>
