<svg width="41" height="36" viewBox="0 0 41 36" fill="none" xmlns="http://www.w3.org/2000/svg">
<path d="M5.84767 18.1484C6.38085 17.6046 7.10149 17.3051 7.87743 17.3051C8.59449 17.3051 9.27647 17.5677 9.79796 18.0438C10.9165 19.0664 10.965 20.7769 9.90631 21.8572L9.66534 22.1033C9.98588 21.9818 10.3298 21.9154 10.6867 21.9154C11.4038 21.9154 12.0858 22.1775 12.6068 22.6536C13.3383 23.322 13.6089 24.2838 13.4156 25.1719C13.8476 24.9171 14.3435 24.7782 14.8659 24.7782C15.5829 24.7782 16.2649 25.0404 16.7864 25.5165C16.9846 25.6979 17.1478 25.9019 17.2791 26.1194C17.4054 26.0621 17.5605 26.0807 17.6693 26.1775L19.1192 27.4709C19.4109 27.4783 19.6955 27.5295 19.9652 27.6202C20.3339 27.7444 20.6751 27.9405 20.9655 28.2062C21.4542 28.6523 21.7518 29.2413 21.821 29.8806L25.5564 33.2122C26.4708 34.0278 27.9022 33.9727 28.7465 33.0903C29.1561 32.6628 29.3683 32.1063 29.3449 31.5252C29.3211 30.9431 29.0639 30.4049 28.6206 30.01L22.717 24.7448C22.5736 24.6163 22.5646 24.4002 22.6972 24.2613C22.7934 24.1606 22.9373 24.1293 23.0641 24.1684C23.1805 24.1332 23.3122 24.1567 23.4084 24.2426C23.4098 24.2435 23.4111 24.2444 23.4125 24.2452L31.0883 31.2795C31.528 31.6714 32.1034 31.8763 32.7063 31.8537C33.3087 31.8307 33.8661 31.5825 34.2752 31.1549C35.12 30.2717 35.0633 28.8902 34.1489 28.0742L26.4731 21.0399L26.376 21.1415L26.2618 21.0399C26.1184 20.9119 26.1094 20.6953 26.242 20.5564C26.3382 20.4557 26.4821 20.4245 26.6089 20.4635C26.6763 20.4436 26.7478 20.4431 26.8148 20.4622C26.8665 20.477 26.9155 20.5022 26.9573 20.5408L32.9328 26.0169C33.8392 26.5968 35.0759 26.4761 35.837 25.6805C36.6817 24.7977 36.6251 23.4162 35.7102 22.6007L29.807 17.3355C29.7711 17.3034 29.7432 17.2652 29.7243 17.224L22.2256 10.4271C21.5787 10.4054 20.8967 10.2977 20.1819 10.0794C19.1327 10.7639 13.0856 14.5959 9.22027 14.5963C8.67001 14.5968 8.1647 14.5191 7.72368 14.3437C7.06328 14.0812 6.74769 13.5247 6.83535 12.7773C7.03046 11.1159 9.32502 8.23784 12.681 5.44531C13.265 4.95919 13.8535 4.49913 14.4406 4.0664C13.1755 3.36197 12.039 3.0473 10.8828 3.0473C8.72216 3.0473 6.38984 4.18749 3.32158 6.74565C1.18796 8.52473 0.0865359 10.5668 0.047424 12.8164C0.00471577 15.2739 1.28192 17.9193 3.66909 20.3702L5.84767 18.1484Z" fill="white"/>
<path d="M21.7671 30.7639C21.6574 31.2305 21.4236 31.6628 21.0739 32.0196L18.9497 34.1862L20.0278 35.148C20.9422 35.9631 22.3736 35.9084 23.2183 35.0261C24.063 34.1433 24.0064 32.7613 23.092 31.9458L21.7671 30.7639Z" fill="white"/>
<path d="M18.2107 27.5916L17.624 27.0681C17.664 27.3246 17.6663 27.5855 17.6299 27.8429C17.8137 27.7387 18.0075 27.6532 18.2107 27.5916Z" fill="white"/>
<path d="M9.31088 18.5403C8.92201 18.1849 8.4131 17.9896 7.87768 17.9896C7.29864 17.9896 6.76052 18.2127 6.3622 18.6189L2.88395 22.1671C2.09362 22.9731 2.12958 24.25 2.96442 25.0134C3.35374 25.3685 3.86264 25.5642 4.39807 25.5642C4.97711 25.5642 5.51523 25.3411 5.91309 24.9349L9.3918 21.3871C10.1821 20.5807 10.1457 19.3038 9.31088 18.5403Z" fill="white"/>
<path d="M14.0517 32.329C13.2614 33.135 13.2978 34.4119 14.1326 35.1754C14.5215 35.5308 15.0308 35.7266 15.5658 35.7266C16.1453 35.7266 16.6834 35.5031 17.0813 35.0972L20.56 31.5491C20.9426 31.1589 21.1453 30.6476 21.13 30.1098C21.1148 29.5721 20.8832 29.0725 20.4786 28.7027C20.0902 28.3472 19.5809 28.1515 19.0459 28.1515C18.4664 28.1515 17.9287 28.375 17.5309 28.7808L14.0517 32.329Z" fill="white"/>
<path d="M10.6869 22.5999C10.1079 22.5999 9.56977 22.8229 9.17191 23.2288L5.6932 26.7769C4.90243 27.5834 4.93884 28.8603 5.77368 29.6233C6.163 29.9788 6.6719 30.1745 7.20733 30.1745C7.78636 30.1745 8.32449 29.951 8.72235 29.5452L12.2011 25.9974C12.9909 25.1906 12.955 23.9137 12.1201 23.1506C11.7313 22.7952 11.2219 22.5999 10.6869 22.5999Z" fill="white"/>
<path d="M14.8663 25.4622C14.2873 25.4622 13.7492 25.6857 13.3513 26.0916L9.87261 29.6397C9.48958 30.0304 9.28728 30.5416 9.30256 31.079C9.31785 31.6167 9.54892 32.1163 9.95353 32.4857C10.3424 32.8416 10.8513 33.0373 11.3867 33.0373C11.9658 33.0373 12.5039 32.8138 12.9018 32.408L16.3805 28.8598C17.1708 28.0534 17.1348 26.7765 16.2995 26.0134C15.9107 25.658 15.4018 25.4622 14.8663 25.4622Z" fill="white"/>
<mask id="mask0_534_34416" style="mask-type:luminance" maskUnits="userSpaceOnUse" x="7" y="0" width="33" height="22">
<path d="M7.48047 0.0377808H39.5899V21.3334H7.48047V0.0377808Z" fill="white"/>
</mask>
<g mask="url(#mask0_534_34416)">
<path d="M7.53967 12.8546C7.47223 13.4271 7.74646 13.6133 7.99327 13.711C11.4027 15.0669 19.8406 9.47701 19.9251 9.42059C20.0172 9.35895 20.1346 9.3429 20.2407 9.37805C25.5689 11.125 28.9743 6.06772 29.008 6.01607C29.0193 5.99915 29.0318 5.98439 29.0453 5.97007C29.1591 5.84941 29.3497 5.82033 29.4971 5.91104C29.6621 6.0126 29.7111 6.22397 29.6059 6.38326C29.5767 6.42796 27.1855 9.97831 23.2213 10.3915L32.7897 19.0642C32.7897 19.0647 32.7897 19.0647 32.7897 19.0651L35.2951 21.2991C35.3491 21.2539 35.4035 21.2088 35.4561 21.1619C40.5649 16.605 40.8818 8.885 36.1614 3.9527C33.781 1.46486 30.403 0.038208 26.8933 0.038208C25.5518 0.038208 24.2364 0.244805 22.9879 0.6376L22.9466 0.601576C22.8949 0.656264 22.8257 0.696194 22.7438 0.709649C20.1935 1.11894 16.6046 3.08291 13.1434 5.96356C9.96505 8.60852 7.71275 11.3781 7.53967 12.8546Z" fill="white"/>
</g>
<path d="M5.84767 18.1484C6.38085 17.6046 7.10149 17.3051 7.87743 17.3051C8.59449 17.3051 9.27647 17.5677 9.79796 18.0438C10.9165 19.0664 10.965 20.7769 9.90631 21.8572L9.66534 22.1033C9.98588 21.9818 10.3298 21.9154 10.6867 21.9154C11.4038 21.9154 12.0858 22.1775 12.6068 22.6536C13.3383 23.322 13.6089 24.2838 13.4156 25.1719C13.8476 24.9171 14.3435 24.7782 14.8659 24.7782C15.5829 24.7782 16.2649 25.0404 16.7864 25.5165C16.9846 25.6979 17.1478 25.9019 17.2791 26.1194C17.4054 26.0621 17.5605 26.0807 17.6693 26.1775L19.1192 27.4709C19.4109 27.4783 19.6955 27.5295 19.9652 27.6202C20.3339 27.7444 20.6751 27.9405 20.9655 28.2062C21.4542 28.6523 21.7518 29.2413 21.821 29.8806L25.5564 33.2122C26.4708 34.0278 27.9022 33.9727 28.7465 33.0903C29.1561 32.6628 29.3683 32.1063 29.3449 31.5252C29.3211 30.9431 29.0639 30.4049 28.6206 30.01L22.717 24.7448C22.5736 24.6163 22.5646 24.4002 22.6972 24.2613C22.7934 24.1606 22.9373 24.1293 23.0641 24.1684C23.1805 24.1332 23.3122 24.1567 23.4084 24.2426C23.4098 24.2435 23.4111 24.2444 23.4125 24.2452L31.0883 31.2795C31.528 31.6714 32.1034 31.8763 32.7063 31.8537C33.3087 31.8307 33.8661 31.5825 34.2752 31.1549C35.12 30.2717 35.0633 28.8902 34.1489 28.0742L26.4731 21.0399L26.376 21.1415L26.2618 21.0399C26.1184 20.9119 26.1094 20.6953 26.242 20.5564C26.3382 20.4557 26.4821 20.4245 26.6089 20.4635C26.6763 20.4436 26.7478 20.4431 26.8148 20.4622C26.8665 20.477 26.9155 20.5022 26.9573 20.5408L32.9328 26.0169C33.8392 26.5968 35.0759 26.4761 35.837 25.6805C36.6817 24.7977 36.6251 23.4162 35.7102 22.6007L29.807 17.3355C29.7711 17.3034 29.7432 17.2652 29.7243 17.224L22.2256 10.4271C21.5787 10.4054 20.8967 10.2977 20.1819 10.0794C19.1327 10.7639 13.0856 14.5959 9.22027 14.5963C8.67001 14.5968 8.1647 14.5191 7.72368 14.3437C7.06328 14.0812 6.74769 13.5247 6.83535 12.7773C7.03046 11.1159 9.32502 8.23784 12.681 5.44531C13.265 4.95919 13.8535 4.49913 14.4406 4.0664C13.1755 3.36197 12.039 3.0473 10.8828 3.0473C8.72216 3.0473 6.38984 4.18749 3.32158 6.74565C1.18796 8.52473 0.0865359 10.5668 0.047424 12.8164C0.00471577 15.2739 1.28192 17.9193 3.66909 20.3702L5.84767 18.1484Z" fill="white"/>
<path d="M21.7671 30.7639C21.6574 31.2305 21.4236 31.6628 21.0739 32.0196L18.9497 34.1862L20.0278 35.148C20.9422 35.9631 22.3736 35.9084 23.2183 35.0261C24.063 34.1433 24.0064 32.7613 23.092 31.9458L21.7671 30.7639Z" fill="white"/>
<path d="M18.2107 27.5916L17.624 27.0681C17.664 27.3246 17.6663 27.5855 17.6299 27.8429C17.8137 27.7387 18.0075 27.6532 18.2107 27.5916Z" fill="white"/>
<path d="M9.31088 18.5403C8.92201 18.1849 8.4131 17.9896 7.87768 17.9896C7.29864 17.9896 6.76052 18.2127 6.3622 18.6189L2.88395 22.1671C2.09362 22.9731 2.12958 24.25 2.96442 25.0134C3.35374 25.3685 3.86264 25.5642 4.39807 25.5642C4.97711 25.5642 5.51523 25.3411 5.91309 24.9349L9.3918 21.3871C10.1821 20.5807 10.1457 19.3038 9.31088 18.5403Z" fill="white"/>
<path d="M14.0517 32.329C13.2614 33.135 13.2978 34.4119 14.1326 35.1754C14.5215 35.5308 15.0308 35.7266 15.5658 35.7266C16.1453 35.7266 16.6834 35.5031 17.0813 35.0972L20.56 31.5491C20.9426 31.1589 21.1453 30.6476 21.13 30.1098C21.1148 29.5721 20.8832 29.0725 20.4786 28.7027C20.0902 28.3472 19.5809 28.1515 19.0459 28.1515C18.4664 28.1515 17.9287 28.375 17.5309 28.7808L14.0517 32.329Z" fill="white"/>
<path d="M10.6869 22.5999C10.1079 22.5999 9.56977 22.8229 9.17191 23.2288L5.6932 26.7769C4.90243 27.5834 4.93884 28.8603 5.77368 29.6233C6.163 29.9788 6.6719 30.1745 7.20733 30.1745C7.78636 30.1745 8.32449 29.951 8.72235 29.5452L12.2011 25.9974C12.9909 25.1906 12.955 23.9137 12.1201 23.1506C11.7313 22.7952 11.2219 22.5999 10.6869 22.5999Z" fill="white"/>
<path d="M14.8663 25.4622C14.2873 25.4622 13.7492 25.6857 13.3513 26.0916L9.87261 29.6397C9.48958 30.0304 9.28728 30.5416 9.30256 31.079C9.31785 31.6167 9.54892 32.1163 9.95353 32.4857C10.3424 32.8416 10.8513 33.0373 11.3867 33.0373C11.9658 33.0373 12.5039 32.8138 12.9018 32.408L16.3805 28.8598C17.1708 28.0534 17.1348 26.7765 16.2995 26.0134C15.9107 25.658 15.4018 25.4622 14.8663 25.4622Z" fill="white"/>
<mask id="mask1_534_34416" style="mask-type:luminance" maskUnits="userSpaceOnUse" x="7" y="0" width="33" height="22">
<path d="M7.48047 0.0377808H39.5899V21.3334H7.48047V0.0377808Z" fill="white"/>
</mask>
<g mask="url(#mask1_534_34416)">
<path d="M7.53967 12.8546C7.47223 13.4271 7.74646 13.6133 7.99327 13.711C11.4027 15.0669 19.8406 9.47701 19.9251 9.42059C20.0172 9.35895 20.1346 9.3429 20.2407 9.37805C25.5689 11.125 28.9743 6.06772 29.008 6.01607C29.0193 5.99915 29.0318 5.98439 29.0453 5.97007C29.1591 5.84941 29.3497 5.82033 29.4971 5.91104C29.6621 6.0126 29.7111 6.22397 29.6059 6.38326C29.5767 6.42796 27.1855 9.97831 23.2213 10.3915L32.7897 19.0642C32.7897 19.0647 32.7897 19.0647 32.7897 19.0651L35.2951 21.2991C35.3491 21.2539 35.4035 21.2088 35.4561 21.1619C40.5649 16.605 40.8818 8.885 36.1614 3.9527C33.781 1.46486 30.403 0.038208 26.8933 0.038208C25.5518 0.038208 24.2364 0.244805 22.9879 0.6376L22.9466 0.601576C22.8949 0.656264 22.8257 0.696194 22.7438 0.709649C20.1935 1.11894 16.6046 3.08291 13.1434 5.96356C9.96505 8.60852 7.71275 11.3781 7.53967 12.8546Z" fill="white"/>
</g>
</svg>
