<svg width="25" height="25" viewBox="0 0 25 25" fill="none" xmlns="http://www.w3.org/2000/svg">
<path d="M21.957 11.8398V9.83984H19.957V7.83984C19.9554 7.3099 19.7442 6.80211 19.3695 6.42738C18.9948 6.05265 18.487 5.84143 17.957 5.83984H15.957V3.83984H13.957V5.83984H11.957V3.83984H9.95703V5.83984H7.95703C7.42708 5.84143 6.9193 6.05265 6.54457 6.42738C6.16984 6.80211 5.95861 7.3099 5.95703 7.83984V9.83984H3.95703V11.8398H5.95703V13.8398H3.95703V15.8398H5.95703V17.8398C5.95861 18.3698 6.16984 18.8776 6.54457 19.2523C6.9193 19.627 7.42708 19.8383 7.95703 19.8398H9.95703V21.8398H11.957V19.8398H13.957V21.8398H15.957V19.8398H17.957C18.487 19.8383 18.9948 19.627 19.3695 19.2523C19.7442 18.8776 19.9554 18.3698 19.957 17.8398V15.8398H21.957V13.8398H19.957V11.8398H21.957ZM17.957 17.8398H7.95703V7.83984H17.957V17.8398Z" fill="white"/>
<path d="M12.3179 8.83984H10.9729L8.96289 16.8398H9.98989L10.4539 14.9648H12.7699L13.2219 16.8398H14.2839L12.3179 8.83984ZM10.5889 14.1638L11.6069 9.78984H11.6529L12.6359 14.1638H10.5889ZM15.2009 8.83984H16.2009V16.8398H15.2009V8.83984Z" fill="white"/>
</svg>
