<svg width="19" height="19" viewBox="0 0 19 19" fill="none" xmlns="http://www.w3.org/2000/svg">
<g clip-path="url(#clip0_1232_13322)">
<path d="M9.57972 6.29688C9.10611 6.29688 8.65189 6.48502 8.31699 6.81992C7.98209 7.15482 7.79395 7.60904 7.79395 8.08265C7.79395 8.55627 7.98209 9.01049 8.31699 9.34539C8.65189 9.68029 9.10611 9.86843 9.57972 9.86843C10.0533 9.86843 10.5076 9.68029 10.8425 9.34539C11.1774 9.01049 11.3655 8.55627 11.3655 8.08265C11.3655 7.60904 11.1774 7.15482 10.8425 6.81992C10.5076 6.48502 10.0533 6.29688 9.57972 6.29688Z" fill="white"/>
<path fill-rule="evenodd" clip-rule="evenodd" d="M11.366 2.72528H10.1755V0.344238H8.98501V2.72528H7.79449C5.90001 2.72528 4.08313 3.47785 2.74354 4.81745C1.40394 6.15704 0.651367 7.97392 0.651367 9.8684C0.651367 11.7629 1.40394 13.5798 2.74354 14.9193C4.08313 16.2589 5.90001 17.0115 7.79449 17.0115H11.366C11.5208 17.0115 11.6752 17.0064 11.8292 16.996L16.5793 18.1842C16.679 18.209 16.7834 18.2076 16.8823 18.1801C16.9813 18.1527 17.0715 18.1001 17.1441 18.0275C17.2167 17.9548 17.2693 17.8647 17.2968 17.7657C17.3242 17.6668 17.3256 17.5624 17.3008 17.4627L16.6139 14.7138C17.5557 13.6936 18.1798 12.4211 18.4098 11.0518C18.6399 9.68256 18.4658 8.27594 17.9091 7.004C17.3523 5.73207 16.4369 4.64998 15.2749 3.89007C14.1128 3.13017 12.7545 2.7254 11.366 2.72528ZM6.60397 8.08262C6.60397 7.29325 6.91754 6.53622 7.4757 5.97806C8.03387 5.41989 8.7909 5.10632 9.58027 5.10632C10.3696 5.10632 11.1267 5.41989 11.6848 5.97806C12.243 6.53622 12.5566 7.29325 12.5566 8.08262C12.5566 8.87198 12.243 9.62901 11.6848 10.1872C11.1267 10.7453 10.3696 11.0589 9.58027 11.0589C8.7909 11.0589 8.03387 10.7453 7.4757 10.1872C6.91754 9.62901 6.60397 8.87198 6.60397 8.08262ZM9.58027 14.6305C8.36255 14.6326 7.18077 14.2179 6.23133 13.4554L6.9766 12.5268C7.68972 13.0983 8.59451 13.44 9.58027 13.44C10.566 13.44 11.4708 13.0983 12.1839 12.5268L12.9292 13.4554C11.9798 14.2179 10.798 14.6326 9.58027 14.6305Z" fill="white" fill-opacity="0.81"/>
</g>
<defs>
<clipPath id="clip0_1232_13322">
<rect width="17.8578" height="17.8578" fill="white" transform="translate(0.651367 0.344238)"/>
</clipPath>
</defs>
</svg>
