<svg width="55" height="55" viewBox="0 0 55 55" fill="none" xmlns="http://www.w3.org/2000/svg">
<mask id="mask0_1232_10675" style="mask-type:luminance" maskUnits="userSpaceOnUse" x="0" y="0" width="55" height="55">
<path d="M41.25 0H13.75C6.15608 0 0 6.15608 0 13.75V41.25C0 48.8439 6.15608 55 13.75 55H41.25C48.8439 55 55 48.8439 55 41.25V13.75C55 6.15608 48.8439 0 41.25 0Z" fill="white"/>
</mask>
<g mask="url(#mask0_1232_10675)">
<g filter="url(#filter0_i_1232_10675)">
<path d="M41.25 0H13.75C6.15608 0 0 6.15608 0 13.75V41.25C0 48.8439 6.15608 55 13.75 55H41.25C48.8439 55 55 48.8439 55 41.25V13.75C55 6.15608 48.8439 0 41.25 0Z" fill="url(#paint0_linear_1232_10675)" fill-opacity="0.34"/>
</g>
<path d="M13.75 0.230469H41.25C48.7165 0.230469 54.7695 6.28354 54.7695 13.75V41.25C54.7695 48.7165 48.7165 54.7695 41.25 54.7695H13.75C6.28354 54.7695 0.230469 48.7165 0.230469 41.25V13.75C0.230469 6.28354 6.28354 0.230469 13.75 0.230469Z" stroke="white" stroke-opacity="0.15" stroke-width="0.461524"/>
<g filter="url(#filter1_f_1232_10675)">
<path d="M74.0154 49.882C53.8403 49.1911 38.0253 32.855 38.6917 13.3944C39.3582 -6.06626 56.2536 -21.2822 76.4287 -20.5913C96.6038 -19.9004 112.419 -3.56436 111.752 15.8963C111.086 35.3569 94.1905 50.5728 74.0154 49.882Z" fill="url(#paint1_linear_1232_10675)"/>
</g>
<g filter="url(#filter2_f_1232_10675)">
<path d="M36.3485 23.6012C16.156 16.2552 5.18338 -4.53395 11.8404 -22.8327C18.4975 -41.1315 40.2634 -50.0104 60.4559 -42.6644C80.6483 -35.3184 91.621 -14.5292 84.9639 3.76954C78.3068 22.0683 56.541 30.9473 36.3485 23.6012Z" fill="url(#paint2_linear_1232_10675)"/>
</g>
<g style="mix-blend-mode:plus-lighter" opacity="0.72" filter="url(#filter3_d_1232_10675)">
<path d="M17.8293 40.7396L28.3248 34.627H25.0533L17.5391 38.1755L17.8293 40.7396Z" fill="#F1F4F7"/>
<path d="M28.3247 34.627V35.9621L17.8291 42.0748V40.467L28.3247 34.627Z" fill="#646A6E"/>
<path d="M10.8623 42.0746H17.8288L28.6716 23.1714L28.3301 11.8789L10.8623 42.0746Z" fill="url(#paint3_linear_1232_10675)"/>
<path d="M28.2783 23.8556L28.33 11.8789L42.2457 35.9817H35.262L28.2783 23.8556Z" fill="#F1F4F7"/>
<path d="M28.3301 11.8789V14.3141L37.0469 26.9768L28.3301 11.8789Z" fill="#73797E"/>
<path d="M28.3428 11.8789V14.3141L19.626 26.9768L28.3428 11.8789Z" fill="#73797D"/>
<path d="M26.2891 32.2272H28.2787V28.7808L26.2891 32.2272Z" fill="url(#paint4_linear_1232_10675)"/>
<path d="M28.2783 28.7808V32.2272H30.2682L28.2783 28.7808Z" fill="#646A6E"/>
</g>
</g>
<defs>
<filter id="filter0_i_1232_10675" x="0" y="0" width="55" height="55" filterUnits="userSpaceOnUse" color-interpolation-filters="sRGB">
<feFlood flood-opacity="0" result="BackgroundImageFix"/>
<feBlend mode="normal" in="SourceGraphic" in2="BackgroundImageFix" result="shape"/>
<feColorMatrix in="SourceAlpha" type="matrix" values="0 0 0 0 0 0 0 0 0 0 0 0 0 0 0 0 0 0 127 0" result="hardAlpha"/>
<feOffset/>
<feGaussianBlur stdDeviation="0.461524"/>
<feComposite in2="hardAlpha" operator="arithmetic" k2="-1" k3="1"/>
<feColorMatrix type="matrix" values="0 0 0 0 1 0 0 0 0 1 0 0 0 0 1 0 0 0 0.25 0"/>
<feBlend mode="normal" in2="shape" result="effect1_innerShadow_1232_10675"/>
</filter>
<filter id="filter1_f_1232_10675" x="11.1814" y="-48.1043" width="128.082" height="125.5" filterUnits="userSpaceOnUse" color-interpolation-filters="sRGB">
<feFlood flood-opacity="0" result="BackgroundImageFix"/>
<feBlend mode="normal" in="SourceGraphic" in2="BackgroundImageFix" result="shape"/>
<feGaussianBlur stdDeviation="13.7453" result="effect1_foregroundBlur_1232_10675"/>
</filter>
<filter id="filter2_f_1232_10675" x="-17.596" y="-72.7347" width="131.997" height="126.406" filterUnits="userSpaceOnUse" color-interpolation-filters="sRGB">
<feFlood flood-opacity="0" result="BackgroundImageFix"/>
<feBlend mode="normal" in="SourceGraphic" in2="BackgroundImageFix" result="shape"/>
<feGaussianBlur stdDeviation="13.7453" result="effect1_foregroundBlur_1232_10675"/>
</filter>
<filter id="filter3_d_1232_10675" x="9.01621" y="11.8789" width="35.076" height="33.888" filterUnits="userSpaceOnUse" color-interpolation-filters="sRGB">
<feFlood flood-opacity="0" result="BackgroundImageFix"/>
<feColorMatrix in="SourceAlpha" type="matrix" values="0 0 0 0 0 0 0 0 0 0 0 0 0 0 0 0 0 0 127 0" result="hardAlpha"/>
<feOffset dy="1.8461"/>
<feGaussianBlur stdDeviation="0.923049"/>
<feComposite in2="hardAlpha" operator="out"/>
<feColorMatrix type="matrix" values="0 0 0 0 0 0 0 0 0 0 0 0 0 0 0 0 0 0 0.25 0"/>
<feBlend mode="normal" in2="BackgroundImageFix" result="effect1_dropShadow_1232_10675"/>
<feBlend mode="normal" in="SourceGraphic" in2="effect1_dropShadow_1232_10675" result="shape"/>
</filter>
<linearGradient id="paint0_linear_1232_10675" x1="0" y1="27.5" x2="55" y2="27.5" gradientUnits="userSpaceOnUse">
<stop stop-color="#9D2E87"/>
<stop offset="1" stop-color="#542999"/>
</linearGradient>
<linearGradient id="paint1_linear_1232_10675" x1="39.9619" y1="7.51987" x2="98.9503" y2="12.8756" gradientUnits="userSpaceOnUse">
<stop stop-color="#601EF9"/>
<stop offset="1" stop-color="#601EF9" stop-opacity="0"/>
</linearGradient>
<linearGradient id="paint2_linear_1232_10675" x1="14.9311" y1="-28.0021" x2="72.7688" y2="-2.94318" gradientUnits="userSpaceOnUse">
<stop stop-color="#8D31F5"/>
<stop offset="1" stop-color="#8D31F5" stop-opacity="0"/>
</linearGradient>
<linearGradient id="paint3_linear_1232_10675" x1="20.2195" y1="23.2296" x2="17.8192" y2="36.4112" gradientUnits="userSpaceOnUse">
<stop stop-color="#7C8185"/>
<stop offset="0.975777" stop-color="#E1E6E9"/>
</linearGradient>
<linearGradient id="paint4_linear_1232_10675" x1="27.3345" y1="30.0763" x2="27.055" y2="31.5787" gradientUnits="userSpaceOnUse">
<stop stop-color="#7C8185"/>
<stop offset="0.975777" stop-color="#E1E6E9"/>
</linearGradient>
</defs>
</svg>
