<svg width="435" height="435" viewBox="0 0 435 435" fill="none" xmlns="http://www.w3.org/2000/svg">
<g filter="url(#filter0_f_1321_10522)">
<path d="M360 217.5C360 296.201 296.201 360 217.5 360C138.799 360 75 296.201 75 217.5C75 138.799 138.799 75 217.5 75C296.201 75 360 138.799 360 217.5Z" fill="black"/>
<path d="M360 217.5C360 296.201 296.201 360 217.5 360C138.799 360 75 296.201 75 217.5C75 138.799 138.799 75 217.5 75C296.201 75 360 138.799 360 217.5Z" fill="url(#paint0_radial_1321_10522)" fill-opacity="0.9"/>
<path d="M360 217.5C360 296.201 296.201 360 217.5 360C138.799 360 75 296.201 75 217.5C75 138.799 138.799 75 217.5 75C296.201 75 360 138.799 360 217.5Z" fill="url(#paint1_radial_1321_10522)" fill-opacity="0.85"/>
<path d="M360 217.5C360 296.201 296.201 360 217.5 360C138.799 360 75 296.201 75 217.5C75 138.799 138.799 75 217.5 75C296.201 75 360 138.799 360 217.5Z" fill="url(#paint2_radial_1321_10522)" fill-opacity="0.8"/>
<path d="M360 217.5C360 296.201 296.201 360 217.5 360C138.799 360 75 296.201 75 217.5C75 138.799 138.799 75 217.5 75C296.201 75 360 138.799 360 217.5Z" fill="url(#paint3_radial_1321_10522)" fill-opacity="0.88"/>
</g>
<g filter="url(#filter1_d_1321_10522)">
<path d="M353.887 217.462C353.887 292.593 292.981 353.499 217.85 353.499C142.718 353.499 81.8125 292.593 81.8125 217.462C81.8125 142.331 142.718 81.4248 217.85 81.4248C292.981 81.4248 353.887 142.331 353.887 217.462Z" fill="black"/>
<path d="M353.887 217.462C353.887 292.593 292.981 353.499 217.85 353.499C142.718 353.499 81.8125 292.593 81.8125 217.462C81.8125 142.331 142.718 81.4248 217.85 81.4248C292.981 81.4248 353.887 142.331 353.887 217.462Z" fill="url(#paint4_radial_1321_10522)" fill-opacity="0.9"/>
<path d="M353.887 217.462C353.887 292.593 292.981 353.499 217.85 353.499C142.718 353.499 81.8125 292.593 81.8125 217.462C81.8125 142.331 142.718 81.4248 217.85 81.4248C292.981 81.4248 353.887 142.331 353.887 217.462Z" fill="url(#paint5_radial_1321_10522)" fill-opacity="0.15"/>
<path d="M353.887 217.462C353.887 292.593 292.981 353.499 217.85 353.499C142.718 353.499 81.8125 292.593 81.8125 217.462C81.8125 142.331 142.718 81.4248 217.85 81.4248C292.981 81.4248 353.887 142.331 353.887 217.462Z" fill="url(#paint6_radial_1321_10522)" fill-opacity="0.8"/>
<path d="M353.887 217.462C353.887 292.593 292.981 353.499 217.85 353.499C142.718 353.499 81.8125 292.593 81.8125 217.462C81.8125 142.331 142.718 81.4248 217.85 81.4248C292.981 81.4248 353.887 142.331 353.887 217.462Z" fill="url(#paint7_radial_1321_10522)"/>
</g>
<path d="M152.091 140.884C141.629 107.881 189.927 107.086 206.828 145.715C215.373 165.247 213.734 193.016 211.898 220.849C185.634 189.987 157.577 158.188 152.091 140.884Z" fill="url(#paint8_linear_1321_10522)"/>
<path d="M219.431 309.925C305.598 294.719 341.93 220.186 309.324 172.757C294.117 150.636 270.302 154.743 219.431 157.789C168.559 160.836 118 169.379 117.999 235.869C117.998 302.359 179.838 316.912 219.431 309.925Z" fill="url(#paint9_radial_1321_10522)"/>
<path d="M219.431 309.925C305.598 294.719 341.93 220.186 309.324 172.757C294.117 150.636 270.302 154.743 219.431 157.789C168.559 160.836 118 169.379 117.999 235.869C117.998 302.359 179.838 316.912 219.431 309.925Z" fill="url(#paint10_linear_1321_10522)"/>
<g style="mix-blend-mode:hard-light">
<path d="M142.951 231.845C142.95 187.371 156.695 145.887 163.61 126.247C166.456 118.166 177.105 115.865 184.205 120.66C196.294 127.95 220.65 145.66 245.235 162.637C270.782 180.28 307.622 199.784 290.714 257.622C277.904 301.444 215.397 299.461 215.397 299.461C215.397 299.461 142.953 298.255 142.951 231.845Z" fill="url(#paint11_linear_1321_10522)"/>
</g>
<path d="M282.75 297.432C318.168 266.442 330.464 201.663 306.718 161.417C282.971 121.17 249.14 111.798 220.99 113.118C192.841 114.437 135.665 132.038 133.25 195.223C130.835 258.408 163.697 285.208 198.068 315.405C211.349 327.073 247.333 328.421 282.75 297.432Z" fill="url(#paint12_linear_1321_10522)" fill-opacity="0.3"/>
<path d="M159.701 278.244C161.726 279.442 163.535 280.607 164.887 281.817C182.517 297.605 209.543 295.93 238.163 288.445C268.35 280.55 317.315 266.324 325.265 228.649C329.768 207.305 313.425 178.635 291.504 155.373C271.536 134.183 247.174 117.48 225.106 114.89C219.576 114.242 212.829 114.18 205.588 115.123C163.667 123.771 141.037 147.21 137.581 194.908C134.125 242.607 138.026 251.815 159.701 278.244Z" fill="url(#paint13_linear_1321_10522)" fill-opacity="0.2"/>
<g style="mix-blend-mode:color-dodge">
<path d="M125.201 229.802C118.634 184.177 137.983 134.991 182.233 134.991C217.168 134.991 236.909 161.699 263.747 179.242C296.707 200.786 321.972 215.643 321.972 237.466C321.972 277.058 262.942 298.086 206.639 275.547C165.558 259.102 131.769 275.427 125.201 229.802Z" fill="url(#paint14_radial_1321_10522)" fill-opacity="0.8"/>
</g>
<path d="M108.25 227.966C101.683 182.341 121.032 133.155 165.282 133.155C200.217 133.155 219.958 159.863 246.796 177.406C279.755 198.95 305.021 213.807 305.021 235.63C305.021 275.222 245.991 296.25 189.688 273.711C148.607 257.266 114.817 273.591 108.25 227.966Z" fill="url(#paint15_linear_1321_10522)" fill-opacity="0.2"/>
<g opacity="0.17">
<path d="M215.281 295.032C229.771 334.878 266.398 322.395 260.76 291.006C258.078 276.075 235.726 248.846 211.897 220.847C210.102 248.059 208.119 275.334 215.281 295.032Z" fill="url(#paint16_radial_1321_10522)"/>
<path d="M215.281 295.032C229.771 334.878 266.398 322.395 260.76 291.006C258.078 276.075 235.726 248.846 211.897 220.847C210.102 248.059 208.119 275.334 215.281 295.032Z" fill="url(#paint17_linear_1321_10522)"/>
</g>
<g filter="url(#filter2_df_1321_10522)">
<path d="M235.102 213.042C235.102 231.96 219.766 247.296 200.848 247.296C181.93 247.296 166.594 231.96 166.594 213.042C166.594 205.768 168.861 199.024 172.727 193.477C176.638 187.866 179.292 187.138 174.823 181.961C169.016 175.237 163.912 166.897 192.368 162.402C218.913 158.208 232.264 156.636 225.106 181.13C223.472 186.723 225.278 188.338 228.679 193.069C232.721 198.692 235.102 205.589 235.102 213.042Z" fill="white"/>
</g>
<defs>
<filter id="filter0_f_1321_10522" x="0.199997" y="0.199997" width="434.6" height="434.6" filterUnits="userSpaceOnUse" color-interpolation-filters="sRGB">
<feFlood flood-opacity="0" result="BackgroundImageFix"/>
<feBlend mode="normal" in="SourceGraphic" in2="BackgroundImageFix" result="shape"/>
<feGaussianBlur stdDeviation="37.4" result="effect1_foregroundBlur_1321_10522"/>
</filter>
<filter id="filter1_d_1321_10522" x="56.7543" y="66.3899" width="322.191" height="322.191" filterUnits="userSpaceOnUse" color-interpolation-filters="sRGB">
<feFlood flood-opacity="0" result="BackgroundImageFix"/>
<feColorMatrix in="SourceAlpha" type="matrix" values="0 0 0 0 0 0 0 0 0 0 0 0 0 0 0 0 0 0 127 0" result="hardAlpha"/>
<feOffset dy="10.0233"/>
<feGaussianBlur stdDeviation="12.5291"/>
<feColorMatrix type="matrix" values="0 0 0 0 0.121569 0 0 0 0 0.145098 0 0 0 0 0.258824 0 0 0 0.63 0"/>
<feBlend mode="multiply" in2="BackgroundImageFix" result="effect1_dropShadow_1321_10522"/>
<feBlend mode="normal" in="SourceGraphic" in2="effect1_dropShadow_1321_10522" result="shape"/>
</filter>
<filter id="filter2_df_1321_10522" x="126.865" y="120.22" width="147.965" height="166.805" filterUnits="userSpaceOnUse" color-interpolation-filters="sRGB">
<feFlood flood-opacity="0" result="BackgroundImageFix"/>
<feColorMatrix in="SourceAlpha" type="matrix" values="0 0 0 0 0 0 0 0 0 0 0 0 0 0 0 0 0 0 127 0" result="hardAlpha"/>
<feOffset dx="4.55604" dy="4.55604"/>
<feGaussianBlur stdDeviation="17.0851"/>
<feColorMatrix type="matrix" values="0 0 0 0 1 0 0 0 0 1 0 0 0 0 1 0 0 0 1 0"/>
<feBlend mode="normal" in2="BackgroundImageFix" result="effect1_dropShadow_1321_10522"/>
<feBlend mode="normal" in="SourceGraphic" in2="effect1_dropShadow_1321_10522" result="shape"/>
<feGaussianBlur stdDeviation="19.8643" result="effect2_foregroundBlur_1321_10522"/>
</filter>
<radialGradient id="paint0_radial_1321_10522" cx="0" cy="0" r="1" gradientUnits="userSpaceOnUse" gradientTransform="translate(171.125 121.798) rotate(63.1327) scale(107.283 127.266)">
<stop stop-color="#AB47AD"/>
<stop offset="1" stop-color="#7D7194" stop-opacity="0"/>
</radialGradient>
<radialGradient id="paint1_radial_1321_10522" cx="0" cy="0" r="1" gradientUnits="userSpaceOnUse" gradientTransform="translate(352.412 171.547) rotate(161.19) scale(142.524)">
<stop stop-color="#B566DA"/>
<stop offset="1" stop-color="#4A8F9F" stop-opacity="0"/>
</radialGradient>
<radialGradient id="paint2_radial_1321_10522" cx="0" cy="0" r="1" gradientUnits="userSpaceOnUse" gradientTransform="translate(264.72 352.412) rotate(-108.939) scale(90.9286)">
<stop stop-color="#6942B3"/>
<stop offset="1" stop-color="#5C4763" stop-opacity="0"/>
</radialGradient>
<radialGradient id="paint3_radial_1321_10522" cx="0" cy="0" r="1" gradientUnits="userSpaceOnUse" gradientTransform="translate(62.3521 268.936) rotate(-18.3418) scale(163.452 227.202)">
<stop stop-color="#953B56"/>
<stop offset="1" stop-color="#3D3041" stop-opacity="0"/>
</radialGradient>
<radialGradient id="paint4_radial_1321_10522" cx="0" cy="0" r="1" gradientUnits="userSpaceOnUse" gradientTransform="translate(173.577 126.1) rotate(63.1327) scale(102.417 121.494)">
<stop stop-color="#AB47AD"/>
<stop offset="1" stop-color="#7D7194" stop-opacity="0"/>
</radialGradient>
<radialGradient id="paint5_radial_1321_10522" cx="0" cy="0" r="1" gradientUnits="userSpaceOnUse" gradientTransform="translate(346.643 173.593) rotate(161.19) scale(136.06)">
<stop stop-color="#D7B1FF"/>
<stop offset="1" stop-color="#954BE6"/>
</radialGradient>
<radialGradient id="paint6_radial_1321_10522" cx="0" cy="0" r="1" gradientUnits="userSpaceOnUse" gradientTransform="translate(262.928 346.255) rotate(-108.939) scale(86.8046)">
<stop stop-color="#885DD9"/>
<stop offset="1" stop-color="#5C4763" stop-opacity="0"/>
</radialGradient>
<radialGradient id="paint7_radial_1321_10522" cx="0" cy="0" r="1" gradientUnits="userSpaceOnUse" gradientTransform="translate(69.7383 266.565) rotate(-18.3418) scale(156.039 216.898)">
<stop stop-color="#CE3A67"/>
<stop offset="1" stop-color="#3D3041" stop-opacity="0"/>
</radialGradient>
<linearGradient id="paint8_linear_1321_10522" x1="150.623" y1="139.275" x2="208.958" y2="129.615" gradientUnits="userSpaceOnUse">
<stop stop-color="#E375A0"/>
<stop offset="1" stop-color="#E375A0" stop-opacity="0"/>
</linearGradient>
<radialGradient id="paint9_radial_1321_10522" cx="0" cy="0" r="1" gradientUnits="userSpaceOnUse" gradientTransform="translate(167.1 178.718) rotate(69.3339) scale(98.0758 118.132)">
<stop stop-color="#B850C1"/>
<stop offset="1" stop-color="#DCADE0" stop-opacity="0"/>
</radialGradient>
<linearGradient id="paint10_linear_1321_10522" x1="226.064" y1="155.21" x2="225.153" y2="185.735" gradientUnits="userSpaceOnUse">
<stop stop-color="#B850C1"/>
<stop offset="1" stop-color="#DCADE0" stop-opacity="0"/>
</linearGradient>
<linearGradient id="paint11_linear_1321_10522" x1="158.246" y1="252.774" x2="233.911" y2="223.795" gradientUnits="userSpaceOnUse">
<stop stop-color="#7EA1E4"/>
<stop offset="1" stop-color="#70CBFF" stop-opacity="0"/>
</linearGradient>
<linearGradient id="paint12_linear_1321_10522" x1="318.576" y1="207.696" x2="226.065" y2="249.387" gradientUnits="userSpaceOnUse">
<stop stop-color="#EEF8FF"/>
<stop offset="1" stop-color="#5BAEEC" stop-opacity="0"/>
</linearGradient>
<linearGradient id="paint13_linear_1321_10522" x1="165.924" y1="197.887" x2="288.627" y2="220.699" gradientUnits="userSpaceOnUse">
<stop stop-color="white" stop-opacity="0"/>
<stop offset="1" stop-color="#EA3C3F"/>
</linearGradient>
<radialGradient id="paint14_radial_1321_10522" cx="0" cy="0" r="1" gradientUnits="userSpaceOnUse" gradientTransform="translate(176.546 158.422) rotate(84.3771) scale(89.7857 100.28)">
<stop stop-color="#4D1263"/>
<stop offset="1" stop-color="#8BECE9" stop-opacity="0"/>
</radialGradient>
<linearGradient id="paint15_linear_1321_10522" x1="268.028" y1="258.641" x2="294.453" y2="208.069" gradientUnits="userSpaceOnUse">
<stop stop-color="#070F10" stop-opacity="0"/>
<stop offset="0.75" stop-color="#08010B"/>
</linearGradient>
<radialGradient id="paint16_radial_1321_10522" cx="0" cy="0" r="1" gradientUnits="userSpaceOnUse" gradientTransform="translate(221.032 310.73) rotate(-68.2079) scale(56.3859 72.3929)">
<stop stop-color="#E375A0" stop-opacity="0"/>
<stop offset="1" stop-color="#FF91C6"/>
</radialGradient>
<linearGradient id="paint17_linear_1321_10522" x1="215.397" y1="232.649" x2="219.422" y2="260.018" gradientUnits="userSpaceOnUse">
<stop stop-color="white"/>
<stop offset="1" stop-color="white" stop-opacity="0"/>
</linearGradient>
</defs>
</svg>
