<svg width="61" height="61" viewBox="0 0 61 61" fill="none" xmlns="http://www.w3.org/2000/svg">
<g clip-path="url(#clip0_468_37666)">
<mask id="mask0_468_37666" style="mask-type:luminance" maskUnits="userSpaceOnUse" x="0" y="0" width="61" height="50">
<path d="M0 0.303467H60.3146V49.4674H0V0.303467Z" fill="white"/>
</mask>
<g mask="url(#mask0_468_37666)">
<path fill-rule="evenodd" clip-rule="evenodd" d="M40.4542 1.09153L45.3114 5.91546C45.672 6.30932 46.2955 6.30932 46.6572 5.91546L46.8535 5.75244C47.0832 5.52279 47.1487 5.25981 47.1487 4.96471C47.0511 3.8807 47.4116 2.73243 48.2648 1.87925C49.7748 0.369247 52.2034 0.369247 53.7456 1.87925C55.2556 3.38926 55.2556 5.85001 53.7456 7.36002C52.8924 8.21319 51.7441 8.57493 50.6601 8.47616C50.365 8.47616 50.1032 8.54161 49.8736 8.77126L49.7094 8.96879C49.3155 9.32934 49.3155 9.95285 49.7094 10.3134L54.5333 15.1718C55.321 15.9262 55.321 17.2066 54.5333 17.961L40.4542 32.0734C39.6986 32.8279 38.4194 32.8279 37.6638 32.0734L32.8066 27.2162C32.4127 26.8223 32.4127 26.2321 32.8066 25.8383L33.0695 25.6074C33.2659 25.3778 33.5288 25.2802 33.8239 25.3123C34.9068 25.4111 36.0562 25.0505 36.9094 24.1962C38.4194 22.6874 38.4194 20.2254 36.9094 18.7154C35.3994 17.2066 32.9375 17.2066 31.4286 18.7154C30.5755 19.5686 30.2137 20.7181 30.3125 21.8009C30.3446 22.096 30.247 22.3589 30.0174 22.5553L29.7877 22.8183C29.3939 23.2121 28.8025 23.2121 28.4086 22.8183L23.5514 17.961C22.797 17.2066 22.797 15.9262 23.5514 15.1718L28.4086 10.3134C28.8025 9.95285 28.8025 9.32934 28.4086 8.96879L28.3765 8.93547C28.179 8.70582 27.8839 8.60706 27.5888 8.6725C26.5381 8.80458 25.6194 8.60705 24.5366 7.52423C23.2884 6.30932 23.0266 3.55347 24.5366 2.04346C26.0454 0.533455 28.7704 0.828555 30.0174 2.04346C31.1002 3.12629 31.2644 4.07822 31.1323 5.0956C31.1002 5.42402 31.199 5.6858 31.4286 5.91546C31.8225 6.30932 32.4127 6.30932 32.8066 5.91546L37.6638 1.09153C38.4194 0.303801 39.6986 0.303801 40.4542 1.09153ZM38.9763 36.2417C32.6757 33.944 26.3417 31.745 20.0066 29.5139C18.7929 29.0868 19.0547 28.8238 17.4792 29.5794C15.3469 30.5968 0.708494 37.2591 0.0195312 37.7839L5.17188 48.7133L11.9009 45.5957C13.0158 45.0697 12.8849 44.9389 13.9023 45.2018C18.3003 46.1859 23.4205 47.1378 27.753 48.1552C28.2777 48.2861 33.2337 49.3701 33.8239 49.4022C34.1857 49.4677 34.4808 49.4677 34.7759 49.4022L58.6361 38.2432C59.9486 37.4555 60.6709 35.0935 59.2918 33.255C57.9793 31.5487 56.2075 31.5808 54.4345 32.434C50.2674 34.3712 46.0658 36.3072 41.9309 38.2432C42.3247 39.9828 41.7988 41.5916 40.5517 42.7732C39.0096 44.2166 36.9748 44.2499 35.5636 43.7251L26.7677 40.6064L27.1616 39.3926C27.1616 39.3926 31.8879 41.099 33.693 41.7225C35.7278 42.4448 38.7466 43.8882 40.3554 41.0002C40.716 40.3767 40.9135 39.5568 40.7493 38.6704C40.5517 37.6197 40.1258 37.2258 39.5998 36.6356C39.4035 36.4714 39.2071 36.3405 38.9763 36.2417Z" fill="url(#paint0_linear_468_37666)"/>
</g>
</g>
<defs>
<linearGradient id="paint0_linear_468_37666" x1="30.028" y1="0.500732" x2="30.028" y2="49.4513" gradientUnits="userSpaceOnUse">
<stop stop-color="white"/>
<stop offset="1" stop-color="white" stop-opacity="0.44"/>
</linearGradient>
<clipPath id="clip0_468_37666">
<rect width="61" height="60.5431" fill="white" transform="translate(0 0.228516)"/>
</clipPath>
</defs>
</svg>
