<svg width="46" height="46" viewBox="0 0 46 46" fill="none" xmlns="http://www.w3.org/2000/svg">
<path d="M8.625 30.1875V28.75H5.75V30.1875C5.75 32.8562 6.81015 35.4157 8.69724 37.3028C10.5843 39.1898 13.1438 40.25 15.8125 40.25H20.125V37.375H15.8125C13.9063 37.375 12.0781 36.6178 10.7302 35.2698C9.38225 33.9219 8.625 32.0937 8.625 30.1875ZM34.5 15.8125V17.25H37.375V15.8125C37.375 13.1438 36.3148 10.5843 34.4278 8.69724C32.5407 6.81016 29.9812 5.75 27.3125 5.75H23V8.625H27.3125C28.2564 8.625 29.191 8.81091 30.063 9.17212C30.9351 9.53332 31.7274 10.0628 32.3948 10.7302C33.0623 11.3976 33.5917 12.1899 33.9529 13.062C34.3141 13.934 34.5 14.8686 34.5 15.8125ZM15.8125 15.8125H7.1875C6.04375 15.8125 4.94685 16.2669 4.1381 17.0756C3.32935 17.8844 2.875 18.9813 2.875 20.125V23H5.75V20.125C5.75 19.7438 5.90145 19.3781 6.17103 19.1085C6.44062 18.839 6.80625 18.6875 7.1875 18.6875H15.8125C16.1937 18.6875 16.5594 18.839 16.829 19.1085C17.0985 19.3781 17.25 19.7438 17.25 20.125V23H20.125V20.125C20.125 18.9813 19.6706 17.8844 18.8619 17.0756C18.0531 16.2669 16.9562 15.8125 15.8125 15.8125ZM11.5 14.375C12.6372 14.375 13.7489 14.0378 14.6945 13.406C15.6401 12.7741 16.3771 11.8761 16.8123 10.8254C17.2475 9.77476 17.3614 8.61862 17.1395 7.50323C16.9177 6.38784 16.37 5.36329 15.5659 4.55914C14.7617 3.75499 13.7372 3.20735 12.6218 2.98549C11.5064 2.76362 10.3502 2.87749 9.29957 3.3127C8.2489 3.7479 7.35087 4.48489 6.71905 5.43047C6.08723 6.37606 5.75 7.48776 5.75 8.625C5.75 10.15 6.3558 11.6125 7.43414 12.6909C8.51247 13.7692 9.97501 14.375 11.5 14.375ZM11.5 5.75C12.0686 5.75 12.6245 5.91862 13.0973 6.23453C13.5701 6.55044 13.9386 6.99945 14.1562 7.52479C14.3738 8.05012 14.4307 8.62819 14.3198 9.18589C14.2088 9.74358 13.935 10.2559 13.5329 10.6579C13.1309 11.06 12.6186 11.3338 12.0609 11.4448C11.5032 11.5557 10.9251 11.4988 10.3998 11.2812C9.87445 11.0636 9.42543 10.6951 9.10953 10.2223C8.79362 9.74948 8.625 9.19362 8.625 8.625C8.625 7.86251 8.9279 7.13124 9.46707 6.59207C10.0062 6.0529 10.7375 5.75 11.5 5.75ZM38.8125 35.9375H30.1875C29.0438 35.9375 27.9469 36.3919 27.1381 37.2006C26.3294 38.0094 25.875 39.1063 25.875 40.25V43.125H28.75V40.25C28.75 39.8688 28.9014 39.5031 29.171 39.2335C29.4406 38.964 29.8063 38.8125 30.1875 38.8125H38.8125C39.1937 38.8125 39.5594 38.964 39.829 39.2335C40.0985 39.5031 40.25 39.8688 40.25 40.25V43.125H43.125V40.25C43.125 39.1063 42.6707 38.0094 41.8619 37.2006C41.0531 36.3919 39.9562 35.9375 38.8125 35.9375ZM28.75 28.75C28.75 29.8872 29.0872 30.9989 29.719 31.9445C30.3509 32.8901 31.2489 33.6271 32.2996 34.0623C33.3502 34.4975 34.5064 34.6114 35.6218 34.3895C36.7372 34.1677 37.7617 33.62 38.5659 32.8159C39.37 32.0117 39.9177 30.9872 40.1395 29.8718C40.3614 28.7564 40.2475 27.6002 39.8123 26.5496C39.3771 25.4989 38.6401 24.6009 37.6945 23.9691C36.7489 23.3372 35.6372 23 34.5 23C32.975 23 31.5125 23.6058 30.4341 24.6841C29.3558 25.7625 28.75 27.225 28.75 28.75ZM37.375 28.75C37.375 29.3186 37.2064 29.8745 36.8905 30.3473C36.5746 30.8201 36.1256 31.1886 35.6002 31.4062C35.0749 31.6238 34.4968 31.6807 33.9391 31.5698C33.3814 31.4588 32.8691 31.185 32.4671 30.7829C32.065 30.3809 31.7912 29.8686 31.6802 29.3109C31.5693 28.7532 31.6262 28.1751 31.8438 27.6498C32.0614 27.1244 32.4299 26.6754 32.9027 26.3595C33.3755 26.0436 33.9314 25.875 34.5 25.875C35.2625 25.875 35.9938 26.1779 36.5329 26.7171C37.0721 27.2562 37.375 27.9875 37.375 28.75Z" fill="#A9A9A9" stroke="#A9A9A9"/>
</svg>
