<svg width="62" height="62" viewBox="0 0 62 62" fill="none" xmlns="http://www.w3.org/2000/svg">
<path d="M49.0846 23.2499C49.0858 20.1367 48.2832 17.076 46.7546 14.364C45.2259 11.6519 43.023 9.38047 40.3591 7.76946C37.6952 6.15845 34.6605 5.26245 31.5488 5.1682C28.437 5.07396 25.3536 5.78465 22.5971 7.23149C19.8406 8.67833 17.5042 10.8123 15.8143 13.4269C14.1243 16.0414 13.138 19.048 12.9507 22.1555C12.7635 25.263 13.3816 28.3663 14.7454 31.1649C16.1091 33.9634 18.1723 36.3625 20.7351 38.1299L12.918 51.6666L18.746 51.9068L21.8666 56.8332L30.8205 41.3229L31.0013 41.3332C31.0917 41.3384 31.1201 41.3255 31.1821 41.3229L40.136 56.8332L43.3186 52.0127L49.0846 51.6666L41.2675 38.1299C43.6793 36.4693 45.6511 34.2472 47.0129 31.6549C48.3748 29.0627 49.0858 26.1781 49.0846 23.2499ZM18.0846 23.2499C18.0846 20.6952 18.8422 18.1979 20.2615 16.0738C21.6808 13.9497 23.6981 12.2941 26.0583 11.3165C28.4185 10.3388 31.0156 10.083 33.5212 10.5814C36.0268 11.0798 38.3283 12.31 40.1348 14.1164C41.9412 15.9229 43.1714 18.2244 43.6698 20.73C44.1682 23.2356 43.9124 25.8327 42.9347 28.1929C41.9571 30.5531 40.3016 32.5704 38.1774 33.9897C36.0533 35.409 33.556 36.1666 31.0013 36.1666C27.5756 36.1666 24.2902 34.8057 21.8678 32.3834C19.4455 29.961 18.0846 26.6756 18.0846 23.2499Z" fill="#EDEDED"/>
<path d="M31 31C35.2802 31 38.75 27.5302 38.75 23.25C38.75 18.9698 35.2802 15.5 31 15.5C26.7198 15.5 23.25 18.9698 23.25 23.25C23.25 27.5302 26.7198 31 31 31Z" fill="#EDEDED"/>
</svg>
