<svg width="37" height="37" viewBox="0 0 37 37" fill="none" xmlns="http://www.w3.org/2000/svg">
<g clip-path="url(#clip0_985_7555)">
<path fill-rule="evenodd" clip-rule="evenodd" d="M9.29683 8.66075C9.64378 8.31381 10.1143 8.1189 10.605 8.1189C11.0956 8.1189 11.5662 8.31381 11.9131 8.66075L27.6109 24.3585C27.9578 24.7055 28.1528 25.176 28.1528 25.6667C28.1528 26.1573 27.9578 26.6279 27.6109 26.9748C27.264 27.3218 26.7934 27.5167 26.3028 27.5167C25.8121 27.5167 25.3415 27.3218 24.9946 26.9748L9.29683 11.277C8.94989 10.9301 8.75498 10.4595 8.75498 9.96889C8.75498 9.47824 8.94989 9.00769 9.29683 8.66075ZM2.7561 15.2015C3.10304 14.8545 3.57359 14.6596 4.06424 14.6596C4.55489 14.6596 5.02545 14.8545 5.37239 15.2015L21.0702 30.8993C21.4171 31.2462 21.612 31.7168 21.612 32.2074C21.612 32.6981 21.4171 33.1686 21.0702 33.5156C20.7232 33.8625 20.2527 34.0574 19.762 34.0574C19.2714 34.0574 18.8008 33.8625 18.4539 33.5156L2.7561 17.8178C2.40915 17.4708 2.21424 17.0003 2.21424 16.5096C2.21424 16.019 2.40915 15.5484 2.7561 15.2015Z" fill="white"/>
</g>
<g clip-path="url(#clip1_985_7555)">
<path fill-rule="evenodd" clip-rule="evenodd" d="M8.39409 26.7081C8.04714 26.3612 7.85223 25.8906 7.85223 25.4C7.85223 24.9093 8.04714 24.4388 8.39409 24.0918L24.0919 8.39404C24.4388 8.0471 24.9094 7.85219 25.4 7.85219C25.8907 7.85219 26.3612 8.0471 26.7082 8.39404C27.0551 8.74099 27.25 9.21154 27.25 9.70219C27.25 10.1928 27.0551 10.6634 26.7082 11.0103L11.0104 26.7081C10.6634 27.0551 10.1929 27.25 9.70223 27.25C9.21158 27.25 8.74103 27.0551 8.39409 26.7081ZM14.9348 33.2488C14.5879 32.9019 14.393 32.4314 14.393 31.9407C14.393 31.4501 14.5879 30.9795 14.9348 30.6326L30.6326 14.9348C30.9795 14.5878 31.4501 14.3929 31.9407 14.3929C32.4314 14.3929 32.9019 14.5878 33.2489 14.9348C33.5958 15.2817 33.7907 15.7523 33.7907 16.2429C33.7907 16.7336 33.5958 17.2041 33.2489 17.5511L17.5511 33.2488C17.2042 33.5958 16.7336 33.7907 16.243 33.7907C15.7523 33.7907 15.2818 33.5958 14.9348 33.2488Z" fill="white"/>
</g>
<defs>
<clipPath id="clip0_985_7555">
<rect width="31" height="6" fill="white" transform="translate(9.08447 5.2666) rotate(45)"/>
</clipPath>
<clipPath id="clip1_985_7555">
<rect width="31" height="6" fill="white" transform="translate(5 26.9203) rotate(-45)"/>
</clipPath>
</defs>
</svg>
