<svg width="62" height="69" viewBox="0 0 62 69" fill="none" xmlns="http://www.w3.org/2000/svg">
<path opacity="0.42" fill-rule="evenodd" clip-rule="evenodd" d="M39.2357 64.7353L33.9609 49.9121H27.8334L22.5625 64.7353H39.2357Z" fill="url(#paint0_linear_468_37922)"/>
<mask id="mask0_468_37922" style="mask-type:luminance" maskUnits="userSpaceOnUse" x="0" y="8" width="62" height="49">
<path d="M0 8.73291H61.7979V56.053H0V8.73291Z" fill="white"/>
</mask>
<g mask="url(#mask0_468_37922)">
<path opacity="0.35" fill-rule="evenodd" clip-rule="evenodd" d="M4.05958 8.82959H57.7309C59.9573 8.82959 61.7788 10.6606 61.7788 12.8954V51.9419C61.7788 54.1807 59.9573 56.0116 57.7309 56.0116H4.05958C1.83706 56.0116 0.015625 54.1807 0.015625 51.9419V12.897C0.015625 10.6606 1.83706 8.82959 4.05958 8.82959Z" fill="url(#paint1_linear_468_37922)"/>
</g>
<path fill-rule="evenodd" clip-rule="evenodd" d="M5.43359 13.9189H56.3605V50.9203H5.43359V13.9189Z" fill="#C7E4FF"/>
<path fill-rule="evenodd" clip-rule="evenodd" d="M5.43359 13.9189H7.43662V50.9203H5.43359V13.9189Z" fill="#A1C4E5"/>
<mask id="mask1_468_37922" style="mask-type:luminance" maskUnits="userSpaceOnUse" x="16" y="63" width="30" height="3">
<path d="M16.168 63.5674H45.4752V65.7506H16.168V63.5674Z" fill="white"/>
</mask>
<g mask="url(#mask1_468_37922)">
<path opacity="0.42" d="M17.3875 65.7505C16.8119 65.7505 16.3477 65.284 16.3477 64.7089C16.3477 64.1297 16.8119 63.6641 17.3875 63.6641H44.4082C44.9799 63.6641 45.4441 64.1297 45.4441 64.7089C45.4441 65.284 44.9799 65.7505 44.4082 65.7505H17.3875Z" fill="url(#paint2_linear_468_37922)"/>
</g>
<mask id="mask2_468_37922" style="mask-type:luminance" maskUnits="userSpaceOnUse" x="9" y="0" width="44" height="41">
<path d="M9.09375 0.00244141H52.7515V40.8213H9.09375V0.00244141Z" fill="white"/>
</mask>
<g mask="url(#mask2_468_37922)">
<path fill-rule="evenodd" clip-rule="evenodd" d="M12.2543 0.00244141H49.5389C51.2001 0.00244141 52.5581 1.36775 52.5581 3.03849V37.6964C52.5581 39.3631 51.2001 40.7316 49.5389 40.7316H12.2543C10.5963 40.7316 9.23828 39.3631 9.23828 37.6964V3.03849C9.23828 1.36775 10.5963 0.00244141 12.2543 0.00244141Z" fill="#EBF5FC"/>
</g>
<mask id="mask3_468_37922" style="mask-type:luminance" maskUnits="userSpaceOnUse" x="9" y="0" width="44" height="8">
<path d="M9.09375 0.00244141H52.7515V7.51441H9.09375V0.00244141Z" fill="white"/>
</mask>
<g mask="url(#mask3_468_37922)">
<path fill-rule="evenodd" clip-rule="evenodd" d="M12.2543 0.00244141H49.5389C51.2001 0.00244141 52.5581 1.36775 52.5581 3.03849V7.38748H9.23828V3.03849C9.23828 1.36775 10.5963 0.00244141 12.2543 0.00244141Z" fill="#6748CD"/>
</g>
<path d="M13.7742 4.73829C13.2018 4.73829 12.7344 4.27261 12.7344 3.69666C12.7344 3.11754 13.2018 2.65186 13.7742 2.65186H14.5669C15.1432 2.65186 15.6067 3.11754 15.6067 3.69666C15.6067 4.27261 15.1432 4.73829 14.5669 4.73829H13.7742ZM28.4839 4.73829C27.9122 4.73829 27.4441 4.27261 27.4441 3.69666C27.4441 3.11754 27.9122 2.65186 28.4839 2.65186H48.0247C48.5971 2.65186 49.0645 3.11754 49.0645 3.69666C49.0645 4.27261 48.5971 4.73829 48.0247 4.73829H28.4839ZM22.4298 4.73829C21.8574 4.73829 21.3939 4.27261 21.3939 3.69666C21.3939 3.11754 21.8574 2.65186 22.4298 2.65186H23.2232C23.7988 2.65186 24.2631 3.11754 24.2631 3.69666C24.2631 4.27261 23.7988 4.73829 23.2232 4.73829H22.4298ZM18.104 4.73829C17.5276 4.73829 17.0641 4.27261 17.0641 3.69666C17.0641 3.11754 17.5276 2.65186 18.104 2.65186H18.8966C19.469 2.65186 19.9325 3.11754 19.9325 3.69666C19.9325 4.27261 19.469 4.73829 18.8966 4.73829H18.104Z" fill="white"/>
<path fill-rule="evenodd" clip-rule="evenodd" d="M28.6149 26.9578C27.8222 27.1656 27.0761 27.4822 26.3884 27.886C26.2226 27.9851 26.0339 27.9875 25.8642 27.9002L24.5678 27.2378C24.3507 27.1252 24.0996 27.1648 23.9299 27.337L22.6121 28.6618C22.4424 28.8324 22.4021 29.0847 22.5134 29.3028L23.1727 30.6063C23.2595 30.7768 23.2556 30.9672 23.1585 31.1338C22.7566 31.8264 22.4424 32.5761 22.2355 33.3718C22.1842 33.5582 22.0579 33.6955 21.8739 33.755L20.4907 34.2071C20.2617 34.2841 20.1133 34.4864 20.1133 34.7307V36.6006C20.1133 36.8442 20.2617 37.0488 20.4907 37.1242L21.8739 37.5764C22.0587 37.6383 22.1889 37.7731 22.2355 37.9619C22.4424 38.7553 22.7566 39.505 23.1585 40.1959C23.2572 40.3633 23.2595 40.5529 23.1727 40.7275L22.5134 42.0309C22.4013 42.2459 22.4408 42.4974 22.6121 42.6679L23.9299 43.9936C24.0996 44.1641 24.3507 44.2038 24.5678 44.0943L25.8642 43.4279C26.0339 43.3407 26.2226 43.3486 26.3884 43.4422C27.0769 43.8468 27.823 44.1625 28.6149 44.3704C28.8005 44.422 28.937 44.5489 28.9955 44.7345L29.4439 46.1252C29.5205 46.3545 29.7266 46.5036 29.965 46.5036H31.8259C32.0691 46.5036 32.272 46.3545 32.347 46.1252L32.797 44.7345C32.8578 44.5481 32.9921 44.4212 33.18 44.3704C33.9695 44.1625 34.7156 43.8468 35.4025 43.4422C35.5683 43.347 35.7578 43.3407 35.9315 43.4279L37.2279 44.0943C37.441 44.2038 37.6913 44.1641 37.865 43.9936L39.1796 42.6679C39.3493 42.4974 39.3888 42.2459 39.2798 42.0309L38.6174 40.7275C38.5306 40.5529 38.5377 40.3641 38.6316 40.1959C39.0335 39.5042 39.3477 38.7537 39.5546 37.9619C39.6059 37.7731 39.7322 37.6383 39.9162 37.5764L41.2995 37.1242C41.5284 37.0472 41.6761 36.8442 41.6761 36.6006V34.7292C41.6761 34.4856 41.5284 34.2817 41.2995 34.2056L39.9162 33.7534C39.7346 33.6955 39.6043 33.5574 39.5546 33.371C39.3477 32.5737 39.0335 31.8232 38.6316 31.1322C38.5369 30.9656 38.5306 30.776 38.6174 30.6047L39.2798 29.3012C39.3888 29.0831 39.3493 28.8316 39.1796 28.661L37.865 27.3354C37.6913 27.1648 37.441 27.1252 37.2279 27.2362L35.9315 27.8994C35.7578 27.9867 35.5699 27.9827 35.4064 27.8852C34.7156 27.4806 33.9695 27.1648 33.18 26.957C32.9921 26.9054 32.8578 26.7785 32.797 26.5928L32.347 25.2021C32.2704 24.9729 32.0691 24.8237 31.8259 24.8237H29.965C29.7266 24.8237 29.5197 24.9729 29.4439 25.2021L28.9955 26.5928C28.937 26.7793 28.7989 26.9062 28.6149 26.9578Z" fill="black"/>
<path fill-rule="evenodd" clip-rule="evenodd" d="M30.8991 30.6562C33.6506 30.6562 35.881 32.8982 35.881 35.6645C35.881 38.43 33.6506 40.6727 30.8991 40.6727C28.1484 40.6727 25.918 38.43 25.918 35.6645C25.9172 32.8982 28.1468 30.6562 30.8991 30.6562Z" fill="#EBF5FC"/>
<path d="M38.3124 20.4568C38.3124 21.0359 37.8482 21.5016 37.2765 21.5016C36.7002 21.5016 36.2367 21.0359 36.2367 20.4568V11.528C36.2367 10.9528 36.7002 10.4863 37.2765 10.4863C37.6966 10.4863 38.0542 10.7347 38.2216 11.098L40.2894 15.1852L42.3753 11.0544C42.6358 10.5403 43.2612 10.338 43.772 10.5998C44.1312 10.7823 44.3365 11.1496 44.3365 11.528H44.3404V20.4568C44.3404 21.0359 43.873 21.5016 43.3006 21.5016C42.7251 21.5016 42.2616 21.0359 42.2616 20.4568V15.8809L41.2115 17.9602C41.1168 18.149 40.9613 18.3133 40.7591 18.4148C40.2483 18.6766 39.6222 18.4727 39.3617 17.9602L38.3124 15.8809V20.4568ZM29.1847 20.4568C29.1847 21.0359 28.7212 21.5016 28.1449 21.5016C27.5725 21.5016 27.109 21.0359 27.109 20.4568V11.528C27.109 10.9528 27.5725 10.4863 28.1449 10.4863H31.2193C32.0625 10.4863 32.8299 10.8322 33.3842 11.3891C33.9424 11.9508 34.2858 12.7211 34.2858 13.57V13.9524C34.2858 14.7996 33.9424 15.5715 33.3842 16.1332C32.8299 16.6901 32.0625 17.036 31.2193 17.036H31.1838L33.5121 19.7841C33.8816 20.2204 33.8279 20.8749 33.3921 21.2478C32.9618 21.623 32.3065 21.5675 31.9362 21.1311L29.1847 17.8809V20.4568ZM29.1847 12.572V14.9488H31.2193C31.4917 14.9488 31.7364 14.8361 31.918 14.6537C32.0996 14.4752 32.2117 14.2245 32.2117 13.9516V13.5684C32.2117 13.2947 32.0996 13.0448 31.918 12.8663C31.7364 12.6838 31.4917 12.5704 31.2193 12.5704H29.1847V12.572ZM23.594 19.4128C24.1704 19.4128 24.6338 19.8825 24.6338 20.4576C24.6338 21.0367 24.1704 21.5032 23.594 21.5032H20.5236C19.6803 21.5032 18.9129 21.1581 18.3547 20.5964C17.8005 20.0395 17.457 19.2676 17.457 18.4204V13.5708C17.457 12.7235 17.8005 11.9516 18.3547 11.3907C18.9129 10.833 19.6796 10.4879 20.5236 10.4879H23.594C24.1704 10.4879 24.6338 10.9544 24.6338 11.5296C24.6338 12.1087 24.1704 12.5744 23.594 12.5744H20.5236C20.252 12.5744 20.0064 12.6878 19.8248 12.8703C19.6432 13.0488 19.5311 13.2987 19.5311 13.5724V18.4212C19.5311 18.6949 19.6432 18.9416 19.8248 19.124C20.0064 19.3057 20.252 19.4152 20.5236 19.4152H23.594V19.4128Z" fill="#752B8F"/>
<path fill-rule="evenodd" clip-rule="evenodd" d="M30.8991 30.6562C31.0988 30.6562 31.2907 30.6666 31.4818 30.6896C29.005 30.9807 27.0865 33.0997 27.0865 35.6653C27.0865 38.2317 29.005 40.3499 31.4818 40.6418C31.2939 40.6632 31.0988 40.6751 30.8991 40.6751C28.1484 40.6751 25.918 38.4332 25.918 35.6669C25.9172 32.8982 28.1468 30.6562 30.8991 30.6562Z" fill="#D4DDE3"/>
<path fill-rule="evenodd" clip-rule="evenodd" d="M28.6149 26.9576C27.9817 27.125 27.3777 27.3583 26.8093 27.6526L27.2909 27.9001C27.4606 27.9874 27.6493 27.9834 27.8151 27.8858C28.5036 27.482 29.2521 27.1655 30.0416 26.9576C30.2271 26.9061 30.3637 26.7791 30.4221 26.5943L30.8722 25.2036C30.9488 24.9735 31.154 24.8252 31.3972 24.8252H29.9666C29.7274 24.8252 29.5205 24.9735 29.4455 25.2036L28.997 26.5943C28.937 26.7791 28.7989 26.9061 28.6149 26.9576ZM25.1576 27.5392L24.5678 27.2377C24.3507 27.125 24.0996 27.1647 23.9299 27.3369L22.6121 28.6617C22.4424 28.8323 22.4021 29.0845 22.5134 29.3027L23.1727 30.6061C23.2595 30.7767 23.2556 30.9671 23.1585 31.1337C22.7566 31.8263 22.4424 32.576 22.2355 33.3717C22.1842 33.5581 22.0579 33.6953 21.8739 33.7548L20.4907 34.207C20.2617 34.284 20.1133 34.4863 20.1133 34.7306V36.6005C20.1133 36.844 20.2617 37.0487 20.4907 37.1241L21.8739 37.5763C22.0587 37.6381 22.1889 37.773 22.2355 37.9618C22.4424 38.7551 22.7566 39.5048 23.1585 40.1958C23.2572 40.3632 23.2595 40.5528 23.1727 40.7273L22.5134 42.0308C22.4013 42.2458 22.4408 42.4972 22.6121 42.6678L23.9299 43.9935C24.0996 44.164 24.3507 44.2037 24.5678 44.0942L25.1576 43.7888L24.0428 42.6678C23.8722 42.4972 23.8327 42.2458 23.9417 42.0308L24.601 40.7273C24.6878 40.5528 24.6839 40.364 24.5867 40.1958C24.1841 39.504 23.8738 38.7536 23.663 37.9618C23.6156 37.773 23.4854 37.6381 23.3046 37.5763L21.9213 37.1241C21.69 37.0471 21.54 36.844 21.54 36.6005V34.729C21.54 34.4855 21.6884 34.2816 21.9213 34.2054L23.3006 33.7532C23.4854 33.6953 23.6156 33.5573 23.6622 33.3709C23.8714 32.5736 24.1833 31.8231 24.5852 31.1321C24.6839 30.9655 24.6862 30.7759 24.5994 30.6045L23.9401 29.3011C23.832 29.083 23.8714 28.8315 24.0412 28.6609L25.1576 27.5392ZM26.8077 43.6761C27.3761 43.9712 27.9801 44.2037 28.6141 44.3703C28.7989 44.4218 28.9355 44.5488 28.9947 44.7344L29.4423 46.1251C29.5197 46.3544 29.725 46.5035 29.9642 46.5035H31.394C31.1517 46.5035 30.9448 46.3544 30.8698 46.1251L30.4198 44.7344C30.3621 44.548 30.2248 44.4211 30.0392 44.3703C29.2497 44.1624 28.5004 43.8467 27.8128 43.4421C27.647 43.3469 27.4575 43.3405 27.2877 43.4278L26.8077 43.6761Z" fill="#2A4A68"/>
<path fill-rule="evenodd" clip-rule="evenodd" d="M11.5737 7.38916V37.6965C11.5737 39.3632 12.9309 40.7317 14.5889 40.7317H12.2543C10.5963 40.7317 9.23828 39.3632 9.23828 37.6965V7.38916H11.5737Z" fill="#D4DDE3"/>
<mask id="mask4_468_37922" style="mask-type:luminance" maskUnits="userSpaceOnUse" x="9" y="0" width="6" height="8">
<path d="M9.09375 0.00244141H14.7531V7.51441H9.09375V0.00244141Z" fill="white"/>
</mask>
<g mask="url(#mask4_468_37922)">
<path fill-rule="evenodd" clip-rule="evenodd" d="M12.2543 0.00244141H14.5889C12.9309 0.00244141 11.5737 1.36775 11.5737 3.03849V7.38748H9.23828V3.03849C9.23828 1.36775 10.5963 0.00244141 12.2543 0.00244141Z" fill="#5131B9"/>
</g>
<defs>
<linearGradient id="paint0_linear_468_37922" x1="25.581" y1="64.6061" x2="40.9286" y2="53.2045" gradientUnits="userSpaceOnUse">
<stop stop-color="#6748CD"/>
<stop offset="0.274689" stop-color="#972BC7"/>
<stop offset="0.646623" stop-color="#B33691"/>
<stop offset="0.976458" stop-color="#4D1263"/>
</linearGradient>
<linearGradient id="paint1_linear_468_37922" x1="11.1972" y1="55.6003" x2="61.6862" y2="11.9491" gradientUnits="userSpaceOnUse">
<stop stop-color="#6748CD"/>
<stop offset="0.274689" stop-color="#972BC7"/>
<stop offset="0.646623" stop-color="#B33691"/>
<stop offset="0.976458" stop-color="#4D1263"/>
</linearGradient>
<linearGradient id="paint2_linear_468_37922" x1="21.6152" y1="65.7323" x2="22.0995" y2="61.2722" gradientUnits="userSpaceOnUse">
<stop stop-color="#6748CD"/>
<stop offset="0.274689" stop-color="#972BC7"/>
<stop offset="0.646623" stop-color="#B33691"/>
<stop offset="0.976458" stop-color="#4D1263"/>
</linearGradient>
</defs>
</svg>
