<svg width="64" height="64" viewBox="0 0 64 64" fill="none" xmlns="http://www.w3.org/2000/svg">
<path d="M31.9987 55.8984C26.6405 54.3073 22.1898 51.062 18.6467 46.1624C15.1036 41.2629 13.332 35.742 13.332 29.5997V15.1784L31.9987 8.20508L50.6654 15.1784V29.5997C50.6654 35.7402 48.8938 41.2602 45.3507 46.1597C41.8076 51.0593 37.3569 54.3037 31.9987 55.8984ZM31.9987 53.0691C36.3098 51.7357 39.9098 49.1029 42.7987 45.1704C45.6876 41.238 47.3765 36.8477 47.8654 31.9997H31.9987V11.0504L15.9987 16.9997V30.7491C15.9987 31.094 16.0431 31.5109 16.132 31.9997H31.9987V53.0691Z" fill="#EDEDED"/>
</svg>
