<svg width="37" height="37" viewBox="0 0 37 37" fill="none" xmlns="http://www.w3.org/2000/svg">
<path fill-rule="evenodd" clip-rule="evenodd" d="M5.5498 9.24999C5.5498 8.75934 5.74471 8.28879 6.09166 7.94185C6.4386 7.5949 6.90915 7.39999 7.3998 7.39999H29.5998C30.0905 7.39999 30.561 7.5949 30.908 7.94185C31.2549 8.28879 31.4498 8.75934 31.4498 9.24999C31.4498 9.74064 31.2549 10.2112 30.908 10.5581C30.561 10.9051 30.0905 11.1 29.5998 11.1H7.3998C6.90915 11.1 6.4386 10.9051 6.09166 10.5581C5.74471 10.2112 5.5498 9.74064 5.5498 9.24999ZM5.5498 18.5C5.5498 18.0093 5.74471 17.5388 6.09166 17.1918C6.4386 16.8449 6.90915 16.65 7.3998 16.65H29.5998C30.0905 16.65 30.561 16.8449 30.908 17.1918C31.2549 17.5388 31.4498 18.0093 31.4498 18.5C31.4498 18.9906 31.2549 19.4612 30.908 19.8081C30.561 20.1551 30.0905 20.35 29.5998 20.35H7.3998C6.90915 20.35 6.4386 20.1551 6.09166 19.8081C5.74471 19.4612 5.5498 18.9906 5.5498 18.5ZM16.6498 27.75C16.6498 27.2593 16.8447 26.7888 17.1917 26.4418C17.5386 26.0949 18.0092 25.9 18.4998 25.9H29.5998C30.0905 25.9 30.561 26.0949 30.908 26.4418C31.2549 26.7888 31.4498 27.2593 31.4498 27.75C31.4498 28.2406 31.2549 28.7112 30.908 29.0581C30.561 29.4051 30.0905 29.6 29.5998 29.6H18.4998C18.0092 29.6 17.5386 29.4051 17.1917 29.0581C16.8447 28.7112 16.6498 28.2406 16.6498 27.75Z" fill="white"/>
</svg>
