<svg width="62" height="62" viewBox="0 0 62 62" fill="none" xmlns="http://www.w3.org/2000/svg">
<g clip-path="url(#clip0_468_37653)">
<path d="M42.8164 50.298C34.2434 58.871 20.2997 58.8762 11.7199 50.316C3.21422 41.8282 3.11854 27.9786 11.5121 19.3787C18.3614 12.3605 28.7583 10.9179 37.0681 15.0485C37.4008 15.2145 37.8022 15.1502 38.0653 14.8878L40.686 12.2664C41.0904 11.862 40.9985 11.1803 40.4984 10.9014C36.4956 8.67017 31.9688 7.48315 27.2596 7.48315C19.9782 7.48315 13.1327 10.3184 7.98397 15.4664C2.83524 20.6151 0 27.4606 0 34.742C0 41.9889 2.80908 48.8045 7.91221 53.9458C12.9107 58.9801 19.6979 61.8789 26.7916 61.997C34.3906 62.1241 41.5464 59.1648 46.8371 53.7103C51.7691 48.6244 54.5281 41.7893 54.5184 34.7046C54.5124 30.0081 53.3246 25.4947 51.0986 21.5009C50.8205 21.0016 50.1395 20.9111 49.7344 21.3155L47.1144 23.9362C46.8506 24.1993 46.787 24.6015 46.9537 24.9349C51.0448 33.167 49.6664 43.448 42.8164 50.298Z" fill="url(#paint0_linear_468_37653)"/>
<path d="M15.6683 23.1519C9.33481 29.4847 9.278 39.753 15.4964 46.1575C21.8082 52.6577 32.2836 52.784 38.7449 46.434C43.2597 41.9962 44.6516 35.5805 42.9219 29.9234C42.7313 29.2993 41.9442 29.1042 41.483 29.5654L38.5289 32.5195C38.3375 32.7116 38.2478 32.9814 38.2844 33.2498C38.7255 36.538 37.7021 39.9862 35.2137 42.5277C30.9216 46.9117 23.8197 46.979 19.4484 42.6742C15.0464 38.3395 15.0262 31.2315 19.3863 26.8707C21.9368 24.321 25.4261 23.2693 28.7517 23.7155C29.0193 23.7514 29.2884 23.6624 29.4797 23.4711L32.4346 20.5162C32.8943 20.0565 32.7014 19.2694 32.0795 19.0788C26.4643 17.3603 20.1017 18.7185 15.6683 23.1519Z" fill="url(#paint1_linear_468_37653)"/>
<mask id="mask0_468_37653" style="mask-type:luminance" maskUnits="userSpaceOnUse" x="22" y="0" width="40" height="40">
<path d="M22.4219 0H62.0001V39.5909H22.4219V0Z" fill="white"/>
</mask>
<g mask="url(#mask0_468_37653)">
<path d="M56.4613 6.82969C55.7579 6.80727 55.1921 6.24216 55.1697 5.53802L55.0119 0.648676C54.9933 0.0633891 54.2839 -0.217668 53.8698 0.19719L47.4952 6.57181C46.486 7.58092 45.9396 8.96229 45.986 10.3885C46.0166 11.3378 45.6526 12.2565 44.9813 12.9277L28.7981 29.1102C28.2652 29.6439 27.5588 29.9601 26.8083 30.0311C25.7506 30.1313 24.7213 30.585 23.911 31.3953C23.8647 31.4416 23.8191 31.4887 23.7742 31.538C22.1148 33.3388 22.117 36.1546 23.7802 37.9523C25.6146 39.9361 28.7122 39.9817 30.6048 38.0891C31.4129 37.2803 31.8673 36.2517 31.9683 35.1963C32.04 34.4443 32.3547 33.7357 32.8892 33.2012L49.0716 17.0188C49.7429 16.3475 50.6623 15.9835 51.6116 16.0141C53.0378 16.0605 54.4192 15.5141 55.4283 14.5049L61.8022 8.13033C62.217 7.71622 61.9367 7.00685 61.3507 6.98741L56.4613 6.82969Z" fill="url(#paint2_linear_468_37653)"/>
</g>
</g>
<defs>
<linearGradient id="paint0_linear_468_37653" x1="27.2592" y1="7.48315" x2="27.2592" y2="62.0009" gradientUnits="userSpaceOnUse">
<stop stop-color="white"/>
<stop offset="1" stop-color="white" stop-opacity="0.4"/>
</linearGradient>
<linearGradient id="paint1_linear_468_37653" x1="27.2578" y1="18.3589" x2="27.2578" y2="51.1157" gradientUnits="userSpaceOnUse">
<stop stop-color="white"/>
<stop offset="1" stop-color="white" stop-opacity="0.4"/>
</linearGradient>
<linearGradient id="paint2_linear_468_37653" x1="42.2655" y1="-0.000244141" x2="42.2655" y2="39.4752" gradientUnits="userSpaceOnUse">
<stop stop-color="white"/>
<stop offset="1" stop-color="white" stop-opacity="0.4"/>
</linearGradient>
<clipPath id="clip0_468_37653">
<rect width="62" height="62" fill="white"/>
</clipPath>
</defs>
</svg>
