<svg width="72" height="64" viewBox="0 0 72 64" fill="none" xmlns="http://www.w3.org/2000/svg">
<g clip-path="url(#clip0_468_37645)">
<path d="M35.9969 4C25.8969 4 17.8094 8.6 11.9219 14.075C6.07188 19.5 2.15937 26 0.309375 30.4625C-0.103125 31.45 -0.103125 32.55 0.309375 33.5375C2.15937 38 6.07188 44.5 11.9219 49.925C17.8094 55.4 25.8969 60 35.9969 60C46.0969 60 54.1844 55.4 60.0719 49.925C65.9219 44.4875 69.8344 38 71.6969 33.5375C72.1094 32.55 72.1094 31.45 71.6969 30.4625C69.8344 26 65.9219 19.5 60.0719 14.075C54.1844 8.6 46.0969 4 35.9969 4ZM17.9969 32C17.9969 27.2261 19.8933 22.6477 23.269 19.2721C26.6446 15.8964 31.223 14 35.9969 14C40.7708 14 45.3491 15.8964 48.7248 19.2721C52.1005 22.6477 53.9969 27.2261 53.9969 32C53.9969 36.7739 52.1005 41.3523 48.7248 44.7279C45.3491 48.1036 40.7708 50 35.9969 50C31.223 50 26.6446 48.1036 23.269 44.7279C19.8933 41.3523 17.9969 36.7739 17.9969 32ZM35.9969 24C35.9969 28.4125 32.4094 32 27.9969 32C27.1094 32 26.2594 31.85 25.4594 31.5875C24.7719 31.3625 23.9719 31.7875 23.9969 32.5125C24.0344 33.375 24.1594 34.2375 24.3969 35.1C26.1094 41.5 32.6969 45.3 39.0969 43.5875C45.4969 41.875 49.2969 35.2875 47.5844 28.8875C46.1969 23.7 41.6094 20.2125 36.5094 20C35.7844 19.975 35.3594 20.7625 35.5844 21.4625C35.8469 22.2625 35.9969 23.1125 35.9969 24Z" fill="url(#paint0_linear_468_37645)"/>
</g>
<defs>
<linearGradient id="paint0_linear_468_37645" x1="36.0031" y1="4" x2="36.0031" y2="60" gradientUnits="userSpaceOnUse">
<stop stop-color="white"/>
<stop offset="1" stop-color="white" stop-opacity="0.09"/>
</linearGradient>
<clipPath id="clip0_468_37645">
<rect width="72" height="64" fill="white"/>
</clipPath>
</defs>
</svg>
