<svg width="35" height="36" viewBox="0 0 35 36" fill="none" xmlns="http://www.w3.org/2000/svg">
<g clip-path="url(#clip0_604_3990)">
<path d="M30.1728 0.897217H4.09602C2.30324 0.897217 0.836426 2.31165 0.836426 4.0404V31.2813C0.836426 33.0101 2.30324 34.4245 4.09602 34.4245H30.1728C31.9656 34.4245 33.4324 33.0101 33.4324 31.2813V4.0404C33.4324 2.31165 31.9656 0.897217 30.1728 0.897217ZM29.0863 30.2336H5.18255V5.08813H29.0863V30.2336ZM9.52868 19.7563H24.7401V21.8518H9.52868V19.7563ZM9.52868 23.9472H24.7401V26.0427H9.52868V23.9472ZM11.7017 10.3268C11.7019 9.91386 11.7864 9.50502 11.9504 9.1236C12.1144 8.74218 12.3547 8.39564 12.6575 8.10376C12.9604 7.81189 13.32 7.58041 13.7156 7.42252C14.1113 7.26464 14.5353 7.18344 14.9635 7.18358C15.3917 7.18372 15.8157 7.26518 16.2112 7.42332C16.6068 7.58146 16.9662 7.81318 17.2689 8.10525C17.5715 8.39731 17.8116 8.74401 17.9753 9.12554C18.1391 9.50706 18.2233 9.91595 18.2231 10.3289C18.2228 11.1628 17.879 11.9624 17.2673 12.5519C16.6556 13.1413 15.8261 13.4723 14.9613 13.472C14.0966 13.4718 13.2673 13.1402 12.656 12.5504C12.0447 11.9605 11.7015 11.1607 11.7017 10.3268ZM17.1344 13.4699H12.7883C10.9955 13.4699 9.52868 14.4129 9.52868 15.5654V17.6609H20.394V15.5654C20.394 14.4129 18.9272 13.4699 17.1344 13.4699Z" fill="white"/>
</g>
<defs>
<clipPath id="clip0_604_3990">
<rect width="34.1482" height="34.1482" fill="white" transform="translate(0.836426 0.897217)"/>
</clipPath>
</defs>
</svg>
