<svg width="51" height="45" viewBox="0 0 51 45" fill="none" xmlns="http://www.w3.org/2000/svg">
<g clip-path="url(#clip0_604_4093)">
<mask id="mask0_604_4093" style="mask-type:luminance" maskUnits="userSpaceOnUse" x="22" y="32" width="28" height="13">
<path d="M22.915 32.6582H49.9389V44.2376H22.915V32.6582Z" fill="white"/>
</mask>
<g mask="url(#mask0_604_4093)">
<path fill-rule="evenodd" clip-rule="evenodd" d="M32.8728 32.8416C27.5063 32.8416 23.1401 37.2077 23.1401 42.5723V44.3006H49.8345V42.5723C49.8345 37.2077 45.4683 32.8416 40.1018 32.8416H32.8728Z" fill="white"/>
</g>
<path fill-rule="evenodd" clip-rule="evenodd" d="M36.4878 18.1646C32.7648 18.1646 29.7383 21.1911 29.7383 24.9141C29.7383 28.6371 32.7648 31.6636 36.4859 31.6636H36.4898C40.2108 31.6636 43.2374 28.6371 43.2374 24.9141C43.2374 21.1911 40.2108 18.1646 36.4878 18.1646Z" fill="white"/>
<mask id="mask1_604_4093" style="mask-type:luminance" maskUnits="userSpaceOnUse" x="22" y="1" width="17" height="12">
<path d="M22.4102 1.00342H38.0677V12.9596H22.4102V1.00342Z" fill="white"/>
</mask>
<g mask="url(#mask1_604_4093)">
<path fill-rule="evenodd" clip-rule="evenodd" d="M35.0548 7.4631H25.3853C25.0597 7.4631 24.7953 7.2007 24.7953 6.87318C24.7953 6.54764 25.0597 6.28326 25.3853 6.28326H35.0548C35.3804 6.28326 35.6447 6.54764 35.6447 6.87318C35.6447 7.2007 35.3804 7.4631 35.0548 7.4631ZM22.5205 1.21272V9.30981C22.5205 9.42227 22.6113 9.51105 22.7218 9.51105H23.9588C24.2863 9.51105 24.5487 9.77543 24.5487 10.1029V12.4784L28.2481 9.63338C28.3506 9.55248 28.4769 9.51105 28.6071 9.51105H37.7164C37.8288 9.51105 37.9176 9.42227 37.9176 9.30981V1.21272C37.9176 1.10026 37.8288 1.01147 37.7164 1.01147H22.7218C22.6093 1.01147 22.5205 1.09829 22.5205 1.21272ZM35.0548 4.23926H25.3853C25.0597 4.23926 24.7953 3.97488 24.7953 3.64737C24.7953 3.32183 25.0597 3.05745 25.3853 3.05745H35.0548C35.3804 3.05745 35.6447 3.31986 35.6447 3.64737C35.6447 3.97488 35.3804 4.23926 35.0548 4.23926Z" fill="white"/>
</g>
<path fill-rule="evenodd" clip-rule="evenodd" d="M14.0406 11.8193C10.3176 11.8193 7.29102 14.8459 7.29102 18.5689C7.29102 22.2899 10.3195 25.3184 14.0406 25.3184C17.7616 25.3184 20.7881 22.2899 20.7881 18.5689C20.7881 14.8459 17.7596 11.8193 14.0406 11.8193Z" fill="white"/>
<path fill-rule="evenodd" clip-rule="evenodd" d="M16.7872 26.4983L15.9092 29.3078L16.8286 37.9573H22.9902C23.8642 36.0909 25.2532 34.5125 26.9697 33.4018C25.7326 29.3137 21.9642 26.4963 17.6533 26.4963L16.7872 26.4983Z" fill="white"/>
<path fill-rule="evenodd" clip-rule="evenodd" d="M10.4246 26.4983C5.05809 26.4983 0.691895 30.8645 0.691895 36.229V37.9573H11.2513L12.1687 29.3078L11.2907 26.4983H10.4246Z" fill="white"/>
<path fill-rule="evenodd" clip-rule="evenodd" d="M13.2987 29.8386L12.4385 37.9574H15.6406L14.7804 29.8386H13.2987Z" fill="white"/>
<path fill-rule="evenodd" clip-rule="evenodd" d="M12.5254 26.4983L13.2021 28.6607H14.8752L15.5519 26.4983H12.5254Z" fill="white"/>
<mask id="mask2_604_4093" style="mask-type:luminance" maskUnits="userSpaceOnUse" x="22" y="32" width="28" height="13">
<path d="M22.915 32.6582H49.9389V44.2376H22.915V32.6582Z" fill="white"/>
</mask>
<g mask="url(#mask2_604_4093)">
<path fill-rule="evenodd" clip-rule="evenodd" d="M32.8728 32.8416C27.5063 32.8416 23.1401 37.2077 23.1401 42.5723V44.3006H49.8345V42.5723C49.8345 37.2077 45.4683 32.8416 40.1018 32.8416H32.8728Z" fill="white"/>
</g>
<path fill-rule="evenodd" clip-rule="evenodd" d="M36.4878 18.1646C32.7648 18.1646 29.7383 21.1911 29.7383 24.9141C29.7383 28.6371 32.7648 31.6636 36.4859 31.6636H36.4898C40.2108 31.6636 43.2374 28.6371 43.2374 24.9141C43.2374 21.1911 40.2108 18.1646 36.4878 18.1646Z" fill="white"/>
<mask id="mask3_604_4093" style="mask-type:luminance" maskUnits="userSpaceOnUse" x="22" y="1" width="17" height="12">
<path d="M22.4102 1.00342H38.0677V12.9596H22.4102V1.00342Z" fill="white"/>
</mask>
<g mask="url(#mask3_604_4093)">
<path fill-rule="evenodd" clip-rule="evenodd" d="M35.0548 7.4631H25.3853C25.0597 7.4631 24.7953 7.2007 24.7953 6.87318C24.7953 6.54764 25.0597 6.28326 25.3853 6.28326H35.0548C35.3804 6.28326 35.6447 6.54764 35.6447 6.87318C35.6447 7.2007 35.3804 7.4631 35.0548 7.4631ZM22.5205 1.21272V9.30981C22.5205 9.42227 22.6113 9.51105 22.7218 9.51105H23.9588C24.2863 9.51105 24.5487 9.77543 24.5487 10.1029V12.4784L28.2481 9.63338C28.3506 9.55248 28.4769 9.51105 28.6071 9.51105H37.7164C37.8288 9.51105 37.9176 9.42227 37.9176 9.30981V1.21272C37.9176 1.10026 37.8288 1.01147 37.7164 1.01147H22.7218C22.6093 1.01147 22.5205 1.09829 22.5205 1.21272ZM35.0548 4.23926H25.3853C25.0597 4.23926 24.7953 3.97488 24.7953 3.64737C24.7953 3.32183 25.0597 3.05745 25.3853 3.05745H35.0548C35.3804 3.05745 35.6447 3.31986 35.6447 3.64737C35.6447 3.97488 35.3804 4.23926 35.0548 4.23926Z" fill="white"/>
</g>
<path fill-rule="evenodd" clip-rule="evenodd" d="M14.0406 11.8193C10.3176 11.8193 7.29102 14.8459 7.29102 18.5689C7.29102 22.2899 10.3195 25.3184 14.0406 25.3184C17.7616 25.3184 20.7881 22.2899 20.7881 18.5689C20.7881 14.8459 17.7596 11.8193 14.0406 11.8193Z" fill="white"/>
<path fill-rule="evenodd" clip-rule="evenodd" d="M16.7872 26.4983L15.9092 29.3078L16.8286 37.9573H22.9902C23.8642 36.0909 25.2532 34.5125 26.9697 33.4018C25.7326 29.3137 21.9642 26.4963 17.6533 26.4963L16.7872 26.4983Z" fill="white"/>
<path fill-rule="evenodd" clip-rule="evenodd" d="M10.4246 26.4983C5.05809 26.4983 0.691895 30.8645 0.691895 36.229V37.9573H11.2513L12.1687 29.3078L11.2907 26.4983H10.4246Z" fill="white"/>
<path fill-rule="evenodd" clip-rule="evenodd" d="M13.2987 29.8386L12.4385 37.9574H15.6406L14.7804 29.8386H13.2987Z" fill="white"/>
<path fill-rule="evenodd" clip-rule="evenodd" d="M12.5254 26.4983L13.2021 28.6607H14.8752L15.5519 26.4983H12.5254Z" fill="white"/>
</g>
<defs>
<clipPath id="clip0_604_4093">
<rect width="49.6243" height="43.9421" fill="white" transform="translate(0.691895 0.837891)"/>
</clipPath>
</defs>
</svg>
