<svg width="47" height="46" viewBox="0 0 47 46" fill="none" xmlns="http://www.w3.org/2000/svg">
<g clip-path="url(#clip0_604_3995)">
<path fill-rule="evenodd" clip-rule="evenodd" d="M42.7851 44.5668L45.9892 41.2647C46.5519 40.6847 46.5379 39.7502 45.958 39.1875L37.083 30.5756C36.5036 30.0129 35.5685 30.0269 35.0059 30.6068L34.807 30.8116L29.7672 25.8657C31.6008 23.2447 32.6771 20.0547 32.6771 16.6134C32.6771 7.6878 25.4416 0.452881 16.5165 0.452881C7.59142 0.452881 0.355957 7.68834 0.355957 16.6134C0.355957 22.6152 3.62795 27.8528 8.48555 30.6397C8.91563 29.7715 9.48261 28.9824 10.1579 28.3017C5.88509 25.9718 3.21295 21.505 3.21295 16.6134C3.21295 9.26586 9.16948 3.30988 16.5165 3.30988C23.8635 3.30988 29.8201 9.26586 29.8201 16.6134C29.8201 21.505 27.1485 25.9718 22.8751 28.3017C23.5509 28.9824 24.1174 29.7715 24.5475 30.6397C25.4297 30.1336 26.2597 29.5462 27.0272 28.8881L31.9683 33.7371L31.8018 33.909C31.2391 34.4889 31.2531 35.424 31.8331 35.9861L40.7075 44.5981C41.2874 45.1608 42.2225 45.1468 42.7851 44.5668ZM16.5165 27.1877C20.6158 27.1877 23.9395 30.5109 23.9395 34.6102C23.9395 38.7095 20.6158 42.0327 16.5165 42.0327C12.4172 42.0327 9.09403 38.7095 9.09403 34.6102C9.09403 30.5109 12.4172 27.1877 16.5165 27.1877ZM15.5415 35.265L19.1509 31.6195C19.5783 31.1884 20.2752 31.1868 20.7053 31.6147C21.1353 32.0426 21.137 32.7373 20.7101 33.1685C19.2463 34.6452 17.7928 36.1322 16.3225 37.6025C15.8924 38.0326 15.1955 38.0326 14.7654 37.6025L12.3261 35.1632C11.896 34.7336 11.896 34.0362 12.3261 33.6067C12.7562 33.1766 13.4531 33.1766 13.8832 33.6067L15.5415 35.265ZM16.5165 8.01064C18.9612 8.01064 20.9429 9.99237 20.9429 12.4365C20.9429 14.8812 18.9612 16.863 16.5165 16.863C14.0718 16.863 12.0901 14.8812 12.0901 12.4365C12.0906 9.99237 14.0723 8.01064 16.5165 8.01064ZM7.96492 24.6983C5.97078 22.5899 4.7479 19.7448 4.7479 16.6134C4.7479 10.1136 10.0167 4.84428 16.5165 4.84428C23.0163 4.84428 28.2851 10.1136 28.2851 16.6134C28.2851 19.7448 27.0622 22.5899 25.0681 24.6983C24.1907 20.6847 20.6239 17.8223 16.5165 17.8223C12.4091 17.8223 8.84233 20.6847 7.96492 24.6983Z" fill="white"/>
<path fill-rule="evenodd" clip-rule="evenodd" d="M42.7851 44.5668L45.9892 41.2647C46.5519 40.6847 46.5379 39.7502 45.958 39.1875L37.083 30.5756C36.5036 30.0129 35.5685 30.0269 35.0059 30.6068L34.807 30.8116L29.7672 25.8657C31.6008 23.2447 32.6771 20.0547 32.6771 16.6134C32.6771 7.6878 25.4416 0.452881 16.5165 0.452881C7.59142 0.452881 0.355957 7.68834 0.355957 16.6134C0.355957 22.6152 3.62795 27.8528 8.48555 30.6397C8.91563 29.7715 9.48261 28.9824 10.1579 28.3017C5.88509 25.9718 3.21295 21.505 3.21295 16.6134C3.21295 9.26586 9.16948 3.30988 16.5165 3.30988C23.8635 3.30988 29.8201 9.26586 29.8201 16.6134C29.8201 21.505 27.1485 25.9718 22.8751 28.3017C23.5509 28.9824 24.1174 29.7715 24.5475 30.6397C25.4297 30.1336 26.2597 29.5462 27.0272 28.8881L31.9683 33.7371L31.8018 33.909C31.2391 34.4889 31.2531 35.424 31.8331 35.9861L40.7075 44.5981C41.2874 45.1608 42.2225 45.1468 42.7851 44.5668ZM16.5165 27.1877C20.6158 27.1877 23.9395 30.5109 23.9395 34.6102C23.9395 38.7095 20.6158 42.0327 16.5165 42.0327C12.4172 42.0327 9.09403 38.7095 9.09403 34.6102C9.09403 30.5109 12.4172 27.1877 16.5165 27.1877ZM15.5415 35.265L19.1509 31.6195C19.5783 31.1884 20.2752 31.1868 20.7053 31.6147C21.1353 32.0426 21.137 32.7373 20.7101 33.1685C19.2463 34.6452 17.7928 36.1322 16.3225 37.6025C15.8924 38.0326 15.1955 38.0326 14.7654 37.6025L12.3261 35.1632C11.896 34.7336 11.896 34.0362 12.3261 33.6067C12.7562 33.1766 13.4531 33.1766 13.8832 33.6067L15.5415 35.265ZM16.5165 8.01064C18.9612 8.01064 20.9429 9.99237 20.9429 12.4365C20.9429 14.8812 18.9612 16.863 16.5165 16.863C14.0718 16.863 12.0901 14.8812 12.0901 12.4365C12.0906 9.99237 14.0723 8.01064 16.5165 8.01064ZM7.96492 24.6983C5.97078 22.5899 4.7479 19.7448 4.7479 16.6134C4.7479 10.1136 10.0167 4.84428 16.5165 4.84428C23.0163 4.84428 28.2851 10.1136 28.2851 16.6134C28.2851 19.7448 27.0622 22.5899 25.0681 24.6983C24.1907 20.6847 20.6239 17.8223 16.5165 17.8223C12.4091 17.8223 8.84233 20.6847 7.96492 24.6983Z" fill="white"/>
</g>
<defs>
<clipPath id="clip0_604_3995">
<rect width="46.3587" height="44.703" fill="white" transform="translate(0.324707 0.457031)"/>
</clipPath>
</defs>
</svg>
