<svg width="33" height="41" viewBox="0 0 33 41" fill="none" xmlns="http://www.w3.org/2000/svg">
<g clip-path="url(#clip0_604_4033)">
<mask id="mask0_604_4033" style="mask-type:luminance" maskUnits="userSpaceOnUse" x="0" y="2" width="33" height="39">
<path d="M0.00439453 2.41382H32.8738V40.7891H0.00439453V2.41382Z" fill="white"/>
</mask>
<g mask="url(#mask0_604_4033)">
<path d="M21.9685 26.7899C21.9685 26.7899 19.7968 26.3284 20.8266 24.2899C22.0945 22.6849 22.8692 20.8639 22.9304 20.2684C22.9304 20.2684 24.8847 18.8197 24.998 16.6447C25.1209 14.4751 24.5711 14.3738 24.5711 14.3738C25.3917 12.0083 25.6579 3.12812 19.6051 4.18859C18.5942 2.32565 12.267 0.865386 9.31807 5.82777C7.84566 8.30221 7.2979 11.6804 8.44544 14.4365C8.4031 14.6419 8.03946 14.2354 7.90737 15.51C7.77936 16.7383 8.36689 18.4995 9.00645 19.3154C9.28339 19.6598 9.72761 19.911 10.0408 20.0393C10.0408 20.0393 10.4233 22.2278 12.2389 24.2899C12.6561 25.9262 10.9302 26.7899 10.9302 26.7899C5.21602 27.8248 -0.0366211 30.8114 -0.0366211 34.0425C-0.0366211 34.2807 -0.0366211 36.5449 -0.0366211 36.5449C-0.0366211 40.0513 8.63924 40.8032 16.446 40.8032C24.2549 40.8032 32.8726 38.6904 32.8726 36.5449C32.8726 36.5449 32.8726 34.2807 32.8726 34.0425C32.8711 30.8114 27.6796 27.8248 21.9685 26.7899ZM13.9694 39.2831C13.9694 35.1025 15.9156 32.2186 15.9156 32.2186L13.9189 31.1716C13.9189 30.265 16.4165 29.2166 16.4165 29.2166C16.4165 29.2166 18.8079 30.2172 18.8079 31.1716L16.9173 32.2186C16.9173 32.2186 18.8161 35.1039 18.8161 39.3217C18.8161 39.9057 13.9694 39.7702 13.9694 39.2831Z" fill="white"/>
<path d="M21.9685 26.7899C21.9685 26.7899 19.7968 26.3284 20.8266 24.2899C22.0945 22.6849 22.8692 20.8639 22.9304 20.2684C22.9304 20.2684 24.8847 18.8197 24.998 16.6447C25.1209 14.4751 24.5711 14.3738 24.5711 14.3738C25.3917 12.0083 25.6579 3.12812 19.6051 4.18859C18.5942 2.32565 12.267 0.865386 9.31807 5.82777C7.84566 8.30221 7.2979 11.6804 8.44544 14.4365C8.4031 14.6419 8.03946 14.2354 7.90737 15.51C7.77936 16.7383 8.36689 18.4995 9.00645 19.3154C9.28339 19.6598 9.72761 19.911 10.0408 20.0393C10.0408 20.0393 10.4233 22.2278 12.2389 24.2899C12.6561 25.9262 10.9302 26.7899 10.9302 26.7899C5.21602 27.8248 -0.0366211 30.8114 -0.0366211 34.0425C-0.0366211 34.2807 -0.0366211 36.5449 -0.0366211 36.5449C-0.0366211 40.0513 8.63924 40.8032 16.446 40.8032C24.2549 40.8032 32.8726 38.6904 32.8726 36.5449C32.8726 36.5449 32.8726 34.2807 32.8726 34.0425C32.8711 30.8114 27.6796 27.8248 21.9685 26.7899ZM13.9694 39.2831C13.9694 35.1025 15.9156 32.2186 15.9156 32.2186L13.9189 31.1716C13.9189 30.265 16.4165 29.2166 16.4165 29.2166C16.4165 29.2166 18.8079 30.2172 18.8079 31.1716L16.9173 32.2186C16.9173 32.2186 18.8161 35.1039 18.8161 39.3217C18.8161 39.9057 13.9694 39.7702 13.9694 39.2831Z" fill="white"/>
</g>
</g>
<defs>
<clipPath id="clip0_604_4033">
<rect width="33" height="40" fill="white" transform="translate(0.00439453 0.808838)"/>
</clipPath>
</defs>
</svg>
