<svg width="43" height="44" viewBox="0 0 43 44" fill="none" xmlns="http://www.w3.org/2000/svg">
<g clip-path="url(#clip0_604_4043)">
<mask id="mask0_604_4043" style="mask-type:luminance" maskUnits="userSpaceOnUse" x="32" y="15" width="11" height="13">
<path d="M32.373 15.2427H42.6692V27.5695H32.373V15.2427Z" fill="white"/>
</mask>
<g mask="url(#mask0_604_4043)">
<path d="M42.3393 25.3787L34.9567 15.9906C34.761 15.7403 34.4635 15.6086 34.1644 15.6086C33.9526 15.6086 33.7392 15.6745 33.5597 15.8109L32.5249 16.5942L41.4597 27.2582L42.1646 26.7253C42.37 26.5696 42.5026 26.3449 42.5349 26.0897C42.5689 25.8345 42.4993 25.5825 42.3393 25.3787Z" fill="white"/>
</g>
<path d="M28.7287 19.4656C28.5218 19.6229 28.3908 19.8492 28.3569 20.1044C28.3245 20.3596 28.3941 20.61 28.5541 20.8122L35.9351 30.2002C36.2714 30.6288 36.8971 30.709 37.3288 30.38L40.3297 28.1136L31.395 17.448L28.7287 19.4656Z" fill="white"/>
<path d="M22.0235 22.7432L19.1762 24.5762C17.8099 25.4558 17.2262 26.4894 17.6531 27.2711C17.9732 27.8585 18.8447 28.2277 19.7566 27.8361L22.6848 26.3947C22.9451 26.2663 23.2604 26.3113 23.477 26.5055L25.3073 28.1603L25.3138 28.1667C25.3154 28.1667 25.3154 28.1683 25.317 28.1683L31.2347 33.3944C33.0537 31.9563 33.4062 31.5775 34.1564 30.2276L27.613 21.9054C25.3105 21.6325 23.6339 21.7031 22.0235 22.7432Z" fill="white"/>
<path d="M16.0833 34.8501C16.3161 34.6447 16.405 34.3991 16.3484 34.1182C16.2805 33.7811 16.0121 33.4794 15.6823 33.3702C15.3217 33.2499 14.9272 33.367 14.5392 33.7057L14.0444 34.1487L13.8649 34.3092L13.7728 34.3927L13.5076 34.6302C13.43 34.7008 13.3491 34.7715 13.2715 34.8421C12.7186 35.3364 12.1915 35.8115 12.0605 35.9271C12.0508 35.9367 12.0427 35.9464 12.033 35.956C12.0104 35.9769 11.9716 36.0138 11.9053 36.0764C11.4978 36.4664 11.8002 37.0105 12.0169 37.2449C12.1947 37.4375 12.6701 37.8307 13.2182 37.3508L13.5949 37.0218L15.8909 35.017L16.0833 34.8501Z" fill="white"/>
<path d="M12.6275 33.521L12.7019 33.4536L13.0091 33.1791L13.596 32.6526L14.1312 32.1743C14.6162 31.7393 14.3834 31.2209 14.17 30.9834C14.0067 30.8036 13.7722 30.6736 13.4925 30.6736C13.2354 30.6736 12.9363 30.7827 12.6178 31.0636L9.57646 33.7489L9.5603 33.7617L9.55868 33.7633C9.55221 33.7681 9.54736 33.7746 9.54089 33.7794C9.31453 33.988 9.23207 34.2497 9.29675 34.5546C9.37759 34.9382 9.67994 35.2946 10.0163 35.4037C10.2669 35.484 10.5078 35.4181 10.7519 35.1999L12.482 33.651L12.6275 33.521Z" fill="white"/>
<path d="M17.0338 38.2945C17.0419 38.2864 17.0516 38.2768 17.0597 38.2688C17.0839 38.2463 17.1098 38.2238 17.1357 38.2046L17.1405 38.1998L18.3144 37.1468C18.7994 36.7119 18.5763 36.2063 18.3677 35.9735C18.0654 35.6381 17.5076 35.484 16.8463 36.0586C16.8414 36.0618 16.8366 36.065 16.8317 36.0698L14.8721 37.7808C14.8591 37.7937 14.8462 37.8049 14.8333 37.8178L14.5309 38.081C14.235 38.3394 14.117 38.6267 14.1801 38.9317C14.2496 39.2736 14.539 39.5881 14.8818 39.7005C15.1647 39.7936 15.4315 39.731 15.6708 39.5143L15.8907 39.3185C15.9004 39.3073 15.9101 39.2992 15.9198 39.2912C15.9247 39.2864 15.9311 39.2816 15.936 39.2768L17.0322 38.2961L17.0338 38.2945Z" fill="white"/>
<path d="M18.3787 39.0523C18.3754 39.0539 18.3722 39.0555 18.369 39.0571C18.2768 39.1037 18.1798 39.1695 18.0811 39.2529L16.8442 40.362L16.8362 40.3684C16.3915 40.8018 16.7683 41.2464 16.8151 41.2962C17.0803 41.5899 17.5702 41.7199 18.1491 41.2047L18.4821 40.9077L18.5161 40.8772L19.3504 40.1325C19.7643 39.7649 19.5363 39.3669 19.4555 39.2545C19.2647 38.9833 18.8799 38.7859 18.3787 39.0523Z" fill="white"/>
<mask id="mask1_604_4043" style="mask-type:luminance" maskUnits="userSpaceOnUse" x="0" y="15" width="11" height="13">
<path d="M0.552734 15.6536H10.8489V27.9804H0.552734V15.6536Z" fill="white"/>
</mask>
<g mask="url(#mask1_604_4043)">
<path d="M9.56393 16.1686C9.13061 15.8428 8.50488 15.923 8.16857 16.35L0.785976 25.738C0.627523 25.9402 0.556381 26.1938 0.590335 26.449C0.624289 26.7042 0.755255 26.9289 0.960597 27.0846L1.66717 27.6175L10.6003 16.9535L9.56393 16.1686Z" fill="white"/>
</g>
<path d="M14.7688 20.4637C14.7348 20.2085 14.6039 19.9822 14.3969 19.8249L11.7307 17.8074L2.7959 28.4714L5.79518 30.7394C6.18808 31.0379 6.74266 30.9994 7.0919 30.6671C7.12748 30.635 7.15981 30.5997 7.19215 30.5596L14.5715 21.1716C14.7316 20.9693 14.8011 20.719 14.7688 20.4637Z" fill="white"/>
<mask id="mask2_604_4043" style="mask-type:luminance" maskUnits="userSpaceOnUse" x="8" y="22" width="24" height="21">
<path d="M8.36621 22.2278H31.5456V42.6715H8.36621V22.2278Z" fill="white"/>
</mask>
<g mask="url(#mask2_604_4043)">
<path d="M30.7385 34.8403L24.3648 29.2113C24.3632 29.2097 24.36 29.2081 24.3584 29.2065L22.8806 27.8711L20.3712 29.1054C20.3615 29.1102 20.3518 29.115 20.3421 29.1182C19.9055 29.3108 19.448 29.4007 19.0017 29.4007C17.9249 29.4007 16.9111 28.8711 16.405 27.9401C15.7696 26.7748 15.962 24.9676 18.4035 23.3962L19.3154 22.8087L15.5351 22.2341L8.47754 31.2112L9.20189 32.1951L11.6773 30.0107C13.0242 28.8245 14.4615 29.1969 15.2263 30.0444C15.6758 30.5419 15.9248 31.253 15.8068 31.9512C15.9167 31.972 16.0251 31.9977 16.1334 32.0346C16.9418 32.3043 17.5708 33.0137 17.7389 33.8403C17.768 33.9816 17.7826 34.1228 17.7826 34.2609C18.4423 34.2833 19.0276 34.5931 19.4253 35.0345C20.0349 35.7118 20.2677 36.792 19.6921 37.6941C20.0785 37.8626 20.3987 38.1339 20.6186 38.4469C21.2427 39.3312 21.1117 40.4548 20.3 41.1803L20.03 41.4194L21.0826 42.3985C21.4949 42.7805 22.1109 42.7885 22.4844 42.4178C22.727 42.1754 22.887 41.8367 22.8822 41.5735C22.8806 41.4194 22.8224 41.3456 22.7738 41.2991L22.7674 41.2942L21.9492 40.5302C21.6647 40.2638 21.6501 39.8176 21.9185 39.5351C22.1885 39.251 22.6364 39.2382 22.9226 39.5046L23.993 40.5045C24.3616 40.848 25.0552 41.3456 25.5775 40.8111C25.8669 40.5174 25.9979 39.9829 25.7958 39.6426L25.6777 39.5222C25.6438 39.4869 25.6147 39.4516 25.5904 39.4131L23.8927 37.7262C23.6162 37.4501 23.6178 37.0039 23.8943 36.7294C24.1708 36.455 24.6203 36.455 24.8968 36.7294L26.7109 38.5335C26.7788 38.6009 26.8403 38.6716 26.8936 38.7438C27.065 38.9027 27.3075 38.9926 27.5695 38.9958H27.5824C27.8702 38.9958 28.1402 38.8915 28.3229 38.7101C28.5089 38.5255 28.6107 38.2767 28.6091 38.0119C28.6091 37.7856 28.5315 37.5737 28.3908 37.4052C28.3908 37.4036 28.3892 37.402 28.3876 37.402C28.3682 37.3795 28.3456 37.3586 28.3262 37.3362L28.3148 37.3233L26.3196 35.3828C26.0415 35.1099 26.0367 34.6637 26.3099 34.3877C26.5848 34.11 27.0343 34.1052 27.314 34.378L29.3221 36.3314C29.3496 36.3587 29.3771 36.3876 29.4046 36.4165C29.4062 36.4181 29.4062 36.4197 29.4078 36.4213C29.9091 36.9413 30.4572 37.1724 30.918 37.0537C31.2171 36.9782 31.437 36.7567 31.5098 36.4614C31.6294 35.9702 31.3497 35.378 30.7385 34.8403Z" fill="white"/>
</g>
<path d="M21.6498 17.5845C26.295 17.5845 30.0736 13.8334 30.0736 9.2237C30.0736 4.61236 26.295 0.861328 21.6498 0.861328C17.0061 0.861328 13.2275 4.61236 13.2275 9.2237C13.2275 13.8334 17.0061 17.5845 21.6498 17.5845ZM16.2317 8.72452C16.5082 8.45006 16.9576 8.45006 17.2341 8.72452L19.5947 11.0695L26.1253 5.88357C26.4308 5.6412 26.8771 5.69096 27.1212 5.99432C27.367 6.29767 27.3169 6.74067 27.0113 6.98303L19.986 12.5622C19.8567 12.665 19.6998 12.7163 19.543 12.7163C19.3603 12.7163 19.1792 12.6473 19.0418 12.5109L16.2317 9.72127C15.9536 9.4452 15.9536 8.99899 16.2317 8.72452Z" fill="white"/>
<mask id="mask3_604_4043" style="mask-type:luminance" maskUnits="userSpaceOnUse" x="32" y="15" width="11" height="13">
<path d="M32.373 15.2427H42.6692V27.5695H32.373V15.2427Z" fill="white"/>
</mask>
<g mask="url(#mask3_604_4043)">
<path d="M42.3393 25.3787L34.9567 15.9906C34.761 15.7403 34.4635 15.6086 34.1644 15.6086C33.9526 15.6086 33.7392 15.6745 33.5597 15.8109L32.5249 16.5942L41.4597 27.2582L42.1646 26.7253C42.37 26.5696 42.5026 26.3449 42.5349 26.0897C42.5689 25.8345 42.4993 25.5825 42.3393 25.3787Z" fill="white"/>
</g>
<path d="M28.7287 19.4656C28.5218 19.6229 28.3908 19.8492 28.3569 20.1044C28.3245 20.3596 28.3941 20.61 28.5541 20.8122L35.9351 30.2002C36.2714 30.6288 36.8971 30.709 37.3288 30.38L40.3297 28.1136L31.395 17.448L28.7287 19.4656Z" fill="white"/>
<path d="M22.0235 22.7432L19.1762 24.5762C17.8099 25.4558 17.2262 26.4894 17.6531 27.2711C17.9732 27.8585 18.8447 28.2277 19.7566 27.8361L22.6848 26.3947C22.9451 26.2663 23.2604 26.3113 23.477 26.5055L25.3073 28.1603L25.3138 28.1667C25.3154 28.1667 25.3154 28.1683 25.317 28.1683L31.2347 33.3944C33.0537 31.9563 33.4062 31.5775 34.1564 30.2276L27.613 21.9054C25.3105 21.6325 23.6339 21.7031 22.0235 22.7432Z" fill="white"/>
<path d="M16.0833 34.8501C16.3161 34.6447 16.405 34.3991 16.3484 34.1182C16.2805 33.7811 16.0121 33.4794 15.6823 33.3702C15.3217 33.2499 14.9272 33.367 14.5392 33.7057L14.0444 34.1487L13.8649 34.3092L13.7728 34.3927L13.5076 34.6302C13.43 34.7008 13.3491 34.7715 13.2715 34.8421C12.7186 35.3364 12.1915 35.8115 12.0605 35.9271C12.0508 35.9367 12.0427 35.9464 12.033 35.956C12.0104 35.9769 11.9716 36.0138 11.9053 36.0764C11.4978 36.4664 11.8002 37.0105 12.0169 37.2449C12.1947 37.4375 12.6701 37.8307 13.2182 37.3508L13.5949 37.0218L15.8909 35.017L16.0833 34.8501Z" fill="white"/>
<path d="M12.6275 33.521L12.7019 33.4536L13.0091 33.1791L13.596 32.6526L14.1312 32.1743C14.6162 31.7393 14.3834 31.2209 14.17 30.9834C14.0067 30.8036 13.7722 30.6736 13.4925 30.6736C13.2354 30.6736 12.9363 30.7827 12.6178 31.0636L9.57646 33.7489L9.5603 33.7617L9.55868 33.7633C9.55221 33.7681 9.54736 33.7746 9.54089 33.7794C9.31453 33.988 9.23207 34.2497 9.29675 34.5546C9.37759 34.9382 9.67994 35.2946 10.0163 35.4037C10.2669 35.484 10.5078 35.4181 10.7519 35.1999L12.482 33.651L12.6275 33.521Z" fill="white"/>
<path d="M17.0338 38.2945C17.0419 38.2864 17.0516 38.2768 17.0597 38.2688C17.0839 38.2463 17.1098 38.2238 17.1357 38.2046L17.1405 38.1998L18.3144 37.1468C18.7994 36.7119 18.5763 36.2063 18.3677 35.9735C18.0654 35.6381 17.5076 35.484 16.8463 36.0586C16.8414 36.0618 16.8366 36.065 16.8317 36.0698L14.8721 37.7808C14.8591 37.7937 14.8462 37.8049 14.8333 37.8178L14.5309 38.081C14.235 38.3394 14.117 38.6267 14.1801 38.9317C14.2496 39.2736 14.539 39.5881 14.8818 39.7005C15.1647 39.7936 15.4315 39.731 15.6708 39.5143L15.8907 39.3185C15.9004 39.3073 15.9101 39.2992 15.9198 39.2912C15.9247 39.2864 15.9311 39.2816 15.936 39.2768L17.0322 38.2961L17.0338 38.2945Z" fill="white"/>
<path d="M18.3787 39.0523C18.3754 39.0539 18.3722 39.0555 18.369 39.0571C18.2768 39.1037 18.1798 39.1695 18.0811 39.2529L16.8442 40.362L16.8362 40.3684C16.3915 40.8018 16.7683 41.2464 16.8151 41.2962C17.0803 41.5899 17.5702 41.7199 18.1491 41.2047L18.4821 40.9077L18.5161 40.8772L19.3504 40.1325C19.7643 39.7649 19.5363 39.3669 19.4555 39.2545C19.2647 38.9833 18.8799 38.7859 18.3787 39.0523Z" fill="white"/>
<mask id="mask4_604_4043" style="mask-type:luminance" maskUnits="userSpaceOnUse" x="0" y="15" width="11" height="13">
<path d="M0.552734 15.6536H10.8489V27.9804H0.552734V15.6536Z" fill="white"/>
</mask>
<g mask="url(#mask4_604_4043)">
<path d="M9.56393 16.1686C9.13061 15.8428 8.50488 15.923 8.16857 16.35L0.785976 25.738C0.627523 25.9402 0.556381 26.1938 0.590335 26.449C0.624289 26.7042 0.755255 26.9289 0.960597 27.0846L1.66717 27.6175L10.6003 16.9535L9.56393 16.1686Z" fill="white"/>
</g>
<path d="M14.7688 20.4637C14.7348 20.2085 14.6039 19.9822 14.3969 19.8249L11.7307 17.8074L2.7959 28.4714L5.79518 30.7394C6.18808 31.0379 6.74266 30.9994 7.0919 30.6671C7.12748 30.635 7.15981 30.5997 7.19215 30.5596L14.5715 21.1716C14.7316 20.9693 14.8011 20.719 14.7688 20.4637Z" fill="white"/>
<mask id="mask5_604_4043" style="mask-type:luminance" maskUnits="userSpaceOnUse" x="8" y="22" width="24" height="21">
<path d="M8.36621 22.2278H31.5456V42.6715H8.36621V22.2278Z" fill="white"/>
</mask>
<g mask="url(#mask5_604_4043)">
<path d="M30.7385 34.8403L24.3648 29.2113C24.3632 29.2097 24.36 29.2081 24.3584 29.2065L22.8806 27.8711L20.3712 29.1054C20.3615 29.1102 20.3518 29.115 20.3421 29.1182C19.9055 29.3108 19.448 29.4007 19.0017 29.4007C17.9249 29.4007 16.9111 28.8711 16.405 27.9401C15.7696 26.7748 15.962 24.9676 18.4035 23.3962L19.3154 22.8087L15.5351 22.2341L8.47754 31.2112L9.20189 32.1951L11.6773 30.0107C13.0242 28.8245 14.4615 29.1969 15.2263 30.0444C15.6758 30.5419 15.9248 31.253 15.8068 31.9512C15.9167 31.972 16.0251 31.9977 16.1334 32.0346C16.9418 32.3043 17.5708 33.0137 17.7389 33.8403C17.768 33.9816 17.7826 34.1228 17.7826 34.2609C18.4423 34.2833 19.0276 34.5931 19.4253 35.0345C20.0349 35.7118 20.2677 36.792 19.6921 37.6941C20.0785 37.8626 20.3987 38.1339 20.6186 38.4469C21.2427 39.3312 21.1117 40.4548 20.3 41.1803L20.03 41.4194L21.0826 42.3985C21.4949 42.7805 22.1109 42.7885 22.4844 42.4178C22.727 42.1754 22.887 41.8367 22.8822 41.5735C22.8806 41.4194 22.8224 41.3456 22.7738 41.2991L22.7674 41.2942L21.9492 40.5302C21.6647 40.2638 21.6501 39.8176 21.9185 39.5351C22.1885 39.251 22.6364 39.2382 22.9226 39.5046L23.993 40.5045C24.3616 40.848 25.0552 41.3456 25.5775 40.8111C25.8669 40.5174 25.9979 39.9829 25.7958 39.6426L25.6777 39.5222C25.6438 39.4869 25.6147 39.4516 25.5904 39.4131L23.8927 37.7262C23.6162 37.4501 23.6178 37.0039 23.8943 36.7294C24.1708 36.455 24.6203 36.455 24.8968 36.7294L26.7109 38.5335C26.7788 38.6009 26.8403 38.6716 26.8936 38.7438C27.065 38.9027 27.3075 38.9926 27.5695 38.9958H27.5824C27.8702 38.9958 28.1402 38.8915 28.3229 38.7101C28.5089 38.5255 28.6107 38.2767 28.6091 38.0119C28.6091 37.7856 28.5315 37.5737 28.3908 37.4052C28.3908 37.4036 28.3892 37.402 28.3876 37.402C28.3682 37.3795 28.3456 37.3586 28.3262 37.3362L28.3148 37.3233L26.3196 35.3828C26.0415 35.1099 26.0367 34.6637 26.3099 34.3877C26.5848 34.11 27.0343 34.1052 27.314 34.378L29.3221 36.3314C29.3496 36.3587 29.3771 36.3876 29.4046 36.4165C29.4062 36.4181 29.4062 36.4197 29.4078 36.4213C29.9091 36.9413 30.4572 37.1724 30.918 37.0537C31.2171 36.9782 31.437 36.7567 31.5098 36.4614C31.6294 35.9702 31.3497 35.378 30.7385 34.8403Z" fill="white"/>
</g>
<path d="M21.6498 17.5845C26.295 17.5845 30.0736 13.8334 30.0736 9.2237C30.0736 4.61236 26.295 0.861328 21.6498 0.861328C17.0061 0.861328 13.2275 4.61236 13.2275 9.2237C13.2275 13.8334 17.0061 17.5845 21.6498 17.5845ZM16.2317 8.72452C16.5082 8.45006 16.9576 8.45006 17.2341 8.72452L19.5947 11.0695L26.1253 5.88357C26.4308 5.6412 26.8771 5.69096 27.1212 5.99432C27.367 6.29767 27.3169 6.74067 27.0113 6.98303L19.986 12.5622C19.8567 12.665 19.6998 12.7163 19.543 12.7163C19.3603 12.7163 19.1792 12.6473 19.0418 12.5109L16.2317 9.72127C15.9536 9.4452 15.9536 8.99899 16.2317 8.72452Z" fill="white"/>
</g>
<defs>
<clipPath id="clip0_604_4043">
<rect width="42.2195" height="42.2195" fill="white" transform="translate(0.501465 0.861328)"/>
</clipPath>
</defs>
</svg>
