<svg width="41" height="45" viewBox="0 0 41 45" fill="none" xmlns="http://www.w3.org/2000/svg">
<g clip-path="url(#clip0_604_4001)">
<path fill-rule="evenodd" clip-rule="evenodd" d="M4.62451 27.0163C5.56245 25.0546 7.60997 23.7754 9.74128 23.7754H11.703L12.9822 26.7609H5.9037C5.47662 26.7609 5.05159 26.8467 4.62451 27.0163ZM12.8105 23.7754H13.2376C13.6647 25.0546 15.2831 26.0783 16.9035 26.0783C18.524 26.0783 20.0586 25.0546 20.4857 23.7754H20.9127L19.6336 26.7609H14.0897L12.8105 23.7754ZM22.0203 23.7754H23.982C26.1991 23.7754 28.1608 25.0546 29.0987 27.0163C28.7575 26.8467 28.3304 26.7609 27.9054 26.7609H20.7411L22.0203 23.7754Z" fill="white"/>
<path fill-rule="evenodd" clip-rule="evenodd" d="M16.9038 22.9234C13.7488 22.9234 11.2762 19.8541 10.3383 16.9545C10.2525 16.7849 10.3383 16.6132 10.4241 16.5274C11.0208 15.6753 11.1904 13.2027 11.2762 12.2648C11.2762 12.0932 11.362 11.9235 11.5317 11.8377C11.7871 11.7539 11.9587 11.8377 12.1283 12.0094C13.0663 13.0311 14.7725 13.544 17.0755 13.544C19.6339 13.544 22.1064 12.8615 22.1064 12.8615C22.276 12.8615 22.4477 12.8615 22.6173 12.9473C22.7031 13.1169 22.7889 13.2886 22.7889 13.4582C22.5335 15.6753 23.214 17.0403 23.214 17.0403C23.2998 17.2099 23.2998 17.3816 23.214 17.4653C22.1923 20.1954 19.8035 22.9234 16.9038 22.9234ZM11.362 16.8687C12.3 19.3433 14.3455 21.8996 16.9038 21.8996C19.2926 21.8996 21.2543 19.5987 22.1923 17.2957C22.0206 16.8687 21.6794 15.6753 21.6794 14.0548C20.7414 14.2265 18.9514 14.5678 17.0755 14.5678C15.028 14.5678 13.3237 14.1407 12.2142 13.3723C12.1283 14.3961 11.8729 15.9307 11.362 16.8687Z" fill="white"/>
<path fill-rule="evenodd" clip-rule="evenodd" d="M24.1523 15.8469C23.9827 15.8469 23.811 15.6752 23.7272 15.5894H23.5556C23.2143 15.5894 23.0447 15.334 23.0447 15.0786V14.3961C23.0447 10.9856 20.2309 8.25757 16.8204 8.25757C13.4079 8.25757 10.5941 10.9856 10.5941 14.3961V15.0786C10.5941 15.334 10.4245 15.5894 10.0832 15.5894H9.82779C9.57032 15.5894 9.40071 15.4198 9.31489 15.2482C8.29317 13.2885 7.35523 10.6443 8.29317 8.93804C8.7182 8.08592 9.48654 7.65884 10.6799 7.48924C13.0666 5.18629 15.5412 3.99292 18.0138 3.99292C20.5722 3.99292 22.9589 5.35794 24.3239 7.65884C25.8585 10.0476 25.9444 13.031 24.6652 15.5894C24.5794 15.7611 24.4097 15.8469 24.1523 15.8469ZM23.5556 15.5894H22.2764C22.021 15.5894 21.7655 15.334 21.7655 15.0786C21.6797 14.7373 21.6797 14.3961 21.6797 14.0548C20.7418 14.2264 18.9517 14.5677 17.0759 14.5677C15.0283 14.5677 13.3241 14.1406 12.2145 13.3723C12.1287 13.8852 12.0449 14.5677 11.9591 15.2482C11.8733 15.5056 11.6178 15.6752 11.3624 15.5894C11.2766 15.5894 11.2766 15.5894 11.1908 15.5894H10.0832C9.82779 15.5894 9.57032 15.334 9.57032 15.0786V14.3961C9.57032 10.4747 12.8112 7.23381 16.8204 7.23381C20.8276 7.23381 24.0685 10.4747 24.0685 14.3961V15.0786C24.0685 15.334 23.811 15.5894 23.5556 15.5894Z" fill="white"/>
<path fill-rule="evenodd" clip-rule="evenodd" d="M11.6171 19.0859H9.8271C9.31419 19.0859 8.88916 18.6609 8.88916 18.148V15.42C8.88916 14.9091 9.31419 14.5679 9.8271 14.5679H11.4475C11.703 14.5679 11.9584 14.7375 11.9584 15.0787C11.9584 15.3342 11.703 15.5896 11.4475 15.5896H10.9346C10.8488 15.9308 10.6792 16.1863 10.5934 16.3579C10.4238 16.6134 10.4238 16.785 10.4238 17.0404C10.5934 17.3817 10.6792 17.7229 10.8488 18.0642H11.6171C11.8726 18.0642 12.128 18.3196 12.128 18.575C12.128 18.8305 11.8726 19.0859 11.6171 19.0859Z" fill="white"/>
<path fill-rule="evenodd" clip-rule="evenodd" d="M23.8105 19.0859H22.1921C21.8508 19.0859 21.6792 18.8305 21.6792 18.575C21.6792 18.3196 21.8508 18.148 22.0205 18.0642C22.1921 17.6371 22.3617 17.0404 22.3617 17.0404C22.3617 16.9546 22.1921 16.1025 22.1921 15.5058C21.9346 15.5058 21.765 15.3342 21.765 15.0787C21.765 14.7375 21.9346 14.5679 22.2759 14.5679H23.8105C24.3234 14.5679 24.7505 14.9091 24.7505 15.42V18.148C24.7505 18.6609 24.3234 19.0859 23.8105 19.0859Z" fill="white"/>
<path fill-rule="evenodd" clip-rule="evenodd" d="M19.0372 19.8542C18.6101 19.8542 18.1831 19.8542 17.758 19.7684C17.4168 19.7684 17.2451 19.513 17.2451 19.2575C17.2451 19.0021 17.5005 18.7446 17.758 18.7446C21.5098 19.0021 23.0444 18.148 23.0444 18.148C23.2998 17.9784 23.5552 18.0642 23.7269 18.3196C23.8965 18.575 23.8107 18.9163 23.5552 19.0021C23.4715 19.0859 22.1065 19.8542 19.0372 19.8542Z" fill="white"/>
<path fill-rule="evenodd" clip-rule="evenodd" d="M16.8199 20.6204C15.9657 20.6204 15.2832 20.0237 15.2832 19.1716C15.2832 18.3195 15.9657 17.637 16.8199 17.637C17.5862 17.637 18.2687 18.3195 18.2687 19.1716C18.2687 20.0237 17.5862 20.6204 16.8199 20.6204Z" fill="white"/>
<mask id="mask0_604_4001" style="mask-type:luminance" maskUnits="userSpaceOnUse" x="0" y="40" width="35" height="5">
<path d="M0.102539 40.072H34.1053V44.3878H0.102539V40.072Z" fill="white"/>
</mask>
<g mask="url(#mask0_604_4001)">
<path fill-rule="evenodd" clip-rule="evenodd" d="M31.5714 44.4983H2.23784C1.04243 44.4983 0.104492 43.5604 0.104492 42.367C0.104492 41.1736 1.04243 40.2336 2.23784 40.2336H31.5714C32.6789 40.2336 33.6168 41.1736 33.6168 42.367C33.6168 43.5604 32.6789 44.4983 31.5714 44.4983Z" fill="white"/>
</g>
<path fill-rule="evenodd" clip-rule="evenodd" d="M3.9422 39.2118L3.09009 30.5987C3.00426 29.9162 3.25969 29.3195 3.7726 28.7228C4.28346 28.1262 5.05179 27.7849 5.9039 27.7849H27.9056C28.6719 27.7849 29.524 28.1262 30.0369 28.7228C30.5477 29.2337 30.7194 29.9162 30.7194 30.5987L29.8652 39.2118H18.7796V37.6772C20.1446 36.9947 21.0825 35.5438 21.0825 33.9234C21.0825 30.8542 17.7579 28.9783 17.7579 30.4271V33.4125H15.9658V30.4271C15.9658 30.0879 15.6245 29.8304 15.2833 30.002C11.7032 31.4508 11.9586 36.2263 14.9441 37.6772V39.2118H3.9422ZM17.7579 39.2118H15.9658V38.1022L16.9037 38.188L17.7579 38.0164V39.2118ZM15.5407 36.823C15.882 36.9089 16.307 37.2501 17.245 37.0785C17.5862 37.0785 17.9275 36.9089 18.1829 36.9089C20.3163 35.9709 20.9129 32.9017 18.7796 31.3671V33.9234C18.7796 34.1809 18.61 34.4363 18.2687 34.4363H15.4549C15.1995 34.4363 14.9441 34.1809 14.9441 33.9234V31.3671C12.8965 32.9017 13.4932 35.9709 15.5407 36.823Z" fill="white"/>
<path fill-rule="evenodd" clip-rule="evenodd" d="M28.5018 14.3961C28.416 14.3961 28.3301 14.3961 28.2443 14.3961C28.0747 14.3103 27.9889 14.0548 27.9889 13.8852V11.241H27.3922C26.7955 11.241 26.2847 10.7302 26.2847 10.1335V1.94543C26.2847 1.34875 26.7955 0.837891 27.3922 0.837891H39.757C40.3537 0.837891 40.8666 1.34875 40.8666 1.94543V10.1335C40.8666 10.7302 40.3537 11.241 39.757 11.241H32.7644L28.8431 14.3103C28.7572 14.3961 28.5856 14.3961 28.5018 14.3961ZM38.4779 3.82335H31.8265C31.571 3.82335 31.3156 3.56588 31.3156 3.31045C31.3156 3.05502 31.571 2.79959 31.8265 2.79959H38.4779C38.8191 2.79959 38.9908 3.05502 38.9908 3.31045C38.9908 3.56588 38.8191 3.82335 38.4779 3.82335ZM29.781 3.82335H28.6714C28.3301 3.82335 28.1605 3.56588 28.1605 3.31045C28.1605 3.05502 28.3301 2.79959 28.6714 2.79959H29.781C30.0364 2.79959 30.2918 3.05502 30.2918 3.31045C30.2918 3.56588 30.0364 3.82335 29.781 3.82335ZM38.4779 5.6134H37.3703C37.1128 5.6134 36.8574 5.44175 36.8574 5.10254C36.8574 4.84507 37.1128 4.58964 37.3703 4.58964H38.4779C38.8191 4.58964 38.9908 4.84507 38.9908 5.10254C38.9908 5.44175 38.8191 5.6134 38.4779 5.6134ZM35.3228 5.6134H28.6714C28.3301 5.6134 28.1605 5.44175 28.1605 5.10254C28.1605 4.84507 28.3301 4.58964 28.6714 4.58964H35.3228C35.5782 4.58964 35.8336 4.84507 35.8336 5.10254C35.8336 5.44175 35.5782 5.6134 35.3228 5.6134ZM38.4779 7.40345H31.8265C31.571 7.40345 31.3156 7.23385 31.3156 6.89259C31.3156 6.63716 31.571 6.37969 31.8265 6.37969H38.4779C38.8191 6.37969 38.9908 6.63716 38.9908 6.89259C38.9908 7.23385 38.8191 7.40345 38.4779 7.40345ZM29.781 7.40345H28.6714C28.3301 7.40345 28.1605 7.23385 28.1605 6.89259C28.1605 6.63716 28.3301 6.37969 28.6714 6.37969H29.781C30.0364 6.37969 30.2918 6.63716 30.2918 6.89259C30.2918 7.23385 30.0364 7.40345 29.781 7.40345ZM38.4779 9.27933H37.3703C37.1128 9.27933 36.8574 9.0239 36.8574 8.76847C36.8574 8.42721 37.1128 8.25761 37.3703 8.25761H38.4779C38.8191 8.25761 38.9908 8.42721 38.9908 8.76847C38.9908 9.0239 38.8191 9.27933 38.4779 9.27933ZM35.3228 9.27933H28.6714C28.3301 9.27933 28.1605 9.0239 28.1605 8.76847C28.1605 8.42721 28.3301 8.25761 28.6714 8.25761H35.3228C35.5782 8.25761 35.8336 8.42721 35.8336 8.76847C35.8336 9.0239 35.5782 9.27933 35.3228 9.27933Z" fill="white"/>
<path fill-rule="evenodd" clip-rule="evenodd" d="M4.62451 27.0163C5.56245 25.0546 7.60997 23.7754 9.74128 23.7754H11.703L12.9822 26.7609H5.9037C5.47662 26.7609 5.05159 26.8467 4.62451 27.0163ZM12.8105 23.7754H13.2376C13.6647 25.0546 15.2831 26.0783 16.9035 26.0783C18.524 26.0783 20.0586 25.0546 20.4857 23.7754H20.9127L19.6336 26.7609H14.0897L12.8105 23.7754ZM22.0203 23.7754H23.982C26.1991 23.7754 28.1608 25.0546 29.0987 27.0163C28.7575 26.8467 28.3304 26.7609 27.9054 26.7609H20.7411L22.0203 23.7754Z" fill="white"/>
<path fill-rule="evenodd" clip-rule="evenodd" d="M16.9038 22.9234C13.7488 22.9234 11.2762 19.8541 10.3383 16.9545C10.2525 16.7849 10.3383 16.6132 10.4241 16.5274C11.0208 15.6753 11.1904 13.2027 11.2762 12.2648C11.2762 12.0932 11.362 11.9235 11.5317 11.8377C11.7871 11.7539 11.9587 11.8377 12.1283 12.0094C13.0663 13.0311 14.7725 13.544 17.0755 13.544C19.6339 13.544 22.1064 12.8615 22.1064 12.8615C22.276 12.8615 22.4477 12.8615 22.6173 12.9473C22.7031 13.1169 22.7889 13.2886 22.7889 13.4582C22.5335 15.6753 23.214 17.0403 23.214 17.0403C23.2998 17.2099 23.2998 17.3816 23.214 17.4653C22.1923 20.1954 19.8035 22.9234 16.9038 22.9234ZM11.362 16.8687C12.3 19.3433 14.3455 21.8996 16.9038 21.8996C19.2926 21.8996 21.2543 19.5987 22.1923 17.2957C22.0206 16.8687 21.6794 15.6753 21.6794 14.0548C20.7414 14.2265 18.9514 14.5678 17.0755 14.5678C15.028 14.5678 13.3237 14.1407 12.2142 13.3723C12.1283 14.3961 11.8729 15.9307 11.362 16.8687Z" fill="white"/>
<path fill-rule="evenodd" clip-rule="evenodd" d="M24.1523 15.8469C23.9827 15.8469 23.811 15.6752 23.7272 15.5894H23.5556C23.2143 15.5894 23.0447 15.334 23.0447 15.0786V14.3961C23.0447 10.9856 20.2309 8.25757 16.8204 8.25757C13.4079 8.25757 10.5941 10.9856 10.5941 14.3961V15.0786C10.5941 15.334 10.4245 15.5894 10.0832 15.5894H9.82779C9.57032 15.5894 9.40071 15.4198 9.31489 15.2482C8.29317 13.2885 7.35523 10.6443 8.29317 8.93804C8.7182 8.08592 9.48654 7.65884 10.6799 7.48924C13.0666 5.18629 15.5412 3.99292 18.0138 3.99292C20.5722 3.99292 22.9589 5.35794 24.3239 7.65884C25.8585 10.0476 25.9444 13.031 24.6652 15.5894C24.5794 15.7611 24.4097 15.8469 24.1523 15.8469ZM23.5556 15.5894H22.2764C22.021 15.5894 21.7655 15.334 21.7655 15.0786C21.6797 14.7373 21.6797 14.3961 21.6797 14.0548C20.7418 14.2264 18.9517 14.5677 17.0759 14.5677C15.0283 14.5677 13.3241 14.1406 12.2145 13.3723C12.1287 13.8852 12.0449 14.5677 11.9591 15.2482C11.8733 15.5056 11.6178 15.6752 11.3624 15.5894C11.2766 15.5894 11.2766 15.5894 11.1908 15.5894H10.0832C9.82779 15.5894 9.57032 15.334 9.57032 15.0786V14.3961C9.57032 10.4747 12.8112 7.23381 16.8204 7.23381C20.8276 7.23381 24.0685 10.4747 24.0685 14.3961V15.0786C24.0685 15.334 23.811 15.5894 23.5556 15.5894Z" fill="white"/>
<path fill-rule="evenodd" clip-rule="evenodd" d="M11.6171 19.0859H9.8271C9.31419 19.0859 8.88916 18.6609 8.88916 18.148V15.42C8.88916 14.9091 9.31419 14.5679 9.8271 14.5679H11.4475C11.703 14.5679 11.9584 14.7375 11.9584 15.0787C11.9584 15.3342 11.703 15.5896 11.4475 15.5896H10.9346C10.8488 15.9308 10.6792 16.1863 10.5934 16.3579C10.4238 16.6134 10.4238 16.785 10.4238 17.0404C10.5934 17.3817 10.6792 17.7229 10.8488 18.0642H11.6171C11.8726 18.0642 12.128 18.3196 12.128 18.575C12.128 18.8305 11.8726 19.0859 11.6171 19.0859Z" fill="white"/>
<path fill-rule="evenodd" clip-rule="evenodd" d="M23.8105 19.0859H22.1921C21.8508 19.0859 21.6792 18.8305 21.6792 18.575C21.6792 18.3196 21.8508 18.148 22.0205 18.0642C22.1921 17.6371 22.3617 17.0404 22.3617 17.0404C22.3617 16.9546 22.1921 16.1025 22.1921 15.5058C21.9346 15.5058 21.765 15.3342 21.765 15.0787C21.765 14.7375 21.9346 14.5679 22.2759 14.5679H23.8105C24.3234 14.5679 24.7505 14.9091 24.7505 15.42V18.148C24.7505 18.6609 24.3234 19.0859 23.8105 19.0859Z" fill="white"/>
<path fill-rule="evenodd" clip-rule="evenodd" d="M19.0372 19.8542C18.6101 19.8542 18.1831 19.8542 17.758 19.7684C17.4168 19.7684 17.2451 19.513 17.2451 19.2575C17.2451 19.0021 17.5005 18.7446 17.758 18.7446C21.5098 19.0021 23.0444 18.148 23.0444 18.148C23.2998 17.9784 23.5552 18.0642 23.7269 18.3196C23.8965 18.575 23.8107 18.9163 23.5552 19.0021C23.4715 19.0859 22.1065 19.8542 19.0372 19.8542Z" fill="white"/>
<path fill-rule="evenodd" clip-rule="evenodd" d="M16.8199 20.6204C15.9657 20.6204 15.2832 20.0237 15.2832 19.1716C15.2832 18.3195 15.9657 17.637 16.8199 17.637C17.5862 17.637 18.2687 18.3195 18.2687 19.1716C18.2687 20.0237 17.5862 20.6204 16.8199 20.6204Z" fill="white"/>
<mask id="mask1_604_4001" style="mask-type:luminance" maskUnits="userSpaceOnUse" x="0" y="40" width="35" height="5">
<path d="M0.102539 40.072H34.1053V44.3878H0.102539V40.072Z" fill="white"/>
</mask>
<g mask="url(#mask1_604_4001)">
<path fill-rule="evenodd" clip-rule="evenodd" d="M31.5714 44.4983H2.23784C1.04243 44.4983 0.104492 43.5604 0.104492 42.367C0.104492 41.1736 1.04243 40.2336 2.23784 40.2336H31.5714C32.6789 40.2336 33.6168 41.1736 33.6168 42.367C33.6168 43.5604 32.6789 44.4983 31.5714 44.4983Z" fill="white"/>
</g>
<path fill-rule="evenodd" clip-rule="evenodd" d="M3.9422 39.2118L3.09009 30.5987C3.00426 29.9162 3.25969 29.3195 3.7726 28.7228C4.28346 28.1262 5.05179 27.7849 5.9039 27.7849H27.9056C28.6719 27.7849 29.524 28.1262 30.0369 28.7228C30.5477 29.2337 30.7194 29.9162 30.7194 30.5987L29.8652 39.2118H18.7796V37.6772C20.1446 36.9947 21.0825 35.5438 21.0825 33.9234C21.0825 30.8542 17.7579 28.9783 17.7579 30.4271V33.4125H15.9658V30.4271C15.9658 30.0879 15.6245 29.8304 15.2833 30.002C11.7032 31.4508 11.9586 36.2263 14.9441 37.6772V39.2118H3.9422ZM17.7579 39.2118H15.9658V38.1022L16.9037 38.188L17.7579 38.0164V39.2118ZM15.5407 36.823C15.882 36.9089 16.307 37.2501 17.245 37.0785C17.5862 37.0785 17.9275 36.9089 18.1829 36.9089C20.3163 35.9709 20.9129 32.9017 18.7796 31.3671V33.9234C18.7796 34.1809 18.61 34.4363 18.2687 34.4363H15.4549C15.1995 34.4363 14.9441 34.1809 14.9441 33.9234V31.3671C12.8965 32.9017 13.4932 35.9709 15.5407 36.823Z" fill="white"/>
<path fill-rule="evenodd" clip-rule="evenodd" d="M28.5018 14.3961C28.416 14.3961 28.3301 14.3961 28.2443 14.3961C28.0747 14.3103 27.9889 14.0548 27.9889 13.8852V11.241H27.3922C26.7955 11.241 26.2847 10.7302 26.2847 10.1335V1.94543C26.2847 1.34875 26.7955 0.837891 27.3922 0.837891H39.757C40.3537 0.837891 40.8666 1.34875 40.8666 1.94543V10.1335C40.8666 10.7302 40.3537 11.241 39.757 11.241H32.7644L28.8431 14.3103C28.7572 14.3961 28.5856 14.3961 28.5018 14.3961ZM38.4779 3.82335H31.8265C31.571 3.82335 31.3156 3.56588 31.3156 3.31045C31.3156 3.05502 31.571 2.79959 31.8265 2.79959H38.4779C38.8191 2.79959 38.9908 3.05502 38.9908 3.31045C38.9908 3.56588 38.8191 3.82335 38.4779 3.82335ZM29.781 3.82335H28.6714C28.3301 3.82335 28.1605 3.56588 28.1605 3.31045C28.1605 3.05502 28.3301 2.79959 28.6714 2.79959H29.781C30.0364 2.79959 30.2918 3.05502 30.2918 3.31045C30.2918 3.56588 30.0364 3.82335 29.781 3.82335ZM38.4779 5.6134H37.3703C37.1128 5.6134 36.8574 5.44175 36.8574 5.10254C36.8574 4.84507 37.1128 4.58964 37.3703 4.58964H38.4779C38.8191 4.58964 38.9908 4.84507 38.9908 5.10254C38.9908 5.44175 38.8191 5.6134 38.4779 5.6134ZM35.3228 5.6134H28.6714C28.3301 5.6134 28.1605 5.44175 28.1605 5.10254C28.1605 4.84507 28.3301 4.58964 28.6714 4.58964H35.3228C35.5782 4.58964 35.8336 4.84507 35.8336 5.10254C35.8336 5.44175 35.5782 5.6134 35.3228 5.6134ZM38.4779 7.40345H31.8265C31.571 7.40345 31.3156 7.23385 31.3156 6.89259C31.3156 6.63716 31.571 6.37969 31.8265 6.37969H38.4779C38.8191 6.37969 38.9908 6.63716 38.9908 6.89259C38.9908 7.23385 38.8191 7.40345 38.4779 7.40345ZM29.781 7.40345H28.6714C28.3301 7.40345 28.1605 7.23385 28.1605 6.89259C28.1605 6.63716 28.3301 6.37969 28.6714 6.37969H29.781C30.0364 6.37969 30.2918 6.63716 30.2918 6.89259C30.2918 7.23385 30.0364 7.40345 29.781 7.40345ZM38.4779 9.27933H37.3703C37.1128 9.27933 36.8574 9.0239 36.8574 8.76847C36.8574 8.42721 37.1128 8.25761 37.3703 8.25761H38.4779C38.8191 8.25761 38.9908 8.42721 38.9908 8.76847C38.9908 9.0239 38.8191 9.27933 38.4779 9.27933ZM35.3228 9.27933H28.6714C28.3301 9.27933 28.1605 9.0239 28.1605 8.76847C28.1605 8.42721 28.3301 8.25761 28.6714 8.25761H35.3228C35.5782 8.25761 35.8336 8.42721 35.8336 8.76847C35.8336 9.0239 35.5782 9.27933 35.3228 9.27933Z" fill="white"/>
</g>
<defs>
<clipPath id="clip0_604_4001">
<rect width="40.8033" height="43.9421" fill="white" transform="translate(0.102539 0.837891)"/>
</clipPath>
</defs>
</svg>
