<svg width="40" height="51" viewBox="0 0 40 51" fill="none" xmlns="http://www.w3.org/2000/svg">
<g clip-path="url(#clip0_534_36203)">
<mask id="mask0_534_36203" style="mask-type:luminance" maskUnits="userSpaceOnUse" x="6" y="31" width="34" height="20">
<path d="M6.10156 31.4814H39.9628V50.9748H6.10156V31.4814Z" fill="white"/>
</mask>
<g mask="url(#mask0_534_36203)">
<path fill-rule="evenodd" clip-rule="evenodd" d="M31.5311 31.6082V37.0535H21.5452V42.492H11.5708V47.9361H6.15234V50.9133H14.5346V45.4649H24.5058V40.0307H34.4918V34.5854H39.9133V31.6082H31.5311Z" fill="#C8C8C8"/>
</g>
<path d="M9.49856 22.8332L9.64702 22.9193C9.95799 23.4911 10.5518 23.7893 11.1664 23.7985L11.2367 23.8391C11.3589 23.9123 11.3919 24.0439 11.3216 24.1625L10.9373 24.8395L8.78986 23.5938L9.17781 22.9193C9.25907 22.7778 9.37698 22.7619 9.49856 22.8332ZM16.211 10.1932C15.8518 10.1932 15.4969 10.3002 15.2018 10.5093L10.2164 13.8573C9.72095 14.1887 9.42586 14.7464 9.42586 15.3483V21.62C8.91877 21.6059 8.41657 21.8543 8.14653 22.3234L7.75797 22.9967L5.22376 21.5247C4.71361 21.2259 4.06295 21.4018 3.76664 21.9146L0.378326 27.8161C0.0826266 28.3338 0.256747 28.9844 0.769943 29.2795L10.0502 34.6695C10.5604 34.9677 11.211 34.7937 11.5061 34.2809L14.8951 28.3744C15.1914 27.861 15.0173 27.2062 14.5071 26.9104L11.9643 25.4384L12.3529 24.7614C12.6003 24.3304 12.5893 23.8139 12.3749 23.3939C12.7445 23.0914 12.9956 22.629 12.9877 21.989V16.3094L14.6806 15.1719V23.5679C14.6806 24.2861 15.0729 24.9428 15.704 25.2779L22.9626 29.1399L25.4529 34.0909C26.566 36.5356 30.1877 34.6885 28.8833 32.3434L26.1188 26.8495C25.938 26.4923 25.6575 26.2039 25.3026 26.017L20.6196 23.5157V12.1295C20.6239 11.0633 19.7588 10.1932 18.6976 10.1932H16.211Z" fill="#C8C8C8"/>
<path d="M21.7383 17.6376L26.6167 19.176C28.7086 19.837 27.7219 22.9894 25.6294 22.3272L21.7383 21.0962V17.6376Z" fill="#C8C8C8"/>
<path d="M16.7734 27.1398L20.6212 29.1811V31.6037C20.6212 31.9401 20.5363 32.2703 20.3664 32.5629L16.6629 39.0566C15.3841 41.2911 12.0471 39.3665 13.3259 37.1278L16.7734 31.0873V27.1398Z" fill="#C8C8C8"/>
<path fill-rule="evenodd" clip-rule="evenodd" d="M21.2493 2.72997C22.3319 4.72892 21.5706 7.23084 19.5417 8.3247C17.5164 9.41548 14.9925 8.67702 13.9093 6.68545C12.8225 4.68834 13.5843 2.18643 15.609 1.09503C17.6422 -0.00129139 20.1618 0.738401 21.2493 2.72997Z" fill="#C8C8C8"/>
<mask id="mask1_534_36203" style="mask-type:luminance" maskUnits="userSpaceOnUse" x="6" y="31" width="34" height="20">
<path d="M6.10156 31.4814H39.9628V50.9748H6.10156V31.4814Z" fill="white"/>
</mask>
<g mask="url(#mask1_534_36203)">
<path fill-rule="evenodd" clip-rule="evenodd" d="M31.5311 31.6082V37.0535H21.5452V42.492H11.5708V47.9361H6.15234V50.9133H14.5346V45.4649H24.5058V40.0307H34.4918V34.5854H39.9133V31.6082H31.5311Z" fill="#C8C8C8"/>
</g>
<path d="M9.49856 22.8332L9.64702 22.9193C9.95799 23.4911 10.5518 23.7893 11.1664 23.7985L11.2367 23.8391C11.3589 23.9123 11.3919 24.0439 11.3216 24.1625L10.9373 24.8395L8.78986 23.5938L9.17781 22.9193C9.25907 22.7778 9.37698 22.7619 9.49856 22.8332ZM16.211 10.1932C15.8518 10.1932 15.4969 10.3002 15.2018 10.5093L10.2164 13.8573C9.72095 14.1887 9.42586 14.7464 9.42586 15.3483V21.62C8.91877 21.6059 8.41657 21.8543 8.14653 22.3234L7.75797 22.9967L5.22376 21.5247C4.71361 21.2259 4.06295 21.4018 3.76664 21.9146L0.378326 27.8161C0.0826266 28.3338 0.256747 28.9844 0.769943 29.2795L10.0502 34.6695C10.5604 34.9677 11.211 34.7937 11.5061 34.2809L14.8951 28.3744C15.1914 27.861 15.0173 27.2062 14.5071 26.9104L11.9643 25.4384L12.3529 24.7614C12.6003 24.3304 12.5893 23.8139 12.3749 23.3939C12.7445 23.0914 12.9956 22.629 12.9877 21.989V16.3094L14.6806 15.1719V23.5679C14.6806 24.2861 15.0729 24.9428 15.704 25.2779L22.9626 29.1399L25.4529 34.0909C26.566 36.5356 30.1877 34.6885 28.8833 32.3434L26.1188 26.8495C25.938 26.4923 25.6575 26.2039 25.3026 26.017L20.6196 23.5157V12.1295C20.6239 11.0633 19.7588 10.1932 18.6976 10.1932H16.211Z" fill="#C8C8C8"/>
<path d="M21.7383 17.6376L26.6167 19.176C28.7086 19.837 27.7219 22.9894 25.6294 22.3272L21.7383 21.0962V17.6376Z" fill="#C8C8C8"/>
<path d="M16.7734 27.1398L20.6212 29.1811V31.6037C20.6212 31.9401 20.5363 32.2703 20.3664 32.5629L16.6629 39.0566C15.3841 41.2911 12.0471 39.3665 13.3259 37.1278L16.7734 31.0873V27.1398Z" fill="#C8C8C8"/>
<path fill-rule="evenodd" clip-rule="evenodd" d="M21.2493 2.72997C22.3319 4.72892 21.5706 7.23084 19.5417 8.3247C17.5164 9.41548 14.9925 8.67702 13.9093 6.68545C12.8225 4.68834 13.5843 2.18643 15.609 1.09503C17.6422 -0.00129139 20.1618 0.738401 21.2493 2.72997Z" fill="#C8C8C8"/>
</g>
<defs>
<clipPath id="clip0_534_36203">
<rect width="40" height="51" fill="white"/>
</clipPath>
</defs>
</svg>
