<svg width="47" height="47" viewBox="0 0 47 47" fill="none" xmlns="http://www.w3.org/2000/svg">
<path fill-rule="evenodd" clip-rule="evenodd" d="M7.87085 21.094C7.56973 21.094 7.32422 20.8478 7.32422 20.5474V9.20825C7.32422 8.88042 7.56973 8.66162 7.87085 8.66162C8.17124 8.66162 8.41675 8.88042 8.41675 9.20825V20.5474C8.41675 20.8478 8.17124 21.094 7.87085 21.094Z" fill="#C8C8C8"/>
<path fill-rule="evenodd" clip-rule="evenodd" d="M38.9608 20.5474C38.6604 20.5474 38.3867 20.8478 38.3867 20.5474V9.20825C38.3867 8.88042 38.633 8.66162 38.9333 8.66162C39.2337 8.66162 39.48 8.88042 39.48 9.20825V20.5474C39.48 20.8478 39.2612 20.5474 38.9608 20.5474Z" fill="#C8C8C8"/>
<path fill-rule="evenodd" clip-rule="evenodd" d="M36.3125 20.8478C36.6952 20.3018 37.4606 20.0007 38.2253 20.0007H39.6464C40.3837 20.0007 41.1766 20.3018 41.5593 20.8478H36.3125Z" fill="#C8C8C8"/>
<path fill-rule="evenodd" clip-rule="evenodd" d="M45.0841 32.6245H32.7882C32.1326 32.6245 31.5859 32.1053 31.5859 31.4496V31.3673C31.8863 31.5045 32.2416 31.5587 32.5969 31.5587H45.2755C45.6308 31.5587 45.9586 31.5045 46.2864 31.3673V31.4496C46.2864 32.1053 45.7398 32.6245 45.0841 32.6245Z" fill="#C8C8C8"/>
<mask id="mask0_534_36234" style="mask-type:luminance" maskUnits="userSpaceOnUse" x="31" y="21" width="16" height="10">
<path d="M31.0547 21.8131H46.7221V30.5014H31.0547V21.8131Z" fill="white"/>
</mask>
<g mask="url(#mask0_534_36234)">
<path fill-rule="evenodd" clip-rule="evenodd" d="M45.2749 30.466H32.5962C31.8041 30.466 31.1484 29.8371 31.1484 29.0175V25.0012L37.378 27.8152C37.378 27.9524 37.4329 28.0889 37.5419 28.1705L38.2525 28.881C38.334 28.9901 38.4712 29.0449 38.6352 29.0449H39.2359C39.3724 29.0449 39.5096 28.9901 39.6187 28.881L40.3292 28.1705C40.4108 28.0889 40.4657 27.9524 40.4657 27.8152L46.7227 25.0012V29.0175C46.7227 29.8371 46.067 30.466 45.2749 30.466ZM31.1484 23.6075V23.3887C31.1484 22.5691 31.8041 21.9409 32.5962 21.9409H45.2749C46.067 21.9409 46.7227 22.5691 46.7227 23.3887V23.6075L40.4657 26.4223C40.4382 26.1486 40.2194 25.9572 39.9191 25.9572H37.9246C37.6509 25.9572 37.4329 26.1486 37.378 26.4223L31.1484 23.6075ZM38.8532 27.9524H39.0172L39.3724 27.5697V27.0505H38.4712V27.5697L38.8532 27.9524Z" fill="#C8C8C8"/>
</g>
<path fill-rule="evenodd" clip-rule="evenodd" d="M13.3319 33.0613H9.61524V28.089C9.61524 27.7886 9.36973 27.5423 9.06934 27.5423H6.66475C6.33691 27.5423 6.11812 27.7886 6.11812 28.089V33.0613H2.37475C2.07436 33.0613 1.82812 32.8433 1.82812 32.5154V27.6514C1.9646 27.6239 2.1018 27.5698 2.23828 27.4875L7.86704 24.2358L13.4958 27.4875C13.6323 27.5698 13.7413 27.6239 13.8778 27.6514V32.5154C13.8778 32.8433 13.6323 33.0613 13.3319 33.0613ZM8.52271 33.0613H7.21138V28.6356H8.52271V33.0613Z" fill="#C8C8C8"/>
<path fill-rule="evenodd" clip-rule="evenodd" d="M1.41931 26.613C1.36443 26.613 1.30955 26.613 1.2554 26.5863C1.1182 26.5588 1.00916 26.4765 0.927564 26.34L0.162139 25.0013C-0.00177807 24.7283 0.0805412 24.3998 0.353495 24.2358L7.59399 20.0831C7.7579 19.9733 7.9767 19.9733 8.14061 20.0831L15.3818 24.2358C15.6273 24.3998 15.7364 24.7283 15.5725 25.0013L14.8078 26.34C14.7254 26.4765 14.6164 26.5588 14.4525 26.5863C14.316 26.6404 14.1795 26.613 14.0423 26.5314L7.86766 22.9794L1.69227 26.5314C1.58323 26.5863 1.50091 26.613 1.41931 26.613Z" fill="#C8C8C8"/>
<path fill-rule="evenodd" clip-rule="evenodd" d="M23.3906 14.8645C20.6041 14.8645 18.3359 12.5964 18.3359 9.80906C18.3359 6.99504 20.6041 4.72693 23.3906 4.72693C26.2054 4.72693 28.4735 6.99504 28.4735 9.80906C28.4735 12.5964 26.2054 14.8645 23.3906 14.8645Z" fill="#C8C8C8"/>
<path fill-rule="evenodd" clip-rule="evenodd" d="M28.8001 41.9965H23.9361V41.9691V33.9632C23.9361 33.6628 23.6905 33.4165 23.3894 33.4165C23.089 33.4165 22.8435 33.6628 22.8435 33.9632V41.9691V41.9965H18.0069C17.8704 41.9965 17.7339 41.9416 17.6242 41.86C17.5152 41.7503 17.4603 41.6138 17.4603 41.4499V21.9684C11.9687 16.8588 7.62384 9.83638 7.40504 9.48111C6.74937 8.49761 7.296 7.59571 7.84263 7.18628C8.2795 6.831 8.71709 6.63965 9.20884 6.63965C9.94611 6.63965 10.4386 7.1314 10.5202 7.18628L12.5695 9.2356C12.5695 9.26304 12.5969 9.26304 12.5969 9.28975C18.69 16.8588 22.8702 17.0776 23.3353 17.0776H23.4718C23.9086 17.0776 28.117 16.8588 34.2101 9.28975C34.2101 9.26304 34.2375 9.26304 34.2375 9.2356L36.2868 7.18628C36.3684 7.10396 36.8602 6.63965 37.5982 6.63965C38.0625 6.63965 38.5268 6.831 38.9644 7.18628C39.511 7.59571 40.0569 8.49761 39.4013 9.48111C39.1825 9.83638 34.8383 16.8588 29.346 21.9684V41.4499C29.346 41.7777 29.1005 41.9965 28.8001 41.9965Z" fill="#C8C8C8"/>
<path fill-rule="evenodd" clip-rule="evenodd" d="M7.87085 21.094C7.56973 21.094 7.32422 20.8478 7.32422 20.5474V9.20825C7.32422 8.88042 7.56973 8.66162 7.87085 8.66162C8.17124 8.66162 8.41675 8.88042 8.41675 9.20825V20.5474C8.41675 20.8478 8.17124 21.094 7.87085 21.094Z" fill="#C8C8C8"/>
<path fill-rule="evenodd" clip-rule="evenodd" d="M38.9608 20.5474C38.6604 20.5474 38.3867 20.8478 38.3867 20.5474V9.20825C38.3867 8.88042 38.633 8.66162 38.9333 8.66162C39.2337 8.66162 39.48 8.88042 39.48 9.20825V20.5474C39.48 20.8478 39.2612 20.5474 38.9608 20.5474Z" fill="#C8C8C8"/>
<path fill-rule="evenodd" clip-rule="evenodd" d="M36.3125 20.8478C36.6952 20.3018 37.4606 20.0007 38.2253 20.0007H39.6464C40.3837 20.0007 41.1766 20.3018 41.5593 20.8478H36.3125Z" fill="#C8C8C8"/>
<path fill-rule="evenodd" clip-rule="evenodd" d="M45.0841 32.6245H32.7882C32.1326 32.6245 31.5859 32.1053 31.5859 31.4496V31.3673C31.8863 31.5045 32.2416 31.5587 32.5969 31.5587H45.2755C45.6308 31.5587 45.9586 31.5045 46.2864 31.3673V31.4496C46.2864 32.1053 45.7398 32.6245 45.0841 32.6245Z" fill="#C8C8C8"/>
<mask id="mask1_534_36234" style="mask-type:luminance" maskUnits="userSpaceOnUse" x="31" y="21" width="16" height="10">
<path d="M31.0547 21.8131H46.7221V30.5014H31.0547V21.8131Z" fill="white"/>
</mask>
<g mask="url(#mask1_534_36234)">
<path fill-rule="evenodd" clip-rule="evenodd" d="M45.2749 30.466H32.5962C31.8041 30.466 31.1484 29.8371 31.1484 29.0175V25.0012L37.378 27.8152C37.378 27.9524 37.4329 28.0889 37.5419 28.1705L38.2525 28.881C38.334 28.9901 38.4712 29.0449 38.6352 29.0449H39.2359C39.3724 29.0449 39.5096 28.9901 39.6187 28.881L40.3292 28.1705C40.4108 28.0889 40.4657 27.9524 40.4657 27.8152L46.7227 25.0012V29.0175C46.7227 29.8371 46.067 30.466 45.2749 30.466ZM31.1484 23.6075V23.3887C31.1484 22.5691 31.8041 21.9409 32.5962 21.9409H45.2749C46.067 21.9409 46.7227 22.5691 46.7227 23.3887V23.6075L40.4657 26.4223C40.4382 26.1486 40.2194 25.9572 39.9191 25.9572H37.9246C37.6509 25.9572 37.4329 26.1486 37.378 26.4223L31.1484 23.6075ZM38.8532 27.9524H39.0172L39.3724 27.5697V27.0505H38.4712V27.5697L38.8532 27.9524Z" fill="#C8C8C8"/>
</g>
<path fill-rule="evenodd" clip-rule="evenodd" d="M13.3319 33.0613H9.61524V28.089C9.61524 27.7886 9.36973 27.5423 9.06934 27.5423H6.66475C6.33691 27.5423 6.11812 27.7886 6.11812 28.089V33.0613H2.37475C2.07436 33.0613 1.82812 32.8433 1.82812 32.5154V27.6514C1.9646 27.6239 2.1018 27.5698 2.23828 27.4875L7.86704 24.2358L13.4958 27.4875C13.6323 27.5698 13.7413 27.6239 13.8778 27.6514V32.5154C13.8778 32.8433 13.6323 33.0613 13.3319 33.0613ZM8.52271 33.0613H7.21138V28.6356H8.52271V33.0613Z" fill="#C8C8C8"/>
<path fill-rule="evenodd" clip-rule="evenodd" d="M1.41931 26.613C1.36443 26.613 1.30955 26.613 1.2554 26.5863C1.1182 26.5588 1.00916 26.4765 0.927564 26.34L0.162139 25.0013C-0.00177807 24.7283 0.0805412 24.3998 0.353495 24.2358L7.59399 20.0831C7.7579 19.9733 7.9767 19.9733 8.14061 20.0831L15.3818 24.2358C15.6273 24.3998 15.7364 24.7283 15.5725 25.0013L14.8078 26.34C14.7254 26.4765 14.6164 26.5588 14.4525 26.5863C14.316 26.6404 14.1795 26.613 14.0423 26.5314L7.86766 22.9794L1.69227 26.5314C1.58323 26.5863 1.50091 26.613 1.41931 26.613Z" fill="#C8C8C8"/>
<path fill-rule="evenodd" clip-rule="evenodd" d="M23.3906 14.8645C20.6041 14.8645 18.3359 12.5964 18.3359 9.80906C18.3359 6.99504 20.6041 4.72693 23.3906 4.72693C26.2054 4.72693 28.4735 6.99504 28.4735 9.80906C28.4735 12.5964 26.2054 14.8645 23.3906 14.8645Z" fill="#C8C8C8"/>
<path fill-rule="evenodd" clip-rule="evenodd" d="M28.8001 41.9965H23.9361V41.9691V33.9632C23.9361 33.6628 23.6905 33.4165 23.3894 33.4165C23.089 33.4165 22.8435 33.6628 22.8435 33.9632V41.9691V41.9965H18.0069C17.8704 41.9965 17.7339 41.9416 17.6242 41.86C17.5152 41.7503 17.4603 41.6138 17.4603 41.4499V21.9684C11.9687 16.8588 7.62384 9.83638 7.40504 9.48111C6.74937 8.49761 7.296 7.59571 7.84263 7.18628C8.2795 6.831 8.71709 6.63965 9.20884 6.63965C9.94611 6.63965 10.4386 7.1314 10.5202 7.18628L12.5695 9.2356C12.5695 9.26304 12.5969 9.26304 12.5969 9.28975C18.69 16.8588 22.8702 17.0776 23.3353 17.0776H23.4718C23.9086 17.0776 28.117 16.8588 34.2101 9.28975C34.2101 9.26304 34.2375 9.26304 34.2375 9.2356L36.2868 7.18628C36.3684 7.10396 36.8602 6.63965 37.5982 6.63965C38.0625 6.63965 38.5268 6.831 38.9644 7.18628C39.511 7.59571 40.0569 8.49761 39.4013 9.48111C39.1825 9.83638 34.8383 16.8588 29.346 21.9684V41.4499C29.346 41.7777 29.1005 41.9965 28.8001 41.9965Z" fill="#C8C8C8"/>
</svg>
