<svg width="39" height="42" viewBox="0 0 39 42" fill="none" xmlns="http://www.w3.org/2000/svg">
<mask id="mask0_534_36182" style="mask-type:luminance" maskUnits="userSpaceOnUse" x="1" y="0" width="37" height="42">
<path d="M1.53906 0.0344238H37.6573V41.9656H1.53906V0.0344238Z" fill="white"/>
</mask>
<g mask="url(#mask0_534_36182)">
<path fill-rule="evenodd" clip-rule="evenodd" d="M9.12391 27.6879C10.5523 27.6879 11.71 28.8586 11.71 30.3023C11.71 31.7459 10.5523 32.9161 9.12391 32.9161C7.69603 32.9161 6.53832 31.7459 6.53832 30.3023C6.53832 28.8586 7.69603 27.6879 9.12391 27.6879ZM22.0654 29.0424C21.5751 28.2302 17.8173 27.9102 17.1343 29.0424C15.019 32.5475 11.3228 33.6757 7.6535 34.7472C6.47878 35.0905 5.25303 35.7153 4.27542 36.4597C3.30183 37.2015 2.48332 38.1059 1.80741 39.1308C1.42467 39.7106 1.55925 40.4858 2.11409 40.8995C2.4468 41.1476 2.74248 41.2691 3.17375 41.1932C3.53147 41.1304 3.82064 40.9395 4.02277 40.6352C4.76072 39.5232 5.68729 38.6279 6.79548 37.9043L7.40585 37.5058C7.43337 37.4876 7.46589 37.4866 7.49491 37.5023C7.52392 37.518 7.54093 37.5463 7.54093 37.5798L7.55744 41.1041C7.55744 41.577 7.93968 41.9629 8.40747 41.9629H13.0313C13.4991 41.9629 13.8813 41.5765 13.8813 41.1041V35.1072C13.8813 35.0702 13.9023 35.0383 13.9364 35.0246C15.1306 34.5426 16.0407 34.0717 17.0583 33.225C17.8923 32.5308 18.6017 31.7125 19.1931 30.799L19.5263 30.2846C19.5428 30.2582 19.5693 30.244 19.5999 30.244C19.6299 30.244 19.6564 30.2587 19.6729 30.2846L20.0061 30.799C21.2419 32.7075 22.9144 34.0823 25.0117 34.9239L25.2628 35.0246C25.2969 35.0383 25.3184 35.0702 25.3184 35.1072V41.1041C25.3184 41.5765 25.7006 41.9629 26.1679 41.9629H30.7922C31.268 41.9629 31.6573 41.5644 31.6398 41.0732C31.6398 41.0722 31.6398 41.0707 31.6398 41.0696L31.6583 37.5793C31.6588 37.5458 31.6753 37.5175 31.7043 37.5018C31.7333 37.4861 31.7658 37.4871 31.7934 37.5053C32.4022 37.9003 32.917 38.2239 33.4929 38.7221C34.1398 39.2812 34.7027 39.9207 35.1769 40.6352C35.5872 41.2535 36.4122 41.4013 37.0056 40.9587C37.3163 40.7278 37.5209 40.4823 37.5914 40.0767C37.6485 39.747 37.5759 39.4088 37.3923 39.1308C35.9734 36.9802 34.0297 35.5168 31.5852 34.7573C31.5837 34.7568 31.5822 34.7568 31.5812 34.7563C27.988 33.8215 24.0956 32.4067 22.0654 29.0424ZM10.0625 13.8894L10.0785 13.895C10.0075 14.095 9.97593 14.2059 9.83235 14.3826C8.44849 16.0845 9.64673 18.6594 11.8311 18.6594C14.0149 18.6594 15.2142 16.0856 13.8303 14.3826C13.7843 14.3259 13.7433 14.2662 13.7092 14.2024L13.6942 14.2074C13.6017 13.9436 13.5997 13.9396 13.5797 13.7249C13.5771 13.6991 13.5847 13.6758 13.6022 13.6565C13.6192 13.6373 13.6412 13.6277 13.6672 13.6277H18.8459C18.8944 13.6277 18.9339 13.6677 18.9339 13.7163V19.0554C18.9339 19.6483 19.4152 20.1279 19.9951 20.1279C20.5544 20.1279 21.0067 19.9851 21.4405 19.6245C22.4061 18.8225 23.9115 19.503 23.9115 20.8079C23.9115 22.1128 22.4056 22.7934 21.4405 21.9908C21.0047 21.6287 20.5529 21.4875 19.9951 21.4875C19.4097 21.4875 18.9339 21.969 18.9339 22.5605V26.0397C18.9339 26.065 18.9244 26.0868 18.9064 26.104C18.8879 26.1217 18.8659 26.1293 18.8409 26.1283C18.1445 26.0873 17.5771 26.0245 16.8732 25.8792C11.1457 24.6963 6.89103 19.7284 6.57234 13.8024L6.56784 13.7213C6.56683 13.696 6.57484 13.6737 6.59185 13.6555C6.60936 13.6368 6.63087 13.6277 6.65589 13.6277H9.99444C10.0205 13.6277 10.043 13.6378 10.06 13.6575C10.0775 13.6768 10.0845 13.7006 10.0815 13.7269L10.0625 13.8894ZM28.6084 22.3184C30.8618 20.0398 32.2001 17.0208 32.3727 13.8024L32.3772 13.7213C32.3787 13.696 32.3702 13.6737 32.3532 13.6555C32.3362 13.6368 32.3147 13.6277 32.2897 13.6277H28.848C28.2627 13.6277 27.7869 13.1461 27.7869 12.5547C27.7869 11.9896 27.9225 11.5348 28.2827 11.0923C29.0842 10.1064 28.3963 8.5954 27.1145 8.5954C26.2795 8.5954 25.603 9.27899 25.603 10.1231C25.603 11.1809 26.4421 11.1237 26.4421 12.5547C26.4421 13.1461 25.9658 13.6277 25.3809 13.6277H20.0997C20.0511 13.6277 20.0116 13.6672 20.0116 13.7163V18.9521C20.0116 18.9779 20.0216 19.0007 20.0411 19.0179C20.0606 19.0356 20.0837 19.0427 20.1097 19.0402C20.3648 19.0108 20.5304 18.9769 20.7586 18.787C22.4421 17.3884 24.9897 18.5997 24.9897 20.8079C24.9897 23.0157 22.4421 24.2274 20.7586 22.8283C20.5289 22.6374 20.3628 22.6025 20.1087 22.5756C20.0832 22.5731 20.0601 22.5807 20.0411 22.5979C20.0216 22.6156 20.0116 22.6379 20.0116 22.6638V26.0402C20.0116 26.065 20.0211 26.0868 20.0391 26.1045C20.0576 26.1217 20.0797 26.1298 20.1042 26.1288L20.1847 26.1243C23.3682 25.9491 26.355 24.5966 28.6084 22.3184ZM19.7459 4.31407C19.917 4.11862 20.0116 3.86796 20.0116 3.60516V0.125415C20.0116 0.100097 20.0211 0.078323 20.0391 0.0611065C20.0576 0.0438902 20.0797 0.0357883 20.1047 0.0373073C20.9112 0.0843994 21.5701 0.165418 22.3831 0.354292C27.9645 1.65363 32.0605 6.55474 32.3727 12.3628L32.3772 12.4443C32.3787 12.4696 32.3702 12.4919 32.3532 12.5101C32.3362 12.5283 32.3147 12.538 32.2897 12.538H28.9491C28.9231 12.538 28.9006 12.5278 28.8836 12.5081C28.8661 12.4888 28.8591 12.465 28.8616 12.4392C28.8896 12.1901 28.9226 12.0194 29.1142 11.7835C30.4881 10.0937 29.3083 7.50671 27.114 7.50671C24.9196 7.50671 23.7399 10.0937 25.1137 11.7835C25.3059 12.0194 25.3389 12.1901 25.3664 12.4392C25.3694 12.465 25.3619 12.4888 25.3449 12.5081C25.3274 12.5278 25.3054 12.538 25.2794 12.538H20.0992C20.0511 12.538 20.0116 12.498 20.0116 12.4493V7.11022C20.0116 6.51626 19.5293 6.03723 18.9505 6.03723C17.5496 6.03723 17.5896 6.8854 16.545 6.8854C15.2021 6.8854 14.5277 5.23616 15.4763 4.27711C16.0297 3.71808 16.9137 3.68314 17.5051 4.17432C17.9408 4.53687 18.3921 4.67764 18.9505 4.67764C19.2792 4.67764 19.5178 4.54396 19.7419 4.31863C19.7439 4.31711 19.7449 4.31559 19.7459 4.31407ZM12.6646 14.5138C12.6636 14.5123 12.6631 14.5113 12.6626 14.5097C12.541 14.1654 12.5035 13.9831 12.5035 13.6104C12.5035 13.0241 12.9778 12.538 13.5646 12.538H18.8459C18.8944 12.538 18.9334 12.498 18.9334 12.4488V7.21352C18.9334 7.18719 18.9239 7.16491 18.9049 7.1477C18.8854 7.12997 18.8629 7.12238 18.8369 7.12491C18.5877 7.15073 18.4246 7.18061 18.187 7.37809C16.5029 8.77718 13.9559 7.56545 13.9559 5.35769C13.9559 3.14892 16.5034 1.9382 18.187 3.33679C18.4166 3.52769 18.5827 3.56263 18.8369 3.58946C18.8624 3.5925 18.8854 3.5844 18.9049 3.56718C18.9239 3.54997 18.9339 3.52718 18.9339 3.50136V0.125415C18.9339 0.100097 18.9244 0.078323 18.9064 0.0611065C18.8879 0.0433838 18.8664 0.035282 18.8414 0.036801L18.7608 0.0408519C13.1619 0.348722 8.39846 4.29331 6.97809 9.74738C6.73494 10.6816 6.62387 11.4862 6.56834 12.4438C6.56683 12.4691 6.57484 12.4914 6.59185 12.5096C6.60936 12.5283 6.63087 12.5375 6.65589 12.5375H10.0975C10.6829 12.5375 11.1587 13.019 11.1587 13.6104C11.1587 13.8469 11.1457 14.0287 11.0836 14.2596L11.0811 14.2591C10.9801 14.5842 10.8855 14.7953 10.6609 15.0718C10.1746 15.6693 10.2091 16.5631 10.7624 17.1226C11.7115 18.0822 13.342 17.3996 13.342 16.042C13.342 15.2733 12.9037 15.0926 12.6646 14.5138ZM34.501 23.5433C34.8282 23.4532 35.1659 23.6491 35.2545 23.9798C35.3435 24.3105 35.1499 24.6517 34.8227 24.7414L31.6142 25.623C31.178 25.743 30.7252 25.3526 30.8678 24.8376C30.8678 24.8366 30.8683 24.8361 30.8683 24.8351L31.6543 21.6125C31.7353 21.2804 32.067 21.0773 32.3957 21.1588C32.7244 21.2404 32.9251 21.5761 32.8445 21.9083L32.7284 22.3847C32.7179 22.4263 32.7379 22.4683 32.7765 22.4865C32.815 22.5042 32.859 22.4931 32.884 22.4587C37.5499 16.0643 36.7904 7.08136 31.0334 1.59236C30.7872 1.35791 30.7752 0.965982 31.0074 0.71685C31.239 0.467718 31.6268 0.455565 31.8734 0.690013C38.2358 6.75678 38.9297 16.7403 33.5309 23.6441C33.5069 23.675 33.5054 23.716 33.5264 23.7484C33.5479 23.7808 33.5855 23.795 33.6225 23.7848L34.501 23.5433ZM4.44453 2.6218L5.32307 2.38077C5.36009 2.37064 5.39762 2.38482 5.41863 2.41672C5.44014 2.44913 5.43814 2.49065 5.41463 2.52103C0.0158033 9.42482 0.70923 19.4088 7.07215 25.4751C7.3183 25.7095 7.70604 25.6974 7.93818 25.4483C8.16982 25.1991 8.15831 24.8072 7.91166 24.5728C2.15512 19.0837 1.39515 10.1008 6.06102 3.70643C6.08604 3.67251 6.13057 3.66086 6.16859 3.67909C6.20711 3.69681 6.22713 3.73884 6.21712 3.78036L6.10105 4.25685C6.02 4.58903 6.22112 4.92475 6.54982 5.00627C6.87803 5.0878 7.21023 4.88475 7.29078 4.55257L8.07676 1.33006C8.07726 1.32955 8.07726 1.32854 8.07776 1.32753C8.22035 0.812553 7.76707 0.422145 7.33131 0.542154L4.12283 1.42374C3.79513 1.51336 3.60201 1.85465 3.69056 2.18531C3.77962 2.51647 4.11683 2.71193 4.44453 2.6218ZM29.8216 27.6879C31.2495 27.6879 32.4072 28.8586 32.4072 30.3023C32.4072 31.7459 31.2495 32.9161 29.8216 32.9161C28.3933 32.9161 27.2356 31.7459 27.2356 30.3023C27.2356 28.8586 28.3933 27.6879 29.8216 27.6879Z" fill="#C8C8C8"/>
<path fill-rule="evenodd" clip-rule="evenodd" d="M9.12391 27.6879C10.5523 27.6879 11.71 28.8586 11.71 30.3023C11.71 31.7459 10.5523 32.9161 9.12391 32.9161C7.69603 32.9161 6.53832 31.7459 6.53832 30.3023C6.53832 28.8586 7.69603 27.6879 9.12391 27.6879ZM22.0654 29.0424C21.5751 28.2302 17.8173 27.9102 17.1343 29.0424C15.019 32.5475 11.3228 33.6757 7.6535 34.7472C6.47878 35.0905 5.25303 35.7153 4.27542 36.4597C3.30183 37.2015 2.48332 38.1059 1.80741 39.1308C1.42467 39.7106 1.55925 40.4858 2.11409 40.8995C2.4468 41.1476 2.74248 41.2691 3.17375 41.1932C3.53147 41.1304 3.82064 40.9395 4.02277 40.6352C4.76072 39.5232 5.68729 38.6279 6.79548 37.9043L7.40585 37.5058C7.43337 37.4876 7.46589 37.4866 7.49491 37.5023C7.52392 37.518 7.54093 37.5463 7.54093 37.5798L7.55744 41.1041C7.55744 41.577 7.93968 41.9629 8.40747 41.9629H13.0313C13.4991 41.9629 13.8813 41.5765 13.8813 41.1041V35.1072C13.8813 35.0702 13.9023 35.0383 13.9364 35.0246C15.1306 34.5426 16.0407 34.0717 17.0583 33.225C17.8923 32.5308 18.6017 31.7125 19.1931 30.799L19.5263 30.2846C19.5428 30.2582 19.5693 30.244 19.5999 30.244C19.6299 30.244 19.6564 30.2587 19.6729 30.2846L20.0061 30.799C21.2419 32.7075 22.9144 34.0823 25.0117 34.9239L25.2628 35.0246C25.2969 35.0383 25.3184 35.0702 25.3184 35.1072V41.1041C25.3184 41.5765 25.7006 41.9629 26.1679 41.9629H30.7922C31.268 41.9629 31.6573 41.5644 31.6398 41.0732C31.6398 41.0722 31.6398 41.0707 31.6398 41.0696L31.6583 37.5793C31.6588 37.5458 31.6753 37.5175 31.7043 37.5018C31.7333 37.4861 31.7658 37.4871 31.7934 37.5053C32.4022 37.9003 32.917 38.2239 33.4929 38.7221C34.1398 39.2812 34.7027 39.9207 35.1769 40.6352C35.5872 41.2535 36.4122 41.4013 37.0056 40.9587C37.3163 40.7278 37.5209 40.4823 37.5914 40.0767C37.6485 39.747 37.5759 39.4088 37.3923 39.1308C35.9734 36.9802 34.0297 35.5168 31.5852 34.7573C31.5837 34.7568 31.5822 34.7568 31.5812 34.7563C27.988 33.8215 24.0956 32.4067 22.0654 29.0424ZM10.0625 13.8894L10.0785 13.895C10.0075 14.095 9.97593 14.2059 9.83235 14.3826C8.44849 16.0845 9.64673 18.6594 11.8311 18.6594C14.0149 18.6594 15.2142 16.0856 13.8303 14.3826C13.7843 14.3259 13.7433 14.2662 13.7092 14.2024L13.6942 14.2074C13.6017 13.9436 13.5997 13.9396 13.5797 13.7249C13.5771 13.6991 13.5847 13.6758 13.6022 13.6565C13.6192 13.6373 13.6412 13.6277 13.6672 13.6277H18.8459C18.8944 13.6277 18.9339 13.6677 18.9339 13.7163V19.0554C18.9339 19.6483 19.4152 20.1279 19.9951 20.1279C20.5544 20.1279 21.0067 19.9851 21.4405 19.6245C22.4061 18.8225 23.9115 19.503 23.9115 20.8079C23.9115 22.1128 22.4056 22.7934 21.4405 21.9908C21.0047 21.6287 20.5529 21.4875 19.9951 21.4875C19.4097 21.4875 18.9339 21.969 18.9339 22.5605V26.0397C18.9339 26.065 18.9244 26.0868 18.9064 26.104C18.8879 26.1217 18.8659 26.1293 18.8409 26.1283C18.1445 26.0873 17.5771 26.0245 16.8732 25.8792C11.1457 24.6963 6.89103 19.7284 6.57234 13.8024L6.56784 13.7213C6.56683 13.696 6.57484 13.6737 6.59185 13.6555C6.60936 13.6368 6.63087 13.6277 6.65589 13.6277H9.99444C10.0205 13.6277 10.043 13.6378 10.06 13.6575C10.0775 13.6768 10.0845 13.7006 10.0815 13.7269L10.0625 13.8894ZM28.6084 22.3184C30.8618 20.0398 32.2001 17.0208 32.3727 13.8024L32.3772 13.7213C32.3787 13.696 32.3702 13.6737 32.3532 13.6555C32.3362 13.6368 32.3147 13.6277 32.2897 13.6277H28.848C28.2627 13.6277 27.7869 13.1461 27.7869 12.5547C27.7869 11.9896 27.9225 11.5348 28.2827 11.0923C29.0842 10.1064 28.3963 8.5954 27.1145 8.5954C26.2795 8.5954 25.603 9.27899 25.603 10.1231C25.603 11.1809 26.4421 11.1237 26.4421 12.5547C26.4421 13.1461 25.9658 13.6277 25.3809 13.6277H20.0997C20.0511 13.6277 20.0116 13.6672 20.0116 13.7163V18.9521C20.0116 18.9779 20.0216 19.0007 20.0411 19.0179C20.0606 19.0356 20.0837 19.0427 20.1097 19.0402C20.3648 19.0108 20.5304 18.9769 20.7586 18.787C22.4421 17.3884 24.9897 18.5997 24.9897 20.8079C24.9897 23.0157 22.4421 24.2274 20.7586 22.8283C20.5289 22.6374 20.3628 22.6025 20.1087 22.5756C20.0832 22.5731 20.0601 22.5807 20.0411 22.5979C20.0216 22.6156 20.0116 22.6379 20.0116 22.6638V26.0402C20.0116 26.065 20.0211 26.0868 20.0391 26.1045C20.0576 26.1217 20.0797 26.1298 20.1042 26.1288L20.1847 26.1243C23.3682 25.9491 26.355 24.5966 28.6084 22.3184ZM19.7459 4.31407C19.917 4.11862 20.0116 3.86796 20.0116 3.60516V0.125415C20.0116 0.100097 20.0211 0.078323 20.0391 0.0611065C20.0576 0.0438902 20.0797 0.0357883 20.1047 0.0373073C20.9112 0.0843994 21.5701 0.165418 22.3831 0.354292C27.9645 1.65363 32.0605 6.55474 32.3727 12.3628L32.3772 12.4443C32.3787 12.4696 32.3702 12.4919 32.3532 12.5101C32.3362 12.5283 32.3147 12.538 32.2897 12.538H28.9491C28.9231 12.538 28.9006 12.5278 28.8836 12.5081C28.8661 12.4888 28.8591 12.465 28.8616 12.4392C28.8896 12.1901 28.9226 12.0194 29.1142 11.7835C30.4881 10.0937 29.3083 7.50671 27.114 7.50671C24.9196 7.50671 23.7399 10.0937 25.1137 11.7835C25.3059 12.0194 25.3389 12.1901 25.3664 12.4392C25.3694 12.465 25.3619 12.4888 25.3449 12.5081C25.3274 12.5278 25.3054 12.538 25.2794 12.538H20.0992C20.0511 12.538 20.0116 12.498 20.0116 12.4493V7.11022C20.0116 6.51626 19.5293 6.03723 18.9505 6.03723C17.5496 6.03723 17.5896 6.8854 16.545 6.8854C15.2021 6.8854 14.5277 5.23616 15.4763 4.27711C16.0297 3.71808 16.9137 3.68314 17.5051 4.17432C17.9408 4.53687 18.3921 4.67764 18.9505 4.67764C19.2792 4.67764 19.5178 4.54396 19.7419 4.31863C19.7439 4.31711 19.7449 4.31559 19.7459 4.31407ZM12.6646 14.5138C12.6636 14.5123 12.6631 14.5113 12.6626 14.5097C12.541 14.1654 12.5035 13.9831 12.5035 13.6104C12.5035 13.0241 12.9778 12.538 13.5646 12.538H18.8459C18.8944 12.538 18.9334 12.498 18.9334 12.4488V7.21352C18.9334 7.18719 18.9239 7.16491 18.9049 7.1477C18.8854 7.12997 18.8629 7.12238 18.8369 7.12491C18.5877 7.15073 18.4246 7.18061 18.187 7.37809C16.5029 8.77718 13.9559 7.56545 13.9559 5.35769C13.9559 3.14892 16.5034 1.9382 18.187 3.33679C18.4166 3.52769 18.5827 3.56263 18.8369 3.58946C18.8624 3.5925 18.8854 3.5844 18.9049 3.56718C18.9239 3.54997 18.9339 3.52718 18.9339 3.50136V0.125415C18.9339 0.100097 18.9244 0.078323 18.9064 0.0611065C18.8879 0.0433838 18.8664 0.035282 18.8414 0.036801L18.7608 0.0408519C13.1619 0.348722 8.39846 4.29331 6.97809 9.74738C6.73494 10.6816 6.62387 11.4862 6.56834 12.4438C6.56683 12.4691 6.57484 12.4914 6.59185 12.5096C6.60936 12.5283 6.63087 12.5375 6.65589 12.5375H10.0975C10.6829 12.5375 11.1587 13.019 11.1587 13.6104C11.1587 13.8469 11.1457 14.0287 11.0836 14.2596L11.0811 14.2591C10.9801 14.5842 10.8855 14.7953 10.6609 15.0718C10.1746 15.6693 10.2091 16.5631 10.7624 17.1226C11.7115 18.0822 13.342 17.3996 13.342 16.042C13.342 15.2733 12.9037 15.0926 12.6646 14.5138ZM34.501 23.5433C34.8282 23.4532 35.1659 23.6491 35.2545 23.9798C35.3435 24.3105 35.1499 24.6517 34.8227 24.7414L31.6142 25.623C31.178 25.743 30.7252 25.3526 30.8678 24.8376C30.8678 24.8366 30.8683 24.8361 30.8683 24.8351L31.6543 21.6125C31.7353 21.2804 32.067 21.0773 32.3957 21.1588C32.7244 21.2404 32.9251 21.5761 32.8445 21.9083L32.7284 22.3847C32.7179 22.4263 32.7379 22.4683 32.7765 22.4865C32.815 22.5042 32.859 22.4931 32.884 22.4587C37.5499 16.0643 36.7904 7.08136 31.0334 1.59236C30.7872 1.35791 30.7752 0.965982 31.0074 0.71685C31.239 0.467718 31.6268 0.455565 31.8734 0.690013C38.2358 6.75678 38.9297 16.7403 33.5309 23.6441C33.5069 23.675 33.5054 23.716 33.5264 23.7484C33.5479 23.7808 33.5855 23.795 33.6225 23.7848L34.501 23.5433ZM4.44453 2.6218L5.32307 2.38077C5.36009 2.37064 5.39762 2.38482 5.41863 2.41672C5.44014 2.44913 5.43814 2.49065 5.41463 2.52103C0.0158033 9.42482 0.70923 19.4088 7.07215 25.4751C7.3183 25.7095 7.70604 25.6974 7.93818 25.4483C8.16982 25.1991 8.15831 24.8072 7.91166 24.5728C2.15512 19.0837 1.39515 10.1008 6.06102 3.70643C6.08604 3.67251 6.13057 3.66086 6.16859 3.67909C6.20711 3.69681 6.22713 3.73884 6.21712 3.78036L6.10105 4.25685C6.02 4.58903 6.22112 4.92475 6.54982 5.00627C6.87803 5.0878 7.21023 4.88475 7.29078 4.55257L8.07676 1.33006C8.07726 1.32955 8.07726 1.32854 8.07776 1.32753C8.22035 0.812553 7.76707 0.422145 7.33131 0.542154L4.12283 1.42374C3.79513 1.51336 3.60201 1.85465 3.69056 2.18531C3.77962 2.51647 4.11683 2.71193 4.44453 2.6218ZM29.8216 27.6879C31.2495 27.6879 32.4072 28.8586 32.4072 30.3023C32.4072 31.7459 31.2495 32.9161 29.8216 32.9161C28.3933 32.9161 27.2356 31.7459 27.2356 30.3023C27.2356 28.8586 28.3933 27.6879 29.8216 27.6879Z" fill="#C8C8C8"/>
</g>
</svg>
