<svg width="47" height="50" viewBox="0 0 47 50" fill="none" xmlns="http://www.w3.org/2000/svg">
<g clip-path="url(#clip0_534_36191)">
<mask id="mask0_534_36191" style="mask-type:luminance" maskUnits="userSpaceOnUse" x="0" y="0" width="47" height="50">
<path d="M0 0.0205078H46.8851V49.9795H0V0.0205078Z" fill="white"/>
</mask>
<g mask="url(#mask0_534_36191)">
<path fill-rule="evenodd" clip-rule="evenodd" d="M38.079 11.1937C37.9803 10.6289 37.3584 10.0888 37.2525 9.48415C37.1376 8.82768 37.6206 8.03196 37.4111 7.45145C37.1968 6.85707 36.3146 6.55446 35.9938 5.99505C35.667 5.42478 35.8472 4.5079 35.4498 4.03167C35.0494 3.55183 34.1169 3.57112 33.6219 3.15337C33.1252 2.73441 32.9809 1.80728 32.444 1.49502C31.9084 1.18337 31.0387 1.52034 30.4283 1.29609C29.8232 1.07365 29.3743 0.251412 28.759 0.141699C28.1557 0.0343977 27.4477 0.650476 26.7977 0.651682C26.1597 0.652284 25.4588 0.0343977 24.8363 0.144713C24.2133 0.255631 23.765 1.07727 23.1647 1.29609C22.5542 1.51913 21.6798 1.18397 21.1489 1.49261C20.6079 1.80728 20.4654 2.73441 19.9722 3.15156C19.4749 3.57233 18.543 3.55545 18.1462 4.03288C17.7476 4.51151 17.9271 5.43262 17.6027 5.99685C17.2795 6.55988 16.3967 6.8631 16.1837 7.45145C15.9718 8.03558 16.453 8.83552 16.3393 9.48354C16.2184 10.1726 15.3924 10.7838 15.5151 11.4861C15.6145 12.0509 16.2363 12.5917 16.3423 13.1957C16.4572 13.8528 15.9742 14.6479 16.1837 15.2284C16.3973 15.8228 17.2795 16.1254 17.6003 16.6848C17.9277 17.2544 17.747 18.1725 18.145 18.6482C18.5454 19.128 19.4773 19.1087 19.9728 19.5265C20.4696 19.9454 20.6132 20.8726 21.1507 21.1854C21.6858 21.4965 22.556 21.1601 23.1659 21.3843C23.7716 21.6068 24.2199 22.429 24.8358 22.5381C25.4391 22.6454 26.1471 22.0294 26.7965 22.0288C27.4345 22.0275 28.136 22.6454 28.7584 22.5351C29.3809 22.4248 29.8297 21.6026 30.4294 21.3837C31.0405 21.1607 31.915 21.4959 32.4452 21.1878C32.9869 20.8726 33.1287 19.946 33.6225 19.5283C34.1193 19.1075 35.0518 19.1244 35.4486 18.6476C35.8472 18.1689 35.6676 17.2478 35.992 16.6836C36.3152 16.1199 37.198 15.8173 37.4111 15.229C37.623 14.6443 37.1418 13.8455 37.2555 13.1963C37.3764 12.5079 38.2017 11.8954 38.079 11.1937ZM29.789 23.9047C30.0745 23.7558 30.3337 23.5593 30.5845 23.3333C30.6958 23.2332 30.864 23.0566 30.9986 22.9499C31.168 22.9432 31.411 22.9691 31.5559 22.974C32.1621 22.9945 32.7289 22.93 33.2658 22.6177C33.8021 22.3061 34.145 21.8449 34.4311 21.3054C34.5005 21.1746 34.5993 20.9491 34.6891 20.8032C34.8459 20.7393 35.0829 20.6797 35.2217 20.6344C35.2804 20.6152 35.3379 20.5947 35.3953 20.5742L37.3913 25.24L33.5357 24.4448L31.4607 27.811L29.789 23.9047ZM18.7626 20.7526C18.8147 20.7695 18.865 20.787 18.9087 20.8044C18.9991 20.9491 19.0978 21.174 19.1666 21.3042C19.4527 21.8419 19.7933 22.303 20.3295 22.6147C20.8658 22.927 21.4326 22.9939 22.0383 22.974C22.1843 22.9691 22.4273 22.9432 22.5961 22.9499C22.7308 23.0554 22.8996 23.2332 23.0097 23.3326C23.4059 23.6901 23.8225 23.9771 24.3306 24.1151L22.0575 29.0293L20.0806 25.6035L16.2034 26.2858L18.7626 20.7526ZM3.5688 34.3021C3.42755 34.0905 3.14745 34.0115 2.91822 34.12C2.12399 34.6258 1.16697 35.1159 0.336833 35.5885C0.0908445 35.729 0.000469081 36.0509 0.139923 36.2992L7.62732 49.6166C7.76677 49.8644 8.08697 49.9554 8.33356 49.815L10.8802 48.364C11.1262 48.2241 11.2172 47.9016 11.0771 47.6533C8.57476 43.2027 6.07477 38.7509 3.5688 34.3021ZM10.9293 44.0472L6.45004 36.0792L13.2061 32.1416C16.1741 30.4115 16.9761 30.6653 19.9872 31.7612C22.0676 32.5184 24.7137 33.4811 27.4405 33.9838C28.3299 34.2943 28.9242 35.187 28.6716 36.1353C28.3933 37.1818 27.5656 37.4988 26.5625 37.3753C24.573 36.9611 22.6278 36.3245 20.6653 35.7953C20.2284 35.6777 19.7789 35.9393 19.6622 36.3794C19.5455 36.8195 19.8053 37.271 20.2422 37.3885C22.6614 38.0414 24.968 38.7696 27.4572 39.1909C29.087 39.4538 30.6072 39.2223 32.0418 38.3814L41.1183 33.0597C42.3662 32.3285 45.3833 30.8546 46.4684 32.6148C46.9592 33.4105 46.8532 34.8151 46.0249 35.3281L29.5532 45.538C28.2287 46.3584 26.7989 46.5393 25.3026 46.1354L13.3539 42.9157C13.1456 42.8591 12.9236 42.8886 12.7362 42.9971L10.9293 44.0472ZM2.58425 37.7369C2.08748 37.664 1.74394 37.1992 1.81636 36.6995C1.88878 36.1992 2.35083 35.8531 2.84759 35.9261C3.34436 35.999 3.6885 36.4638 3.61608 36.9641C3.54307 37.4639 3.08161 37.8105 2.58425 37.7369ZM26.7971 2.76636C31.5008 2.76636 35.3145 6.6051 35.3145 11.3402C35.3145 16.0747 31.5008 19.9135 26.7971 19.9135C22.0934 19.9135 18.2802 16.0747 18.2802 11.3402C18.2802 6.6051 22.0934 2.76636 26.7971 2.76636ZM26.7971 4.41808C30.5952 4.41808 33.674 7.51716 33.674 11.3402C33.674 15.1633 30.5952 18.2624 26.7971 18.2624C22.9995 18.2624 19.9208 15.1633 19.9208 11.3402C19.9208 7.51716 22.9995 4.41808 26.7971 4.41808ZM26.7971 6.20663L28.103 9.42266L31.5451 9.67886L28.9098 11.9225L29.7316 15.2971L26.7971 13.4676L23.8632 15.2971L24.6849 11.9225L22.0497 9.67886L25.4917 9.42266L26.7971 6.20663Z" fill="#C8C8C8"/>
<path fill-rule="evenodd" clip-rule="evenodd" d="M38.079 11.1937C37.9803 10.6289 37.3584 10.0888 37.2525 9.48415C37.1376 8.82768 37.6206 8.03196 37.4111 7.45145C37.1968 6.85707 36.3146 6.55446 35.9938 5.99505C35.667 5.42478 35.8472 4.5079 35.4498 4.03167C35.0494 3.55183 34.1169 3.57112 33.6219 3.15337C33.1252 2.73441 32.9809 1.80728 32.444 1.49502C31.9084 1.18337 31.0387 1.52034 30.4283 1.29609C29.8232 1.07365 29.3743 0.251412 28.759 0.141699C28.1557 0.0343977 27.4477 0.650476 26.7977 0.651682C26.1597 0.652284 25.4588 0.0343977 24.8363 0.144713C24.2133 0.255631 23.765 1.07727 23.1647 1.29609C22.5542 1.51913 21.6798 1.18397 21.1489 1.49261C20.6079 1.80728 20.4654 2.73441 19.9722 3.15156C19.4749 3.57233 18.543 3.55545 18.1462 4.03288C17.7476 4.51151 17.9271 5.43262 17.6027 5.99685C17.2795 6.55988 16.3967 6.8631 16.1837 7.45145C15.9718 8.03558 16.453 8.83552 16.3393 9.48354C16.2184 10.1726 15.3924 10.7838 15.5151 11.4861C15.6145 12.0509 16.2363 12.5917 16.3423 13.1957C16.4572 13.8528 15.9742 14.6479 16.1837 15.2284C16.3973 15.8228 17.2795 16.1254 17.6003 16.6848C17.9277 17.2544 17.747 18.1725 18.145 18.6482C18.5454 19.128 19.4773 19.1087 19.9728 19.5265C20.4696 19.9454 20.6132 20.8726 21.1507 21.1854C21.6858 21.4965 22.556 21.1601 23.1659 21.3843C23.7716 21.6068 24.2199 22.429 24.8358 22.5381C25.4391 22.6454 26.1471 22.0294 26.7965 22.0288C27.4345 22.0275 28.136 22.6454 28.7584 22.5351C29.3809 22.4248 29.8297 21.6026 30.4294 21.3837C31.0405 21.1607 31.915 21.4959 32.4452 21.1878C32.9869 20.8726 33.1287 19.946 33.6225 19.5283C34.1193 19.1075 35.0518 19.1244 35.4486 18.6476C35.8472 18.1689 35.6676 17.2478 35.992 16.6836C36.3152 16.1199 37.198 15.8173 37.4111 15.229C37.623 14.6443 37.1418 13.8455 37.2555 13.1963C37.3764 12.5079 38.2017 11.8954 38.079 11.1937ZM29.789 23.9047C30.0745 23.7558 30.3337 23.5593 30.5845 23.3333C30.6958 23.2332 30.864 23.0566 30.9986 22.9499C31.168 22.9432 31.411 22.9691 31.5559 22.974C32.1621 22.9945 32.7289 22.93 33.2658 22.6177C33.8021 22.3061 34.145 21.8449 34.4311 21.3054C34.5005 21.1746 34.5993 20.9491 34.6891 20.8032C34.8459 20.7393 35.0829 20.6797 35.2217 20.6344C35.2804 20.6152 35.3379 20.5947 35.3953 20.5742L37.3913 25.24L33.5357 24.4448L31.4607 27.811L29.789 23.9047ZM18.7626 20.7526C18.8147 20.7695 18.865 20.787 18.9087 20.8044C18.9991 20.9491 19.0978 21.174 19.1666 21.3042C19.4527 21.8419 19.7933 22.303 20.3295 22.6147C20.8658 22.927 21.4326 22.9939 22.0383 22.974C22.1843 22.9691 22.4273 22.9432 22.5961 22.9499C22.7308 23.0554 22.8996 23.2332 23.0097 23.3326C23.4059 23.6901 23.8225 23.9771 24.3306 24.1151L22.0575 29.0293L20.0806 25.6035L16.2034 26.2858L18.7626 20.7526ZM3.5688 34.3021C3.42755 34.0905 3.14745 34.0115 2.91822 34.12C2.12399 34.6258 1.16697 35.1159 0.336833 35.5885C0.0908445 35.729 0.000469081 36.0509 0.139923 36.2992L7.62732 49.6166C7.76677 49.8644 8.08697 49.9554 8.33356 49.815L10.8802 48.364C11.1262 48.2241 11.2172 47.9016 11.0771 47.6533C8.57476 43.2027 6.07477 38.7509 3.5688 34.3021ZM10.9293 44.0472L6.45004 36.0792L13.2061 32.1416C16.1741 30.4115 16.9761 30.6653 19.9872 31.7612C22.0676 32.5184 24.7137 33.4811 27.4405 33.9838C28.3299 34.2943 28.9242 35.187 28.6716 36.1353C28.3933 37.1818 27.5656 37.4988 26.5625 37.3753C24.573 36.9611 22.6278 36.3245 20.6653 35.7953C20.2284 35.6777 19.7789 35.9393 19.6622 36.3794C19.5455 36.8195 19.8053 37.271 20.2422 37.3885C22.6614 38.0414 24.968 38.7696 27.4572 39.1909C29.087 39.4538 30.6072 39.2223 32.0418 38.3814L41.1183 33.0597C42.3662 32.3285 45.3833 30.8546 46.4684 32.6148C46.9592 33.4105 46.8532 34.8151 46.0249 35.3281L29.5532 45.538C28.2287 46.3584 26.7989 46.5393 25.3026 46.1354L13.3539 42.9157C13.1456 42.8591 12.9236 42.8886 12.7362 42.9971L10.9293 44.0472ZM2.58425 37.7369C2.08748 37.664 1.74394 37.1992 1.81636 36.6995C1.88878 36.1992 2.35083 35.8531 2.84759 35.9261C3.34436 35.999 3.6885 36.4638 3.61608 36.9641C3.54307 37.4639 3.08161 37.8105 2.58425 37.7369ZM26.7971 2.76636C31.5008 2.76636 35.3145 6.6051 35.3145 11.3402C35.3145 16.0747 31.5008 19.9135 26.7971 19.9135C22.0934 19.9135 18.2802 16.0747 18.2802 11.3402C18.2802 6.6051 22.0934 2.76636 26.7971 2.76636ZM26.7971 4.41808C30.5952 4.41808 33.674 7.51716 33.674 11.3402C33.674 15.1633 30.5952 18.2624 26.7971 18.2624C22.9995 18.2624 19.9208 15.1633 19.9208 11.3402C19.9208 7.51716 22.9995 4.41808 26.7971 4.41808ZM26.7971 6.20663L28.103 9.42266L31.5451 9.67886L28.9098 11.9225L29.7316 15.2971L26.7971 13.4676L23.8632 15.2971L24.6849 11.9225L22.0497 9.67886L25.4917 9.42266L26.7971 6.20663Z" fill="#C8C8C8"/>
</g>
</g>
<defs>
<clipPath id="clip0_534_36191">
<rect width="47" height="50" fill="white"/>
</clipPath>
</defs>
</svg>
