<svg width="42" height="52" viewBox="0 0 42 52" fill="none" xmlns="http://www.w3.org/2000/svg">
<mask id="mask0_534_36224" style="mask-type:luminance" maskUnits="userSpaceOnUse" x="1" y="0" width="41" height="52">
<path d="M1.12109 0.0251465H41.7171V51.975H1.12109V0.0251465Z" fill="white"/>
</mask>
<g mask="url(#mask0_534_36224)">
<path d="M27.4726 42.0433C27.4726 42.5724 27.2789 43.0614 26.943 43.4282H8.95346C7.76319 42.1449 8.75038 39.9042 10.5204 39.945H25.376C26.5362 39.945 27.4726 40.8816 27.4726 42.0433ZM8.95346 44.8444C7.76319 46.1277 8.75038 48.3684 10.5204 48.3276H25.376C27.1467 48.3684 28.1339 46.1177 26.933 44.8444H8.95346ZM14.8654 51.9745H21.0418C22.3643 51.9745 23.453 51.0065 23.6668 49.7439H12.2404C12.4541 51.0065 13.5428 51.9745 14.8654 51.9745ZM28.2254 31.1134C26.0479 33.008 24.7147 35.6768 24.4402 38.5287H19.9323V10.0085C19.9323 9.40724 20.4413 8.92827 21.0418 8.97968C32.1729 9.96772 36.5178 23.9526 28.2254 31.1134ZM30.1992 21.5797C30.2299 17.3015 27.4212 13.2879 23.3715 11.8924C22.9547 11.74 22.4765 11.9639 22.3342 12.3921C22.1813 12.8196 22.395 13.2779 22.8225 13.4309C26.2209 14.602 28.5914 17.9736 28.5607 21.5797C28.5814 22.6492 30.1891 22.6492 30.1992 21.5797ZM9.49313 33.6807C10.0221 33.1302 11.2231 32.4174 11.6706 33.4255C11.8336 33.8431 11.6198 34.322 11.1924 34.485C9.36088 35.3201 10.3073 37.7952 11.4468 38.5287H15.0998C15.8833 37.9582 16.3916 37.0416 16.3916 36.0028V12.9112C16.3715 9.58028 11.8129 8.60227 10.4496 11.6278C11.5484 11.8416 14.7945 14.612 12.4641 15.1317C11.6907 15.101 11.5177 14.0722 10.9072 13.7262C7.84467 11.3018 3.48973 14.6227 4.81226 18.1573C6.19621 17.9021 8.01767 18.5849 8.94344 19.756C9.40162 20.255 8.98418 21.1214 8.32291 21.1007C8.08912 21.1007 7.86536 20.9992 7.70239 20.8054C7.48865 20.5509 7.01041 20.082 6.25764 19.8682C5.728 19.6952 4.99591 19.7359 4.56844 19.8782C0.345746 21.1108 -0.000242352 27.1205 4.02877 28.842C4.57846 27.9556 7.7939 25.5011 8.37368 27.2227C8.48588 27.6603 8.21072 28.1085 7.78387 28.2107C3.14374 29.3618 3.78495 35.8806 8.56736 36.0129C8.57739 35.2185 8.83187 34.3427 9.49313 33.6807ZM30.8911 11.5463C31.1049 11.5463 31.3086 11.4648 31.4709 11.3119L35.2461 7.53335C35.9888 6.7591 34.8594 5.62812 34.0966 6.38231L30.3214 10.1608C29.7924 10.6398 30.1891 11.5664 30.8911 11.5463ZM40.7606 20.8769H35.4291C34.3504 20.897 34.3611 22.4963 35.4291 22.5063H40.7606C41.8393 22.4963 41.8293 20.897 40.7606 20.8769ZM31.4609 32.0914C30.6874 31.3479 29.558 32.4782 30.3114 33.2425L34.0859 37.0216C34.8493 37.7752 35.9888 36.6241 35.2361 35.8705C35.2361 35.8599 31.4609 32.0914 31.4609 32.0914ZM19.9323 7.0036C20.3805 7.0036 20.7465 6.63685 20.7465 6.18859V0.840887C20.7465 0.392632 20.3805 0.0258789 19.9323 0.0258789C19.4848 0.0258789 19.1188 0.392632 19.1188 0.840887V6.17856C19.1188 6.63685 19.4848 7.0036 19.9323 7.0036Z" fill="#C8C8C8"/>
<path d="M27.4726 42.0433C27.4726 42.5724 27.2789 43.0614 26.943 43.4282H8.95346C7.76319 42.1449 8.75038 39.9042 10.5204 39.945H25.376C26.5362 39.945 27.4726 40.8816 27.4726 42.0433ZM8.95346 44.8444C7.76319 46.1277 8.75038 48.3684 10.5204 48.3276H25.376C27.1467 48.3684 28.1339 46.1177 26.933 44.8444H8.95346ZM14.8654 51.9745H21.0418C22.3643 51.9745 23.453 51.0065 23.6668 49.7439H12.2404C12.4541 51.0065 13.5428 51.9745 14.8654 51.9745ZM28.2254 31.1134C26.0479 33.008 24.7147 35.6768 24.4402 38.5287H19.9323V10.0085C19.9323 9.40724 20.4413 8.92827 21.0418 8.97968C32.1729 9.96772 36.5178 23.9526 28.2254 31.1134ZM30.1992 21.5797C30.2299 17.3015 27.4212 13.2879 23.3715 11.8924C22.9547 11.74 22.4765 11.9639 22.3342 12.3921C22.1813 12.8196 22.395 13.2779 22.8225 13.4309C26.2209 14.602 28.5914 17.9736 28.5607 21.5797C28.5814 22.6492 30.1891 22.6492 30.1992 21.5797ZM9.49313 33.6807C10.0221 33.1302 11.2231 32.4174 11.6706 33.4255C11.8336 33.8431 11.6198 34.322 11.1924 34.485C9.36088 35.3201 10.3073 37.7952 11.4468 38.5287H15.0998C15.8833 37.9582 16.3916 37.0416 16.3916 36.0028V12.9112C16.3715 9.58028 11.8129 8.60227 10.4496 11.6278C11.5484 11.8416 14.7945 14.612 12.4641 15.1317C11.6907 15.101 11.5177 14.0722 10.9072 13.7262C7.84467 11.3018 3.48973 14.6227 4.81226 18.1573C6.19621 17.9021 8.01767 18.5849 8.94344 19.756C9.40162 20.255 8.98418 21.1214 8.32291 21.1007C8.08912 21.1007 7.86536 20.9992 7.70239 20.8054C7.48865 20.5509 7.01041 20.082 6.25764 19.8682C5.728 19.6952 4.99591 19.7359 4.56844 19.8782C0.345746 21.1108 -0.000242352 27.1205 4.02877 28.842C4.57846 27.9556 7.7939 25.5011 8.37368 27.2227C8.48588 27.6603 8.21072 28.1085 7.78387 28.2107C3.14374 29.3618 3.78495 35.8806 8.56736 36.0129C8.57739 35.2185 8.83187 34.3427 9.49313 33.6807ZM30.8911 11.5463C31.1049 11.5463 31.3086 11.4648 31.4709 11.3119L35.2461 7.53335C35.9888 6.7591 34.8594 5.62812 34.0966 6.38231L30.3214 10.1608C29.7924 10.6398 30.1891 11.5664 30.8911 11.5463ZM40.7606 20.8769H35.4291C34.3504 20.897 34.3611 22.4963 35.4291 22.5063H40.7606C41.8393 22.4963 41.8293 20.897 40.7606 20.8769ZM31.4609 32.0914C30.6874 31.3479 29.558 32.4782 30.3114 33.2425L34.0859 37.0216C34.8493 37.7752 35.9888 36.6241 35.2361 35.8705C35.2361 35.8599 31.4609 32.0914 31.4609 32.0914ZM19.9323 7.0036C20.3805 7.0036 20.7465 6.63685 20.7465 6.18859V0.840887C20.7465 0.392632 20.3805 0.0258789 19.9323 0.0258789C19.4848 0.0258789 19.1188 0.392632 19.1188 0.840887V6.17856C19.1188 6.63685 19.4848 7.0036 19.9323 7.0036Z" fill="#C8C8C8"/>
</g>
</svg>
