<svg width="47" height="45" viewBox="0 0 47 45" fill="none" xmlns="http://www.w3.org/2000/svg">
<g clip-path="url(#clip0_534_36172)">
<mask id="mask0_534_36172" style="mask-type:luminance" maskUnits="userSpaceOnUse" x="0" y="0" width="47" height="45">
<path d="M0.136719 0.0324707H46.9315V44.861H0.136719V0.0324707Z" fill="white"/>
</mask>
<g mask="url(#mask0_534_36172)">
<path fill-rule="evenodd" clip-rule="evenodd" d="M24.5772 5.97618C24.4933 5.95068 24.4083 5.92573 24.3223 5.90186C24.0203 5.81614 23.7162 5.77273 23.4158 5.76676L22.3949 4.73107C21.7172 4.04313 21.7172 2.91791 22.3949 2.22998C22.9717 1.64459 23.8845 1.54584 24.5708 1.99289C25.0989 2.33686 25.7969 2.04335 25.9311 1.4216C26.1016 0.627333 26.8023 0.0283745 27.6345 0.027832C28.4517 0.027832 29.1641 0.612142 29.3378 1.4216C29.472 2.04335 30.17 2.33686 30.6981 1.99289C31.3844 1.54584 32.2972 1.64513 32.874 2.22998C33.5517 2.91791 33.5517 4.04313 32.874 4.73107L31.6463 5.97618H24.5772ZM34.657 9.60466C34.7259 9.61171 34.7954 9.61768 34.8654 9.6231C35.2941 9.65511 35.6158 10.0343 35.5838 10.4689C35.5517 10.9035 35.1786 11.2295 34.75 11.1975C34.3411 11.1655 33.9547 11.1172 33.5869 11.0554C29.619 10.7163 27.4778 8.4458 23.9043 7.42421C22.7525 7.11117 21.5574 7.81104 21.249 8.97966C20.9412 10.1434 21.6349 11.3619 22.7819 11.6739C30.0086 13.7404 30.6441 19.0377 35.8975 18.1409L40.6111 17.3358V7.20177C40.2872 7.09163 40.0114 6.94352 39.7613 6.76557C38.7607 6.05214 38.1621 4.85422 36.4726 3.64166C35.9478 3.26459 35.4026 2.9407 34.843 2.66998C35.1118 3.77295 34.8227 4.98931 33.9755 5.84869L33.2743 6.55995C34.27 7.26416 34.7559 8.39046 34.657 9.60466ZM33.1097 9.41097C31.7393 9.21349 30.5992 8.76264 29.309 8.10563C28.9391 7.91737 28.581 7.73074 28.2272 7.54845H31.4191C32.3523 7.54845 33.1155 8.32319 33.1155 9.26991C33.1155 9.31765 33.1134 9.36431 33.1097 9.41097ZM20.7803 12.2772C20.0748 13.0964 19.3799 13.9406 18.7199 14.8043C17.9566 14.2667 17.551 13.2 17.8829 12.402L19.8129 7.75787C20.1464 6.95546 20.5991 6.30767 21.2127 5.76405C21.3474 5.91054 21.4933 6.0516 21.6333 6.1932C20.7338 6.66791 20.024 7.50884 19.7439 8.57058C19.3815 9.94265 19.8294 11.3505 20.7803 12.2772ZM46.9169 7.15077V17.3287C46.9169 17.9608 46.4086 18.4789 45.7854 18.48L43.3038 18.4838C42.6806 18.4849 42.1686 17.9684 42.1686 17.3363V7.15837C42.1686 6.52631 42.6768 6.00819 43.3 6.00711L45.7816 6.00277C46.4048 6.00222 46.9169 6.51872 46.9169 7.15077ZM44.8228 7.9114C44.4251 7.7557 43.9788 7.95643 43.8254 8.35954C43.6726 8.76264 43.8703 9.21566 44.2675 9.37082C44.6646 9.52653 45.1109 9.32579 45.2643 8.92269C45.4177 8.51959 45.2199 8.06711 44.8228 7.9114ZM4.45835 30.4673L10.8074 41.848C11.1142 42.3987 10.9218 43.1035 10.3793 43.4149L8.21948 44.6551C7.67752 44.9665 6.98216 44.7712 6.67537 44.2211L0.325749 32.8392C0.0189577 32.2891 0.21137 31.5844 0.753867 31.273L2.9137 30.0327C3.4562 29.7213 4.15102 29.9166 4.45835 30.4673ZM3.00242 32.173C2.58072 32.2354 2.28943 32.6325 2.35089 33.0601C2.41236 33.4876 2.80413 33.7833 3.2253 33.7209C3.64647 33.6585 3.9383 33.2613 3.87683 32.8338C3.81537 32.4063 3.42359 32.1106 3.00242 32.173ZM23.3907 33.2792C24.3618 33.3997 25.163 33.0894 25.4324 32.0688C25.6772 31.1427 25.1016 30.2709 24.24 29.9676C21.6157 29.4804 19.0689 28.5462 17.0667 27.8121C14.165 26.7477 13.39 26.5019 10.529 28.1816L6.34452 30.6398L10.839 38.6959L22.1763 41.778C23.8674 42.2376 24.8365 41.9365 26.3314 41.1628L42.1327 31.2919C42.6544 30.9659 42.912 30.2166 42.8372 29.4869C42.7757 28.8863 42.4823 28.3411 41.9393 28.0622C41.0937 27.6277 39.6367 27.7503 37.3989 29.0724L28.6612 34.2357C27.2822 35.0501 25.8215 35.2736 24.2549 35.0197C21.8722 34.6128 19.6349 33.9032 17.311 33.2716C16.8957 33.1588 16.6493 32.7264 16.7599 32.3054C16.8711 31.8844 17.2976 31.6343 17.7124 31.7466C19.6023 32.2598 21.4751 32.8772 23.3907 33.2792ZM37.7527 19.4267C39.1274 21.9093 39.4176 24.4017 38.904 26.6348C38.2129 26.8665 37.4523 27.2164 36.6201 27.7085L27.8824 32.8713C27.4431 33.1306 26.9968 33.3107 26.5398 33.4181C26.7109 33.1387 26.844 32.8235 26.9359 32.4763C27.3987 30.7239 26.3415 29.0019 24.6756 28.4545C24.6323 28.4398 24.5885 28.4301 24.5452 28.4241C22.0497 27.9635 19.5558 27.0488 17.5959 26.3305C17.1025 26.1493 16.6429 25.9805 16.2174 25.8319C15.9331 23.7919 16.3115 21.5719 17.5526 19.3616C18.5985 17.498 20.1245 15.4445 22.1304 13.1214C22.2063 13.148 22.2832 13.1734 22.3618 13.1957C24.7728 13.8804 26.2715 14.8862 27.9861 16.3012C27.8728 16.2355 27.7419 16.1981 27.6024 16.1981C27.1721 16.1981 26.8231 16.5518 26.8231 16.9886V17.5994C25.3159 17.9103 24.109 19.0844 24.1876 20.7282C24.2774 22.6016 25.8814 23.3585 27.4859 23.6259C28.3699 23.773 29.6286 24.073 29.7579 25.1537C29.7654 25.2177 29.7697 25.2644 29.7702 25.2937C29.7943 26.3022 28.4912 26.6511 27.7039 26.6701C27.6505 26.6706 27.6008 26.6657 27.5468 26.6695C26.6115 26.6446 25.6547 26.1851 25.4121 25.1982C25.3095 24.775 24.8888 24.5168 24.4719 24.6209C24.055 24.7246 23.8006 25.1515 23.9027 25.5747C24.2571 27.0162 25.4238 27.9212 26.8231 28.174V28.774C26.8231 29.2108 27.1721 29.5645 27.6024 29.5645C28.0326 29.5645 28.3811 29.2108 28.3811 28.774V28.1886C29.9065 27.951 31.363 26.9875 31.3224 25.2568C31.3197 25.1472 31.3138 25.0506 31.3037 24.9687C31.0733 23.0432 29.4009 22.3472 27.7355 22.0699C26.9471 21.9386 25.7868 21.6435 25.7397 20.6539C25.6911 19.6415 26.6825 19.1169 27.5559 19.0936C27.5901 19.0958 27.6238 19.0952 27.658 19.093C28.5083 19.1055 29.248 19.5396 29.5869 20.3577C29.7531 20.7603 30.2096 20.9496 30.6062 20.7809C31.0027 20.6121 31.1893 20.1488 31.0231 19.7468C30.5452 18.5923 29.5874 17.8219 28.3811 17.5875V16.988C28.3811 16.79 28.309 16.6082 28.1898 16.4699C28.4768 16.7086 28.7702 16.9593 29.0759 17.2213C31.2716 19.1017 33.1497 20.2128 36.1562 19.6991L37.7527 19.4267Z" fill="#C8C8C8"/>
<path fill-rule="evenodd" clip-rule="evenodd" d="M24.5772 5.97618C24.4933 5.95068 24.4083 5.92573 24.3223 5.90186C24.0203 5.81614 23.7162 5.77273 23.4158 5.76676L22.3949 4.73107C21.7172 4.04313 21.7172 2.91791 22.3949 2.22998C22.9717 1.64459 23.8845 1.54584 24.5708 1.99289C25.0989 2.33686 25.7969 2.04335 25.9311 1.4216C26.1016 0.627333 26.8023 0.0283745 27.6345 0.027832C28.4517 0.027832 29.1641 0.612142 29.3378 1.4216C29.472 2.04335 30.17 2.33686 30.6981 1.99289C31.3844 1.54584 32.2972 1.64513 32.874 2.22998C33.5517 2.91791 33.5517 4.04313 32.874 4.73107L31.6463 5.97618H24.5772ZM34.657 9.60466C34.7259 9.61171 34.7954 9.61768 34.8654 9.6231C35.2941 9.65511 35.6158 10.0343 35.5838 10.4689C35.5517 10.9035 35.1786 11.2295 34.75 11.1975C34.3411 11.1655 33.9547 11.1172 33.5869 11.0554C29.619 10.7163 27.4778 8.4458 23.9043 7.42421C22.7525 7.11117 21.5574 7.81104 21.249 8.97966C20.9412 10.1434 21.6349 11.3619 22.7819 11.6739C30.0086 13.7404 30.6441 19.0377 35.8975 18.1409L40.6111 17.3358V7.20177C40.2872 7.09163 40.0114 6.94352 39.7613 6.76557C38.7607 6.05214 38.1621 4.85422 36.4726 3.64166C35.9478 3.26459 35.4026 2.9407 34.843 2.66998C35.1118 3.77295 34.8227 4.98931 33.9755 5.84869L33.2743 6.55995C34.27 7.26416 34.7559 8.39046 34.657 9.60466ZM33.1097 9.41097C31.7393 9.21349 30.5992 8.76264 29.309 8.10563C28.9391 7.91737 28.581 7.73074 28.2272 7.54845H31.4191C32.3523 7.54845 33.1155 8.32319 33.1155 9.26991C33.1155 9.31765 33.1134 9.36431 33.1097 9.41097ZM20.7803 12.2772C20.0748 13.0964 19.3799 13.9406 18.7199 14.8043C17.9566 14.2667 17.551 13.2 17.8829 12.402L19.8129 7.75787C20.1464 6.95546 20.5991 6.30767 21.2127 5.76405C21.3474 5.91054 21.4933 6.0516 21.6333 6.1932C20.7338 6.66791 20.024 7.50884 19.7439 8.57058C19.3815 9.94265 19.8294 11.3505 20.7803 12.2772ZM46.9169 7.15077V17.3287C46.9169 17.9608 46.4086 18.4789 45.7854 18.48L43.3038 18.4838C42.6806 18.4849 42.1686 17.9684 42.1686 17.3363V7.15837C42.1686 6.52631 42.6768 6.00819 43.3 6.00711L45.7816 6.00277C46.4048 6.00222 46.9169 6.51872 46.9169 7.15077ZM44.8228 7.9114C44.4251 7.7557 43.9788 7.95643 43.8254 8.35954C43.6726 8.76264 43.8703 9.21566 44.2675 9.37082C44.6646 9.52653 45.1109 9.32579 45.2643 8.92269C45.4177 8.51959 45.2199 8.06711 44.8228 7.9114ZM4.45835 30.4673L10.8074 41.848C11.1142 42.3987 10.9218 43.1035 10.3793 43.4149L8.21948 44.6551C7.67752 44.9665 6.98216 44.7712 6.67537 44.2211L0.325749 32.8392C0.0189577 32.2891 0.21137 31.5844 0.753867 31.273L2.9137 30.0327C3.4562 29.7213 4.15102 29.9166 4.45835 30.4673ZM3.00242 32.173C2.58072 32.2354 2.28943 32.6325 2.35089 33.0601C2.41236 33.4876 2.80413 33.7833 3.2253 33.7209C3.64647 33.6585 3.9383 33.2613 3.87683 32.8338C3.81537 32.4063 3.42359 32.1106 3.00242 32.173ZM23.3907 33.2792C24.3618 33.3997 25.163 33.0894 25.4324 32.0688C25.6772 31.1427 25.1016 30.2709 24.24 29.9676C21.6157 29.4804 19.0689 28.5462 17.0667 27.8121C14.165 26.7477 13.39 26.5019 10.529 28.1816L6.34452 30.6398L10.839 38.6959L22.1763 41.778C23.8674 42.2376 24.8365 41.9365 26.3314 41.1628L42.1327 31.2919C42.6544 30.9659 42.912 30.2166 42.8372 29.4869C42.7757 28.8863 42.4823 28.3411 41.9393 28.0622C41.0937 27.6277 39.6367 27.7503 37.3989 29.0724L28.6612 34.2357C27.2822 35.0501 25.8215 35.2736 24.2549 35.0197C21.8722 34.6128 19.6349 33.9032 17.311 33.2716C16.8957 33.1588 16.6493 32.7264 16.7599 32.3054C16.8711 31.8844 17.2976 31.6343 17.7124 31.7466C19.6023 32.2598 21.4751 32.8772 23.3907 33.2792ZM37.7527 19.4267C39.1274 21.9093 39.4176 24.4017 38.904 26.6348C38.2129 26.8665 37.4523 27.2164 36.6201 27.7085L27.8824 32.8713C27.4431 33.1306 26.9968 33.3107 26.5398 33.4181C26.7109 33.1387 26.844 32.8235 26.9359 32.4763C27.3987 30.7239 26.3415 29.0019 24.6756 28.4545C24.6323 28.4398 24.5885 28.4301 24.5452 28.4241C22.0497 27.9635 19.5558 27.0488 17.5959 26.3305C17.1025 26.1493 16.6429 25.9805 16.2174 25.8319C15.9331 23.7919 16.3115 21.5719 17.5526 19.3616C18.5985 17.498 20.1245 15.4445 22.1304 13.1214C22.2063 13.148 22.2832 13.1734 22.3618 13.1957C24.7728 13.8804 26.2715 14.8862 27.9861 16.3012C27.8728 16.2355 27.7419 16.1981 27.6024 16.1981C27.1721 16.1981 26.8231 16.5518 26.8231 16.9886V17.5994C25.3159 17.9103 24.109 19.0844 24.1876 20.7282C24.2774 22.6016 25.8814 23.3585 27.4859 23.6259C28.3699 23.773 29.6286 24.073 29.7579 25.1537C29.7654 25.2177 29.7697 25.2644 29.7702 25.2937C29.7943 26.3022 28.4912 26.6511 27.7039 26.6701C27.6505 26.6706 27.6008 26.6657 27.5468 26.6695C26.6115 26.6446 25.6547 26.1851 25.4121 25.1982C25.3095 24.775 24.8888 24.5168 24.4719 24.6209C24.055 24.7246 23.8006 25.1515 23.9027 25.5747C24.2571 27.0162 25.4238 27.9212 26.8231 28.174V28.774C26.8231 29.2108 27.1721 29.5645 27.6024 29.5645C28.0326 29.5645 28.3811 29.2108 28.3811 28.774V28.1886C29.9065 27.951 31.363 26.9875 31.3224 25.2568C31.3197 25.1472 31.3138 25.0506 31.3037 24.9687C31.0733 23.0432 29.4009 22.3472 27.7355 22.0699C26.9471 21.9386 25.7868 21.6435 25.7397 20.6539C25.6911 19.6415 26.6825 19.1169 27.5559 19.0936C27.5901 19.0958 27.6238 19.0952 27.658 19.093C28.5083 19.1055 29.248 19.5396 29.5869 20.3577C29.7531 20.7603 30.2096 20.9496 30.6062 20.7809C31.0027 20.6121 31.1893 20.1488 31.0231 19.7468C30.5452 18.5923 29.5874 17.8219 28.3811 17.5875V16.988C28.3811 16.79 28.309 16.6082 28.1898 16.4699C28.4768 16.7086 28.7702 16.9593 29.0759 17.2213C31.2716 19.1017 33.1497 20.2128 36.1562 19.6991L37.7527 19.4267Z" fill="#C8C8C8"/>
</g>
</g>
<defs>
<clipPath id="clip0_534_36172">
<rect width="47" height="45" fill="white"/>
</clipPath>
</defs>
</svg>
