<svg width="44" height="38" viewBox="0 0 44 38" fill="none" xmlns="http://www.w3.org/2000/svg">
<path d="M34.0702 13.9418L33.7012 14.8105C33.6436 14.9519 33.5463 15.0728 33.4216 15.1577C33.297 15.2427 33.1505 15.2881 33.0007 15.2881C32.8509 15.2881 32.7045 15.2427 32.5798 15.1577C32.4551 15.0728 32.3579 14.9519 32.3002 14.8105L31.9312 13.9418C31.2824 12.405 30.0942 11.1728 28.6011 10.4884L27.4626 9.96815C27.3244 9.90314 27.2074 9.79896 27.1254 9.66798C27.0434 9.537 26.9998 9.3847 26.9998 9.22914C26.9998 9.07357 27.0434 8.92127 27.1254 8.79029C27.2074 8.65931 27.3244 8.55514 27.4626 8.49013L28.5381 8.00052C30.0687 7.29663 31.2772 6.01891 31.9147 4.43056L32.2942 3.4928C32.3499 3.34753 32.4471 3.22282 32.5732 3.13492C32.6992 3.04702 32.8482 3 33.0007 3C33.1532 3 33.3022 3.04702 33.4282 3.13492C33.5543 3.22282 33.6515 3.34753 33.7072 3.4928L34.0867 4.42903C34.7235 6.01767 35.9315 7.29594 37.4618 8.00052L38.5388 8.49166C38.6766 8.55686 38.7931 8.66102 38.8749 8.79183C38.9566 8.92264 39 9.07465 39 9.2299C39 9.38515 38.9566 9.53716 38.8749 9.66798C38.7931 9.79879 38.6766 9.90295 38.5388 9.96815L37.3988 10.4869C35.906 11.172 34.7184 12.4047 34.0702 13.9418ZM18.0003 6.07127H24.0005V9.14088H18.0003C15.6133 9.14088 13.3241 10.1111 11.6362 11.8381C9.94831 13.5651 9.00008 15.9074 9.00008 18.3497C9.00008 23.8904 12.6932 27.5064 21.0004 31.3649V27.5586H24.0005C26.3875 27.5586 28.6767 26.5883 30.3646 24.8614C32.0525 23.1344 33.0007 20.7921 33.0007 18.3497H36.0008C36.0008 21.6062 34.7365 24.7292 32.486 27.0319C30.2355 29.3346 27.1831 30.6282 24.0005 30.6282V36C16.5003 32.9304 6 28.326 6 18.3497C6 15.0933 7.26432 11.9702 9.51481 9.66755C11.7653 7.36489 14.8176 6.07127 18.0003 6.07127Z" fill="white"/>
</svg>
