<svg width="32" height="32" viewBox="0 0 32 32" fill="none" xmlns="http://www.w3.org/2000/svg">
<g clip-path="url(#clip0_66_4054)">
<path d="M7.27952 30.6567H11.7368V26.2052H7.27952V30.6567ZM3.55287 22.4795V26.2052H7.27855V22.4795H3.55287ZM31.75 12.215C30.3584 7.72778 26.7663 4.15306 22.2781 2.74407C11.9903 -0.467759 2.5 7.18296 2.5 16.9936H8.29465C8.29465 10.837 14.4028 6.07686 20.8807 8.42356C22.0716 8.85633 23.1534 9.54459 24.0499 10.44C24.9465 11.3354 25.6362 12.4163 26.0705 13.6066C28.4356 20.0787 23.6696 26.1752 17.5189 26.1868V26.2052H17.5005V31.9999C27.3353 31.9999 34.9676 22.5163 31.75 12.216V12.215ZM17.5189 26.1868V20.4232H11.7368V26.2052H17.5005V26.1868H17.5189Z" fill="white"/>
</g>
<defs>
<clipPath id="clip0_66_4054">
<rect width="30.875" height="30.875" fill="white" transform="translate(0.720703 0.650269)"/>
</clipPath>
</defs>
</svg>
