<svg width="32" height="32" viewBox="0 0 32 32" fill="none" xmlns="http://www.w3.org/2000/svg">
<path d="M16.7998 26.3786H5.22168C4.70989 26.3786 4.21907 26.1753 3.85718 25.8134C3.4953 25.4515 3.29199 24.9607 3.29199 24.4489V7.72498C3.29199 7.21319 3.4953 6.72237 3.85718 6.36048C4.21907 5.99859 4.70989 5.79529 5.22168 5.79529H27.0915C27.6033 5.79529 28.0941 5.99859 28.456 6.36048C28.8179 6.72237 29.0212 7.21319 29.0212 7.72498V16.6922" stroke="white" stroke-width="2.57292" stroke-linecap="round" stroke-linejoin="round"/>
<path d="M3.29199 7.72498C3.29199 7.21319 3.4953 6.72237 3.85718 6.36048C4.21907 5.99859 4.70989 5.79529 5.22168 5.79529H27.0915C27.6033 5.79529 28.0941 5.99859 28.456 6.36048C28.8179 6.72237 29.0212 7.21319 29.0212 7.72498V13.514H3.29199V7.72498Z" stroke="white" stroke-width="2.57292"/>
<path d="M21.3018 23.1625H29.0205M25.1611 19.3031V27.0219" stroke="white" stroke-width="2.57292" stroke-linecap="round" stroke-linejoin="round"/>
<path d="M5.86654 9.65409C5.86654 8.9436 6.4425 8.36764 7.15299 8.36764C7.86349 8.36764 8.43945 8.9436 8.43945 9.65409C8.43945 10.3646 7.86349 10.9406 7.15299 10.9406C6.4425 10.9406 5.86654 10.3646 5.86654 9.65409Z" fill="white"/>
<path d="M9.72591 9.65409C9.72591 8.9436 10.3019 8.36764 11.0124 8.36764C11.7229 8.36764 12.2988 8.9436 12.2988 9.65409C12.2988 10.3646 11.7229 10.9406 11.0124 10.9406C10.3019 10.9406 9.72591 10.3646 9.72591 9.65409Z" fill="white"/>
</svg>
