<svg width="44" height="38" viewBox="0 0 44 38" fill="none" xmlns="http://www.w3.org/2000/svg">
<path d="M28.1814 17.0001C28.1814 17.2894 28.0664 17.5669 27.8619 17.7715C27.6573 17.9761 27.3798 18.091 27.0905 18.091H15.091C14.8017 18.091 14.5242 17.9761 14.3196 17.7715C14.115 17.5669 14.0001 17.2894 14.0001 17.0001C14.0001 16.7108 14.115 16.4333 14.3196 16.2288C14.5242 16.0242 14.8017 15.9093 15.091 15.9093H27.0905C27.3798 15.9093 27.6573 16.0242 27.8619 16.2288C28.0664 16.4333 28.1814 16.7108 28.1814 17.0001ZM15.091 9.36407H27.0905C27.3798 9.36407 27.6573 9.24914 27.8619 9.04456C28.0664 8.83998 28.1814 8.56252 28.1814 8.2732C28.1814 7.98389 28.0664 7.70642 27.8619 7.50184C27.6573 7.29727 27.3798 7.18234 27.0905 7.18234H15.091C14.8017 7.18234 14.5242 7.29727 14.3196 7.50184C14.115 7.70642 14.0001 7.98389 14.0001 8.2732C14.0001 8.56252 14.115 8.83998 14.3196 9.04456C14.5242 9.24914 14.8017 9.36407 15.091 9.36407ZM27.0905 24.6362H15.091C14.8017 24.6362 14.5242 24.7511 14.3196 24.9557C14.115 25.1603 14.0001 25.4377 14.0001 25.727C14.0001 26.0164 14.115 26.2938 14.3196 26.4984C14.5242 26.703 14.8017 26.8179 15.091 26.8179H27.0905C27.3798 26.8179 27.6573 26.703 27.8619 26.4984C28.0664 26.2938 28.1814 26.0164 28.1814 25.727C28.1814 25.4377 28.0664 25.1603 27.8619 24.9557C27.6573 24.7511 27.3798 24.6362 27.0905 24.6362ZM8.86487 5.31968L5.2732 8.91272L3.86326 7.50141C3.65857 7.29672 3.38095 7.18173 3.09147 7.18173C2.80199 7.18173 2.52438 7.29672 2.31968 7.50141C2.11499 7.7061 2 7.98372 2 8.2732C2 8.56268 2.11499 8.8403 2.31968 9.04499L4.50141 11.2267C4.60273 11.3281 4.72304 11.4086 4.85546 11.4635C4.98789 11.5184 5.12984 11.5467 5.2732 11.5467C5.41656 11.5467 5.55851 11.5184 5.69094 11.4635C5.82337 11.4086 5.94368 11.3281 6.04499 11.2267L10.4084 6.86326C10.6131 6.65857 10.7281 6.38095 10.7281 6.09147C10.7281 5.80199 10.6131 5.52438 10.4084 5.31968C10.2038 5.11499 9.92614 5 9.63666 5C9.34718 5 9.06956 5.11499 8.86487 5.31968ZM8.86487 14.0466L5.2732 17.6396L3.86326 16.2283C3.65857 16.0236 3.38095 15.9086 3.09147 15.9086C2.80199 15.9086 2.52438 16.0236 2.31968 16.2283C2.11499 16.433 2 16.7106 2 17.0001C2 17.1435 2.02823 17.2854 2.08308 17.4178C2.13793 17.5502 2.21833 17.6706 2.31968 17.7719L4.50141 19.9536C4.60273 20.0551 4.72304 20.1355 4.85546 20.1904C4.98789 20.2453 5.12984 20.2736 5.2732 20.2736C5.41656 20.2736 5.55851 20.2453 5.69094 20.1904C5.82337 20.1355 5.94368 20.0551 6.04499 19.9536L10.4084 15.5902C10.6131 15.3855 10.7281 15.1079 10.7281 14.8184C10.7281 14.5289 10.6131 14.2513 10.4084 14.0466C10.2038 13.8419 9.92614 13.7269 9.63666 13.7269C9.34718 13.7269 9.06956 13.8419 8.86487 14.0466ZM8.86487 22.7735L5.2732 26.3666L3.86326 24.9552C3.76191 24.8539 3.64158 24.7735 3.50916 24.7186C3.37674 24.6638 3.23481 24.6356 3.09147 24.6356C2.94814 24.6356 2.80621 24.6638 2.67378 24.7186C2.54136 24.7735 2.42104 24.8539 2.31968 24.9552C2.21833 25.0566 2.13793 25.1769 2.08308 25.3093C2.02823 25.4418 2 25.5837 2 25.727C2 25.8704 2.02823 26.0123 2.08308 26.1447C2.13793 26.2771 2.21833 26.3975 2.31968 26.4988L4.50141 28.6806C4.60273 28.782 4.72304 28.8624 4.85546 28.9173C4.98789 28.9722 5.12984 29.0005 5.2732 29.0005C5.41656 29.0005 5.55851 28.9722 5.69094 28.9173C5.82337 28.8624 5.94368 28.782 6.04499 28.6806L10.4084 24.3171C10.6131 24.1124 10.7281 23.8348 10.7281 23.5453C10.7281 23.2558 10.6131 22.9782 10.4084 22.7735C10.2038 22.5688 9.92614 22.4538 9.63666 22.4538C9.34718 22.4538 9.06956 22.5688 8.86487 22.7735Z" fill="white"/>
</svg>
