<svg width="39" height="38" viewBox="0 0 39 38" fill="none" xmlns="http://www.w3.org/2000/svg">
<path d="M10.4264 31.5838C7.99345 31.5838 5.91498 30.7416 4.19104 29.0572C2.46709 27.3728 1.60459 25.3142 1.60352 22.8812C1.60352 20.7958 2.23181 18.9376 3.48841 17.3067C4.74501 15.6758 6.38928 14.6331 8.42122 14.1786C9.08963 11.7188 10.4264 9.72701 12.4316 8.20305C14.4368 6.67909 16.7094 5.91711 19.2493 5.91711C22.3775 5.91711 25.0313 7.00688 27.2108 9.18641C29.3904 11.3659 30.4796 14.0192 30.4785 17.1463C32.3233 17.3602 33.8542 18.1558 35.0712 19.5333C36.2883 20.9107 36.8962 22.5213 36.8952 24.365C36.8952 26.3702 36.1936 28.0749 34.7905 29.4791C33.3874 30.8833 31.6827 31.5849 29.6764 31.5838H10.4264ZM10.4264 28.3754H29.6764C30.7993 28.3754 31.7485 27.9878 32.5238 27.2124C33.2992 26.4371 33.6868 25.4879 33.6868 24.365C33.6868 23.2421 33.2992 22.293 32.5238 21.5176C31.7485 20.7423 30.7993 20.3546 29.6764 20.3546H27.2702V17.1463C27.2702 14.9272 26.4879 13.0353 24.9233 11.4707C23.3587 9.90614 21.4674 9.12438 19.2493 9.12545C17.0313 9.12652 15.14 9.90882 13.5754 11.4723C12.0108 13.0359 11.2285 14.9272 11.2285 17.1463H10.4264C8.87574 17.1463 7.5523 17.6944 6.45612 18.7906C5.35994 19.8867 4.81185 21.2102 4.81185 22.7609C4.81185 24.3116 5.35994 25.635 6.45612 26.7312C7.5523 27.8274 8.87574 28.3754 10.4264 28.3754Z" fill="white"/>
</svg>
