<svg width="89" height="41" viewBox="0 0 89 41" fill="none" xmlns="http://www.w3.org/2000/svg">
<path d="M10.3983 21.2499C9.24186 20.4383 8.95661 18.8376 9.83362 17.7298C13.7235 12.8167 18.6178 8.77646 24.1998 5.88593C30.5402 2.60265 37.5801 0.900003 44.7202 0.922951C51.8602 0.945898 58.889 2.69376 65.2082 6.01773C70.7715 8.94408 75.6397 13.0157 79.498 17.9537C80.3678 19.0671 80.0723 20.6659 78.9106 21.4701L61.6994 33.3852C60.5377 34.1894 58.9561 33.8846 57.9976 32.8466C56.59 31.3222 54.9286 30.0441 53.0812 29.0723C50.4766 27.7023 47.5794 26.9818 44.6364 26.9724C41.6935 26.9629 38.7918 27.6647 36.1784 29.018C34.3248 29.9779 32.6552 31.2453 31.2378 32.7606C30.2727 33.7924 28.6891 34.087 27.5326 33.2754L10.3983 21.2499Z" fill="white"/>
<path d="M43.9432 9.36364V21H42.1818V11.125H42.1136L39.3295 12.9432V11.2614L42.2329 9.36364H43.9432ZM47.3211 21.108C47.0104 21.108 46.7434 20.9981 46.5199 20.7784C46.2964 20.5549 46.1847 20.286 46.1847 19.9716C46.1847 19.661 46.2964 19.3958 46.5199 19.1761C46.7434 18.9527 47.0104 18.8409 47.3211 18.8409C47.6317 18.8409 47.8987 18.9527 48.1222 19.1761C48.3457 19.3958 48.4574 19.661 48.4574 19.9716C48.4574 20.1799 48.4044 20.3712 48.2983 20.5455C48.1961 20.7159 48.0597 20.8523 47.8892 20.9545C47.7188 21.0568 47.5294 21.108 47.3211 21.108Z" fill="black"/>
</svg>
