<svg width="89" height="41" viewBox="0 0 89 41" fill="none" xmlns="http://www.w3.org/2000/svg">
<path opacity="0.59" d="M13.4569 23.3965C10.6113 21.3993 9.8939 17.4356 12.2739 14.9014C15.6996 11.2536 19.7291 8.20099 24.1998 5.88593C30.5402 2.60265 37.5801 0.900003 44.7202 0.922951C51.8602 0.945898 58.889 2.69376 65.2082 6.01773C69.6639 8.36148 73.6738 11.4399 77.076 15.1097C79.4396 17.6592 78.6968 21.6182 75.8383 23.597L64.7717 31.2583C61.9133 33.2371 58.0286 32.4006 55.2004 30.3787C54.5265 29.897 53.8187 29.4603 53.0812 29.0723C50.4766 27.7023 47.5794 26.9818 44.6364 26.9724C41.6935 26.9629 38.7918 27.6647 36.1784 29.018C35.4384 29.4012 34.7278 29.8334 34.0508 30.3108C31.2097 32.3144 27.3197 33.1259 24.4741 31.1287L13.4569 23.3965Z" fill="url(#paint0_linear_1076_15224)"/>
<path d="M42.5405 21.1591C41.7602 21.1591 41.0632 21.0246 40.4495 20.7557C39.8397 20.4867 39.3567 20.1136 39.0007 19.6364C38.6484 19.1553 38.459 18.5985 38.4325 17.9659H40.2166C40.2393 18.3106 40.3548 18.6098 40.5632 18.8636C40.7753 19.1136 41.0518 19.3068 41.3927 19.4432C41.7336 19.5795 42.1124 19.6477 42.5291 19.6477C42.9874 19.6477 43.3927 19.5682 43.745 19.4091C44.1011 19.25 44.3795 19.0284 44.5802 18.7443C44.781 18.4564 44.8814 18.125 44.8814 17.75C44.8814 17.3598 44.781 17.017 44.5802 16.7216C44.3833 16.4223 44.0935 16.1875 43.7109 16.017C43.3321 15.8466 42.8738 15.7614 42.3359 15.7614H41.353V14.3295H42.3359C42.7677 14.3295 43.1465 14.2519 43.4723 14.0966C43.8018 13.9413 44.0594 13.7254 44.245 13.4489C44.4306 13.1686 44.5234 12.8409 44.5234 12.4659C44.5234 12.1061 44.442 11.7936 44.2791 11.5284C44.12 11.2595 43.8927 11.0492 43.5973 10.8977C43.3056 10.7462 42.9609 10.6705 42.5632 10.6705C42.1844 10.6705 41.8302 10.7405 41.5007 10.8807C41.1749 11.017 40.9098 11.214 40.7052 11.4716C40.5007 11.7254 40.3908 12.0303 40.3757 12.3864H38.6768C38.6958 11.7576 38.8814 11.2045 39.2336 10.7273C39.5897 10.25 40.0594 9.87689 40.6427 9.60795C41.2261 9.33901 41.8738 9.20455 42.5859 9.20455C43.3321 9.20455 43.9761 9.35038 44.5177 9.64205C45.0632 9.92992 45.4836 10.3144 45.7791 10.7955C46.0783 11.2765 46.2261 11.803 46.2223 12.375C46.2261 13.0265 46.0442 13.5795 45.6768 14.0341C45.3132 14.4886 44.8283 14.7936 44.2223 14.9489V15.0398C44.995 15.1572 45.5935 15.464 46.0177 15.9602C46.4458 16.4564 46.6579 17.072 46.6541 17.8068C46.6579 18.447 46.4798 19.0208 46.12 19.5284C45.7639 20.036 45.2772 20.4356 44.6598 20.7273C44.0423 21.0152 43.3359 21.1591 42.5405 21.1591ZM49.3601 21.108C49.0495 21.108 48.7825 20.9981 48.559 20.7784C48.3355 20.5549 48.2238 20.286 48.2238 19.9716C48.2238 19.661 48.3355 19.3958 48.559 19.1761C48.7825 18.9527 49.0495 18.8409 49.3601 18.8409C49.6707 18.8409 49.9378 18.9527 50.1613 19.1761C50.3847 19.3958 50.4965 19.661 50.4965 19.9716C50.4965 20.1799 50.4434 20.3712 50.3374 20.5455C50.2351 20.7159 50.0988 20.8523 49.9283 20.9545C49.7578 21.0568 49.5684 21.108 49.3601 21.108Z" fill="black"/>
<defs>
<linearGradient id="paint0_linear_1076_15224" x1="8.10013" y1="46.5595" x2="19.9189" y2="86.8699" gradientUnits="userSpaceOnUse">
<stop stop-color="#E3DAFF"/>
<stop offset="0.274689" stop-color="#E9B7FF"/>
<stop offset="0.646623" stop-color="#FFB7EB"/>
<stop offset="0.976458" stop-color="#EBB5FF"/>
</linearGradient>
</defs>
</svg>
