<svg width="467" height="467" viewBox="0 0 467 467" fill="none" xmlns="http://www.w3.org/2000/svg">
<circle cx="237" cy="233" r="160" fill="white" fill-opacity="0.12"/>
<path d="M276 233C276 254.539 258.539 272 237 272C215.461 272 198 254.539 198 233C198 211.461 215.461 194 237 194C258.539 194 276 211.461 276 233ZM200.431 233C200.431 253.197 216.803 269.569 237 269.569C257.197 269.569 273.569 253.197 273.569 233C273.569 212.803 257.197 196.431 237 196.431C216.803 196.431 200.431 212.803 200.431 233Z" fill="white" fill-opacity="0.07"/>
<path opacity="0.59" d="M372.117 269.079C376.718 270.038 379.696 274.554 378.473 279.092C373.008 299.384 363.257 318.308 349.841 334.569C334.616 353.022 315.13 367.493 293.064 376.733C270.997 385.973 247.014 389.704 223.183 387.604C202.183 385.754 181.858 379.424 163.564 369.081C159.473 366.767 158.345 361.478 160.89 357.526L198.605 298.986C201.151 295.035 206.399 293.957 210.667 295.926C216.998 298.846 223.803 300.665 230.79 301.281C240.612 302.146 250.498 300.608 259.593 296.8C268.688 292.991 276.72 287.027 282.995 279.42C287.459 274.01 290.938 267.885 293.299 261.325C294.89 256.903 299.341 253.919 303.943 254.878L372.117 269.079Z" fill="url(#paint0_linear_528_20754)"/>
<path d="M153.856 347.038C151.155 350.885 145.83 351.834 142.146 348.916C125.801 335.976 112.361 319.694 102.745 301.125C91.8223 280.032 86.1582 256.613 86.2345 232.86C86.3109 209.108 92.1254 185.725 103.183 164.703C112.918 146.196 126.463 130.001 142.89 117.166C146.594 114.272 151.913 115.256 154.588 119.12L194.226 176.376C196.901 180.241 195.887 185.502 192.434 188.691C187.363 193.373 183.111 198.9 179.878 205.046C175.32 213.711 172.924 223.349 172.892 233.139C172.861 242.929 175.196 252.582 179.698 261.276C182.891 267.442 187.107 272.996 192.148 277.712C195.58 280.922 196.56 286.19 193.86 290.038L153.856 347.038Z" fill="white"/>
<path opacity="0.92" d="M162.241 113.339C159.606 109.447 160.613 104.132 164.651 101.726C187.603 88.0472 213.893 80.8351 240.719 80.9435C270.387 81.0633 299.328 90.1318 323.76 106.963C348.192 123.795 366.976 147.606 377.659 175.285C387.317 200.311 389.945 227.446 385.342 253.765C384.532 258.395 379.925 261.23 375.35 260.154L307.56 244.218C302.985 243.143 300.211 238.558 300.638 233.877C301.481 224.612 300.189 215.237 296.813 206.487C292.41 195.078 284.667 185.264 274.597 178.326C264.526 171.388 252.597 167.65 240.369 167.601C230.99 167.563 221.769 169.696 213.413 173.786C209.191 175.852 203.919 174.894 201.284 171.002L162.241 113.339Z" fill="#E9B8FF"/>
<path d="M131.061 216.557V245.44H126.689V220.929H126.52L119.609 225.442V221.267L126.816 216.557H131.061ZM139.445 245.708C138.674 245.708 138.012 245.436 137.457 244.89C136.902 244.336 136.625 243.668 136.625 242.888C136.625 242.117 136.902 241.459 137.457 240.913C138.012 240.359 138.674 240.081 139.445 240.081C140.216 240.081 140.879 240.359 141.434 240.913C141.989 241.459 142.266 242.117 142.266 242.888C142.266 243.405 142.134 243.88 141.871 244.312C141.617 244.735 141.279 245.074 140.856 245.328C140.433 245.581 139.962 245.708 139.445 245.708Z" fill="black"/>
<path d="M279.228 159.506V156.347L289.001 146.221C290.045 145.121 290.905 144.157 291.582 143.329C292.268 142.493 292.781 141.698 293.119 140.946C293.458 140.194 293.627 139.395 293.627 138.548C293.627 137.589 293.401 136.762 292.95 136.066C292.499 135.361 291.883 134.82 291.103 134.444C290.322 134.059 289.443 133.866 288.465 133.866C287.431 133.866 286.528 134.078 285.757 134.501C284.986 134.924 284.394 135.521 283.98 136.292C283.567 137.063 283.36 137.965 283.36 139H279.199C279.199 137.241 279.604 135.704 280.412 134.388C281.221 133.072 282.33 132.051 283.741 131.328C285.151 130.594 286.754 130.227 288.55 130.227C290.364 130.227 291.963 130.589 293.345 131.313C294.736 132.028 295.822 133.006 296.603 134.247C297.383 135.479 297.773 136.87 297.773 138.421C297.773 139.493 297.571 140.542 297.167 141.566C296.772 142.591 296.081 143.734 295.094 144.994C294.107 146.244 292.734 147.763 290.976 149.549L285.236 155.557V155.768H298.239V159.506H279.228ZM305.823 159.774C305.052 159.774 304.389 159.501 303.834 158.956C303.28 158.401 303.002 157.734 303.002 156.953C303.002 156.182 303.28 155.524 303.834 154.979C304.389 154.424 305.052 154.147 305.823 154.147C306.594 154.147 307.257 154.424 307.812 154.979C308.366 155.524 308.644 156.182 308.644 156.953C308.644 157.47 308.512 157.945 308.249 158.378C307.995 158.801 307.656 159.139 307.233 159.393C306.81 159.647 306.34 159.774 305.823 159.774Z" fill="black"/>
<path d="M266.572 345.59C264.635 345.59 262.905 345.256 261.382 344.588C259.869 343.921 258.67 342.995 257.786 341.81C256.912 340.616 256.441 339.234 256.376 337.664H260.804C260.86 338.519 261.147 339.262 261.664 339.892C262.191 340.513 262.877 340.992 263.723 341.331C264.57 341.669 265.51 341.838 266.544 341.838C267.682 341.838 268.688 341.641 269.562 341.246C270.446 340.851 271.137 340.301 271.635 339.596C272.134 338.881 272.383 338.059 272.383 337.128C272.383 336.159 272.134 335.308 271.635 334.575C271.146 333.832 270.427 333.249 269.478 332.826C268.537 332.403 267.4 332.192 266.065 332.192H263.625V328.638H266.065C267.136 328.638 268.077 328.445 268.885 328.059C269.703 327.674 270.343 327.138 270.803 326.452C271.264 325.756 271.494 324.943 271.494 324.012C271.494 323.118 271.292 322.343 270.888 321.685C270.493 321.017 269.929 320.495 269.195 320.119C268.472 319.743 267.616 319.555 266.629 319.555C265.688 319.555 264.809 319.729 263.991 320.077C263.183 320.415 262.525 320.904 262.017 321.544C261.509 322.174 261.237 322.93 261.199 323.814H256.982C257.029 322.253 257.49 320.881 258.364 319.696C259.248 318.511 260.414 317.585 261.862 316.918C263.31 316.25 264.917 315.916 266.685 315.916C268.537 315.916 270.136 316.278 271.48 317.002C272.834 317.717 273.878 318.671 274.611 319.865C275.354 321.059 275.721 322.366 275.711 323.786C275.721 325.403 275.269 326.776 274.357 327.904C273.455 329.032 272.251 329.789 270.747 330.175V330.4C272.665 330.692 274.15 331.454 275.203 332.685C276.266 333.917 276.792 335.445 276.783 337.269C276.792 338.858 276.351 340.282 275.457 341.542C274.574 342.802 273.365 343.794 271.833 344.518C270.3 345.232 268.547 345.59 266.572 345.59ZM283.5 345.463C282.729 345.463 282.066 345.19 281.511 344.645C280.957 344.09 280.679 343.423 280.679 342.642C280.679 341.871 280.957 341.213 281.511 340.668C282.066 340.113 282.729 339.836 283.5 339.836C284.271 339.836 284.934 340.113 285.488 340.668C286.043 341.213 286.321 341.871 286.321 342.642C286.321 343.159 286.189 343.634 285.926 344.067C285.672 344.49 285.333 344.828 284.91 345.082C284.487 345.336 284.017 345.463 283.5 345.463Z" fill="black"/>
<defs>
<linearGradient id="paint0_linear_528_20754" x1="216" y1="360.5" x2="355.269" y2="348.983" gradientUnits="userSpaceOnUse">
<stop stop-color="#E3DAFF"/>
<stop offset="0.274689" stop-color="#E9B7FF"/>
<stop offset="0.646623" stop-color="#FFB7EB"/>
<stop offset="0.976458" stop-color="#EBB5FF"/>
</linearGradient>
</defs>
</svg>
