<svg width="89" height="41" viewBox="0 0 89 41" fill="none" xmlns="http://www.w3.org/2000/svg">
<path opacity="0.92" d="M13.4569 23.3965C10.6112 21.3993 9.8939 17.4356 12.2739 14.9014C15.6996 11.2536 19.7291 8.20099 24.1998 5.88593C30.5402 2.60265 37.5801 0.900003 44.7202 0.922951C51.8602 0.945898 58.889 2.69376 65.2082 6.01773C69.6639 8.36148 73.6738 11.4399 77.076 15.1097C79.4396 17.6592 78.6968 21.6182 75.8383 23.597L64.7717 31.2583C61.9133 33.2371 58.0286 32.4006 55.2004 30.3787C54.5265 29.897 53.8187 29.4603 53.0812 29.0723C50.4766 27.7023 47.5794 26.9818 44.6364 26.9724C41.6935 26.9629 38.7918 27.6647 36.1784 29.018C35.4384 29.4012 34.7278 29.8334 34.0508 30.3108C31.2097 32.3144 27.3197 33.1259 24.4741 31.1287L13.4569 23.3965Z" fill="#E9B8FF"/>
<path d="M38.5674 21V19.7273L42.5049 15.6477C42.9254 15.2045 43.272 14.8163 43.5447 14.483C43.8212 14.1458 44.0277 13.8258 44.164 13.5227C44.3004 13.2197 44.3686 12.8977 44.3686 12.5568C44.3686 12.1705 44.2777 11.8371 44.0959 11.5568C43.914 11.2727 43.6659 11.0549 43.3515 10.9034C43.0371 10.7481 42.683 10.6705 42.289 10.6705C41.8724 10.6705 41.5087 10.7557 41.1981 10.9261C40.8875 11.0966 40.6489 11.3371 40.4822 11.6477C40.3155 11.9583 40.2322 12.322 40.2322 12.7386H38.5561C38.5561 12.0303 38.719 11.411 39.0447 10.8807C39.3705 10.3504 39.8174 9.93939 40.3856 9.64773C40.9538 9.35227 41.5996 9.20455 42.3231 9.20455C43.0542 9.20455 43.6981 9.35038 44.2549 9.64205C44.8155 9.92992 45.253 10.3239 45.5674 10.8239C45.8818 11.3201 46.039 11.8807 46.039 12.5057C46.039 12.9375 45.9576 13.3598 45.7947 13.7727C45.6356 14.1856 45.3572 14.6458 44.9595 15.1534C44.5618 15.6572 44.0087 16.2689 43.3004 16.9886L40.9879 19.4091V19.4943H46.2265V21H38.5674ZM49.282 21.108C48.9714 21.108 48.7043 20.9981 48.4809 20.7784C48.2574 20.5549 48.1456 20.286 48.1456 19.9716C48.1456 19.661 48.2574 19.3958 48.4809 19.1761C48.7043 18.9527 48.9714 18.8409 49.282 18.8409C49.5926 18.8409 49.8596 18.9527 50.0831 19.1761C50.3066 19.3958 50.4184 19.661 50.4184 19.9716C50.4184 20.1799 50.3653 20.3712 50.2593 20.5455C50.157 20.7159 50.0206 20.8523 49.8502 20.9545C49.6797 21.0568 49.4903 21.108 49.282 21.108Z" fill="black"/>
</svg>
