<svg width="177" height="177" viewBox="0 0 177 177" fill="none" xmlns="http://www.w3.org/2000/svg">
<path d="M157.211 131.207C154.363 128.402 119.849 115.052 113.586 112.534C107.357 110.06 104.871 103.203 104.871 103.203C104.871 103.203 102.067 104.754 102.067 100.399C102.067 96.0388 104.871 103.203 107.676 86.3891C107.676 86.3891 115.456 84.2062 113.911 66.1549H112.041C112.041 66.1549 116.715 46.8555 112.041 40.3234C107.351 33.7913 105.515 29.4366 95.2163 26.3135C84.9343 23.1959 88.6732 23.8172 81.2063 24.1361C73.7285 24.4495 67.5043 28.4963 67.5043 30.6682C67.5043 30.6682 62.8307 30.9816 60.9722 32.8511C59.1027 34.7205 55.9906 43.43 55.9906 45.6074C55.9906 47.7847 57.5467 62.4325 59.1027 65.5336L57.2498 66.1384C55.6937 84.1952 63.474 86.3836 63.474 86.3836C66.2782 103.198 69.0823 96.0333 69.0823 100.394C69.0823 104.748 66.2782 103.198 66.2782 103.198C66.2782 103.198 63.7874 110.049 57.5632 112.528C51.339 115.019 16.787 128.402 13.9773 131.201C11.1731 134.06 11.4865 147.124 11.4865 147.124H159.691C159.691 147.124 160.037 134.049 157.2 131.196L157.211 131.207ZM122.378 143.578H97.2947V136.705H122.378V143.578Z" fill="#E4E4E4"/>
</svg>
